<?xml version="1.0" standalone="no"?>
<svg id="svg1" baseProfile="full" height="200" width="800" version="1.1" xmlns="http://www.w3.org/2000/svg" xmlns:ev="http://www.w3.org/2001/xml-events" xmlns:xlink="http://www.w3.org/1999/xlink" onmousedown="mouseDown(evt)" onmouseup="mouseUp(evt)" onmousemove="mouseMove(evt)">
                <script type="text/JavaScript">
                    
                        var svg = document.getElementById("svg1");
                        var pt = svg.createSVGPoint();
                        isDrawing = false;
                        start = 0;
                        sp = null;
                        function alert_coords(evt) {
                            pt.x = evt.clientX;
                            pt.y = evt.clientY;
                            // The cursor point, translated into svg coordinates
                            var point =  pt.matrixTransform(svg.getScreenCTM().inverse());
                            return point;
                        }
                        function mouseDown(evt) {
                            point = alert_coords(evt);
                            isDrawing = true;
                            var path = document.getElementById("path1");
                            var d = path.getAttributeNS(null, "d") + "M"+ point.x + "," + point.y+ " ";
                            path.setAttributeNS(null, "d", d);
                        }
                        function mouseUp(evt) {
                            if (isDrawing === true) {
                                point = alert_coords(evt);
                                var path = document.getElementById("path1");
                                var d = path.getAttributeNS(null, "d") + "M"+ point.x + "," + point.y+ " ";
                                path.setAttributeNS(null, "d", d);
                                isDrawing = false;
                            }
                        }
                        function mouseMove(evt) {
                            if (isDrawing === true) {
                                point = alert_coords(evt);
                                var path = document.getElementById("path1");
                                x = point.x;
                                y = point.y ;
                                var d = path.getAttributeNS(null, "d") + "L"+ x + "," + y + " ";
                                path.setAttributeNS(null, "d", d);
                            }
                        }
                    
                </script>
                <rect id="rect1" fill="white" height="200" width="800" stroke="black" x="0" y="0"/>
                <path id="path1" d="M17,87 L17,87 L17,87 L17,86 L17,84 L17,83 L17,82 L17,81 L18,79 L19,78 L20,77 L20,76 L21,76 L21,75 L22,74 L23,73 L23,73 L24,72 L24,72 L25,71 L25,71 L26,70 L26,70 L27,70 L27,70 L28,70 L28,70 L28,70 L29,70 L29,70 L29,71 L29,72 L30,73 L30,74 L30,75 L30,76 L30,77 L30,78 L30,79 L30,80 L30,82 L30,83 L30,85 L30,87 L30,89 L30,92 L30,94 L30,96 L30,98 L30,100 L30,103 L30,106 L30,108 L30,110 L30,111 L30,113 L30,114 L30,115 L30,115 L30,116 L30,116 L30,115 L29,115 L29,113 L28,110 L28,107 L28,103 L28,100 L28,97 L28,95 L28,93 L28,92 L28,90 L29,88 L29,86 L29,85 L30,82 L30,81 L31,79 L31,77 L32,76 L32,74 L33,73 L34,72 L34,71 L35,70 L35,69 L36,68 L37,67 L38,66 L39,66 L39,66 L40,66 L41,66 L42,67 L43,68 L44,70 L45,71 L46,73 L47,76 L48,78 L49,81 L50,83 L51,85 L51,88 L52,90 L53,93 L53,95 L53,99 L53,101 L54,103 L54,105 L54,107 L54,109 L54,110 L54,112 L54,113 L54,114 L54,115 L54,116 L54,116 L54,117 L53,117 L53,117 L53,117 L52,115 L51,112 L50,108 L50,103 L49,97 L49,92 L49,87 L49,84 L49,82 L49,81 L49,79 L49,79 L50,77 L50,76 L51,75 L52,74 L53,73 L54,72 L54,71 L55,71 L56,70 L56,69 L57,68 L58,67 L59,67 L59,66 L60,66 L61,66 L62,66 L62,66 L63,66 L63,67 L64,70 L65,71 L65,73 L66,75 L67,77 L68,79 L68,81 L69,83 L69,85 L69,87 L69,88 L69,90 L69,92 L69,94 L70,96 L70,100 L70,102 L70,104 L70,105 L71,106 L71,106 L71,107 L71,107 L71,107 L72,108 L72,108 L72,108 L72,108 L73,108 L74,108 L74,108 L75,108 L76,108 L77,108 L77,108 L78,108 L78,108 L79,107 L79,107 L80,106 L80,106 L81,106 L81,105 L81,105 L81,105 L82,105 L82,105 L82,104 L82,104 L83,104 L83,103 L83,103 L83,102 M83,102 M91,64 L91,64 L91,65 L91,67 L91,70 L91,72 L91,75 L90,77 L89,80 L88,82 L88,85 L87,87 L86,90 L85,92 L85,94 L85,95 L84,97 L84,99 L84,100 L84,101 L84,103 L84,104 L84,105 L84,105 L85,106 L86,107 L86,107 L88,108 L89,108 L91,109 L92,109 L93,109 L95,109 L96,109 L97,109 L98,109 L100,109 L101,108 L102,108 L104,107 L105,106 L105,104 L106,102 L107,99 L108,96 L109,91 L110,88 L110,85 L110,82 L110,79 L110,77 L110,75 L110,72 L109,70 L108,68 L107,67 L106,65 L104,64 L103,64 L101,64 L99,64 L97,64 L96,64 L94,64 L93,64 L92,64 L91,65 L90,67 L89,69 L88,71 L87,73 L87,76 L86,77 L86,80 L86,81 L86,83 L87,85 L89,86 L90,88 L91,89 L92,89 L93,89 L94,89 L95,89 L96,89 L97,89 L98,89 L99,88 L100,87 L100,87 L101,86 L102,85 L102,84 L103,83 L103,81 L103,81 L103,80 L103,80 L103,79 L103,79 L104,79 M104,79 M124,62 L124,61 L123,61 L123,61 L121,61 L120,61 L119,61 L118,61 L116,62 L116,62 L115,63 L114,65 L113,66 L113,67 L112,68 L112,69 L112,70 L112,71 L112,72 L112,74 L112,74 L113,75 L114,76 L114,77 L115,79 L115,79 L116,80 L117,81 L118,81 L119,81 L120,82 L121,82 L122,82 L123,82 L124,82 L125,82 L126,82 L127,83 L128,83 L129,83 L130,84 L131,84 L132,85 L133,86 L133,87 L134,88 L135,90 L135,92 L135,94 L136,97 L136,98 L136,100 L136,102 L135,103 L134,105 L133,106 L132,107 L129,108 L128,108 L125,108 L123,108 L122,107 L120,105 L119,103 L118,102 L117,100 L117,98 L117,97 L117,96 L117,95 L117,94 L117,93 L117,92 L117,92 M117,92 M137,31 L137,31 L137,31 L137,33 L137,37 L137,39 L137,43 L137,46 L137,49 L137,52 L137,56 L137,57 L137,59 L137,61 L137,63 L137,64 L137,65 L138,66 L138,67 L138,69 L139,71 L139,74 L140,77 L140,79 L141,81 L141,83 L142,84 L142,86 L143,87 L143,88 L144,89 L144,92 L145,93 L145,95 L145,96 L146,97 L146,98 L146,98 L146,99 L147,100 L147,101 L148,102 L148,103 L149,103 L149,104 L150,105 L151,105 L153,106 L154,106 L156,106 L157,106 L159,106 L160,106 L161,105 L162,104 L163,103 L164,102 L164,101 L165,100 L165,99 L165,99 L165,98 L165,98 M165,98 M128,68 L129,68 L131,68 L132,68 L134,68 L136,68 L137,68 L139,68 L140,68 L141,68 L143,68 L144,68 L145,68 L146,68 L146,68 M146,68 M172,111 L172,110 L172,110 L172,105 L172,101 L172,95 L172,89 L172,86 L172,81 L172,77 L172,73 L172,68 L172,64 L172,59 L172,56 L172,53 L172,51 L172,49 L171,46 L169,43 L168,39 L166,36 L164,33 L163,31 L161,31 L161,31 L159,31 L159,31 L158,33 L157,36 L157,39 L157,43 L157,47 L157,51 L157,56 L159,60 L159,65 L160,69 L161,73 L162,77 L162,80 L163,85 L163,88 L164,91 L165,94 L167,97 L168,99 L170,101 L171,102 L173,103 L174,104 L176,105 L177,105 L179,105 L180,105 L181,105 L182,105 L184,105 L184,105 L185,105 L185,105 L185,105 L185,105 L184,104 M184,104 M186,66 L186,66 L186,67 L186,70 L186,75 L186,81 L186,86 L186,89 L186,93 L186,96 L186,99 L186,101 L187,102 L188,103 L189,104 L190,104 L192,104 L193,104 L195,104 L198,101 L201,99 L203,96 L205,92 L206,88 L207,85 L208,82 L208,78 L208,76 L208,73 L208,71 L208,70 L208,70 L208,69 L207,69 L207,69 L207,69 L207,69 L206,70 L206,70 L206,72 L206,75 L206,78 L206,81 L206,85 L206,89 L206,94 L206,99 L206,104 L207,108 L207,113 L208,116 L208,120 L208,124 L208,127 L208,131 L208,135 L208,139 L208,142 L208,145 L208,146 L208,148 L207,148 L206,149 L203,150 L201,151 L198,151 L195,151 L191,151 L186,148 L184,147 L180,144 L177,141 L175,138 L174,136 L173,135 L173,134 L173,134 L173,134 L173,134 M173,134 M275,72 L275,72 L274,72 L273,72 L272,72 L271,72 L269,72 L267,72 L265,72 L263,72 L260,72 L258,72 L256,72 L254,72 L252,72 L252,73 L251,73 L251,74 L251,76 L251,77 L251,80 L251,84 L251,88 L251,92 L252,95 L252,98 L253,100 L254,102 L254,103 L255,104 L256,105 L258,106 L259,107 L261,107 L264,108 L267,108 L270,108 L272,108 L274,108 L275,108 L275,108 L276,108 L277,108 L278,108 L279,108 L280,107 L280,107 L280,107 M280,107 M291,99 L291,98 L291,94 L291,89 L291,85 L291,77 L291,73 L291,67 L291,62 L291,55 L291,51 L291,47 L291,44 L290,42 L290,41 L289,40 L289,39 L288,39 L287,37 L286,36 L284,35 L283,35 L282,35 L282,35 L281,36 L280,41 L280,47 L280,54 L280,60 L280,67 L280,71 L281,75 L282,78 L283,81 L284,84 L284,86 L285,89 L286,92 L286,94 L287,96 L288,98 L289,100 L290,101 L291,102 L292,103 L294,104 L296,105 L297,105 L299,106 L300,106 L301,106 L302,106 L302,106 L303,106 L303,106 L303,105 L303,104 M303,104 M317,70 L317,70 L317,70 L316,70 L315,70 L315,70 L313,70 L313,70 L312,70 L311,70 L310,71 L309,73 L309,74 L308,77 L307,79 L307,81 L307,84 L306,90 L306,93 L306,95 L306,97 L306,98 L306,99 L306,100 L306,101 L307,101 L309,102 L311,103 L314,103 L315,103 L317,103 L318,103 L319,103 L320,103 L321,103 L322,102 L323,101 L324,101 L325,98 L326,96 L327,93 L327,89 L327,86 L327,83 L327,80 L327,77 L327,75 L327,73 L326,72 L325,71 L324,70 L323,70 L321,69 L320,69 L319,69 L318,69 L316,69 L315,69 L314,69 L314,69 L313,69 L312,70 M312,70 M336,68 L336,68 L336,69 L336,70 L336,72 L336,73 L336,75 L336,77 L336,78 L336,81 L337,83 L338,85 L338,87 L339,89 L339,90 L340,92 L340,93 L341,94 L341,95 L342,96 L343,97 L344,97 L345,98 L346,99 L348,100 L349,100 L350,101 L351,101 L351,101 L352,101 L352,101 L352,101 L353,101 L353,101 L354,97 L354,96 L354,89 L354,85 L354,81 L354,78 L354,76 L354,74 L354,73 L354,71 L354,70 L354,68 L353,67 L353,66 L353,65 L353,64 L352,64 L352,63 L352,63 L352,63 L352,64 L352,65 L352,68 L352,71 L352,74 L352,77 L352,80 L352,82 L352,84 L353,86 L353,88 L355,89 L356,91 L357,93 L360,95 L360,95 L362,96 L363,97 L364,97 L364,98 L365,98 L366,98 L366,98 L367,98 L367,98 L367,98 L367,98 L368,98 L368,98 L368,97 L368,96 M368,96 M382,71 L382,71 L382,71 L381,71 L380,71 L379,71 L378,71 L378,71 L377,71 L377,71 L376,71 L375,71 L374,72 L374,72 L374,73 L373,73 L373,74 L373,76 L372,78 L372,81 L372,84 L371,86 L371,88 L371,91 L371,93 L371,94 L372,97 L372,98 L373,99 L373,100 L374,100 L374,101 L375,102 L377,102 L379,103 L380,103 L382,104 L383,104 L384,104 L385,103 L386,100 L387,95 L388,91 L389,85 L389,79 L389,75 L389,70 L389,65 L388,59 L387,53 L384,46 L382,38 L380,33 L379,28 L378,24 L377,22 L376,21 L376,21 L376,21 L376,21 L375,23 L375,25 L375,31 L376,37 L376,43 L377,51 L378,56 L379,60 L381,64 L382,67 L384,71 L386,75 L388,78 L389,82 L390,85 L391,87 L393,89 L394,91 L396,93 L398,95 L401,97 L403,98 L404,99 L405,99 L406,100 L407,100 L408,100 L408,100 L409,100 L410,100 L410,100 L410,100 L410,99 M410,99 M408,69 L408,69 L408,73 L408,76 L408,81 L408,84 L408,86 L408,88 L409,89 L410,90 L412,91 L414,92 L415,92 L417,93 L418,94 L419,94 L420,94 L420,94 L421,94 L421,93 L422,92 L422,89 L423,87 L423,84 L423,81 L423,77 L423,75 L423,72 L422,71 L422,70 L422,69 L422,68 L422,67 L421,65 L421,65 L421,65 L421,65 L421,66 L421,69 L422,72 L423,75 L424,79 L425,83 L427,87 L428,91 L430,96 L431,99 L433,103 L434,107 L435,110 L437,114 L438,118 L439,121 L439,123 L440,125 L440,128 L440,130 L440,133 L439,135 L437,138 L435,140 L433,140 L431,141 L427,141 L423,141 L418,139 L413,136 L407,131 L402,126 L398,123 L396,119 L393,116 L392,114 L392,114 L392,113 L392,113 L392,113 L392,113 L392,112 M392,112 " fill="none" stroke="blue" stroke-width="1"/> 
            </svg>