<?xml version="1.0" standalone="no"?>
<svg id="svg1" baseProfile="full" height="200" width="800" version="1.1" xmlns="http://www.w3.org/2000/svg" xmlns:ev="http://www.w3.org/2001/xml-events" xmlns:xlink="http://www.w3.org/1999/xlink" onmousedown="mouseDown(evt)" onmouseup="mouseUp(evt)" onmousemove="mouseMove(evt)">
                <script type="text/JavaScript">
                    
                        var svg = document.getElementById("svg1");
                        var pt = svg.createSVGPoint();
                        isDrawing = false;
                        start = 0;
                        sp = null;
                        function alert_coords(evt) {
                            pt.x = evt.clientX;
                            pt.y = evt.clientY;
                            // The cursor point, translated into svg coordinates
                            var point =  pt.matrixTransform(svg.getScreenCTM().inverse());
                            return point;
                        }
                        function mouseDown(evt) {
                            point = alert_coords(evt);
                            isDrawing = true;
                            var path = document.getElementById("path1");
                            var d = path.getAttributeNS(null, "d") + "M"+ point.x + "," + point.y+ " ";
                            path.setAttributeNS(null, "d", d);
                        }
                        function mouseUp(evt) {
                            if (isDrawing === true) {
                                point = alert_coords(evt);
                                var path = document.getElementById("path1");
                                var d = path.getAttributeNS(null, "d") + "M"+ point.x + "," + point.y+ " ";
                                path.setAttributeNS(null, "d", d);
                                isDrawing = false;
                            }
                        }
                        function mouseMove(evt) {
                            if (isDrawing === true) {
                                point = alert_coords(evt);
                                var path = document.getElementById("path1");
                                x = point.x;
                                y = point.y ;
                                var d = path.getAttributeNS(null, "d") + "L"+ x + "," + y + " ";
                                path.setAttributeNS(null, "d", d);
                            }
                        }
                    
                </script>
                <rect id="rect1" fill="white" height="200" width="800" stroke="black" x="0" y="0"/>
                <path id="path1" d="M17,78 L17,78 L18,78 L18,78 L19,78 L20,78 L21,78 L22,78 L23,79 L25,79 L26,80 L27,81 L28,82 L28,83 L29,84 L29,86 L29,89 L29,91 L29,94 L29,96 L29,99 L28,102 L28,104 L27,107 L27,109 L26,111 L25,113 L24,116 L23,117 L23,119 L22,120 L22,121 L22,122 L22,122 L21,122 L20,123 L19,123 L19,123 L18,123 L18,120 L19,117 L21,111 L22,106 L24,102 L24,98 L25,95 L26,93 L26,91 L27,89 L28,87 L29,84 L30,83 L31,81 L33,80 L34,79 L36,77 L38,76 L39,76 L40,76 L42,75 L42,75 L43,75 L43,75 L44,75 L44,75 L44,75 L45,75 M45,75 M71,87 L70,87 L70,87 L68,87 L67,87 L65,87 L63,87 L61,87 L58,87 L56,87 L53,87 L51,87 L49,88 L48,88 L46,88 L45,89 L44,90 L43,91 L41,92 L40,94 L38,96 L37,98 L36,101 L35,104 L34,108 L33,111 L33,114 L32,118 L32,120 L32,123 L32,124 L32,125 L32,126 L32,127 L33,128 L34,129 L36,129 L37,130 L39,130 L40,130 L42,130 L44,130 L46,128 L49,124 L52,121 L55,118 L56,116 L57,114 L58,113 L59,111 L60,110 L61,107 L63,104 L64,102 L65,99 L65,98 L66,97 L66,97 L66,96 L66,96 L66,96 L66,95 L66,94 L66,94 L66,95 L65,97 L64,99 L63,102 L62,105 L61,107 L60,110 L59,113 L59,115 L58,118 L58,119 L58,121 L58,123 L58,124 L58,124 L58,125 L58,126 L58,126 L60,127 L62,128 L64,128 L66,128 L67,128 L68,128 L68,128 L69,127 L70,127 L70,125 L71,124 L72,123 L72,122 L73,122 L73,122 M73,122 M72,127 L72,128 L72,127 L73,126 L74,123 L74,122 L75,119 L76,116 L76,113 L77,111 L77,108 L78,105 L79,101 L80,99 L80,97 L81,94 L82,92 L82,91 L83,89 L83,89 L83,89 L83,88 L83,87 L84,86 L84,85 L84,85 L84,85 L82,85 L81,86 L78,88 L77,91 L75,92 L74,95 L74,97 L73,99 L73,100 L72,102 L72,104 L72,106 L72,108 L72,109 L72,111 L72,112 L73,114 L74,115 L76,116 L78,118 L80,119 L83,120 L85,121 L87,121 L88,122 L90,122 L91,122 L94,122 L94,122 L96,122 L96,122 L97,122 M97,122 M89,67 L89,68 L89,68 L89,69 L89,69 L89,69 L89,71 L89,71 L89,73 L89,74 L89,75 L89,75 L90,76 L90,77 L91,78 L92,78 L93,79 L93,79 L95,79 L96,79 L97,79 L98,78 L99,76 L100,75 L100,74 L101,73 L101,72 L101,71 L100,70 L99,69 L99,68 L98,66 L97,65 L97,65 L96,64 L95,64 L94,64 L93,64 L91,64 L90,65 L88,65 L88,66 L88,66 L88,66 L88,67 M88,67 M93,96 L93,96 L93,95 L93,94 L93,94 L93,93 L94,93 L94,93 L96,93 L97,93 L98,93 L99,93 L101,93 L102,93 L103,93 L103,93 L104,94 L105,96 L105,98 L106,100 L106,103 L106,107 L106,110 L106,114 L104,117 L102,120 L101,123 L99,124 L98,126 L98,126 L97,127 L97,128 L97,127 L97,126 L97,123 L99,119 L101,115 L104,110 L106,107 L108,104 L110,102 L111,101 L112,99 L113,98 L114,97 L115,96 L116,95 L117,95 L118,94 L119,94 L120,94 L121,94 L122,94 L123,94 L124,94 L124,95 L125,97 L125,100 L125,104 L125,107 L125,109 L125,112 L124,114 L123,116 L122,119 L122,120 L121,121 L121,121 L121,122 L121,122 L122,123 L123,123 L125,123 L126,123 L128,123 L131,122 L133,121 L135,119 L136,118 L137,117 L138,116 L138,115 L139,115 L139,114 L140,113 L140,111 L141,108 L142,105 L142,102 L143,99 L144,97 L144,95 L144,95 L144,94 L144,95 L144,95 L143,98 L142,101 L141,103 L140,107 L138,111 L138,114 L138,116 L137,118 L137,120 L137,120 L137,121 L137,121 L137,122 L138,122 L140,122 L142,122 L144,122 L147,121 L150,119 L153,117 L155,115 L157,113 L159,110 L160,107 L161,104 L162,102 L163,100 L163,99 L163,99 L163,98 L163,98 L161,98 L160,100 L158,103 L156,108 L155,112 L154,117 L152,121 L151,125 L151,130 L149,135 L149,140 L148,144 L147,149 L146,153 L144,157 L143,160 L141,163 L139,167 L137,169 L136,171 L134,172 L133,173 L132,173 L130,173 L129,173 L127,172 L125,170 L122,167 L121,163 L120,159 L120,156 L120,154 L120,152 L120,151 L120,150 L120,149 L121,148 L122,147 L124,146 L126,145 L128,145 L130,145 L131,145 L132,145 L133,145 L134,145 L134,145 L135,145 L135,145 L135,145 L135,145 M135,145 M187,122 L187,122 L189,121 L193,119 L197,117 L202,115 L202,115 L208,112 L211,110 L214,108 L216,106 L217,104 L218,103 L219,101 L220,100 L220,99 L221,98 L221,97 L221,96 L221,95 L220,94 L218,93 L217,92 L216,91 L215,90 L213,90 L212,89 L211,89 L210,89 L209,89 L209,89 L208,89 L207,91 L207,95 L207,100 L207,104 L207,107 L207,109 L208,111 L211,113 L215,113 L218,114 L222,115 L224,115 L226,116 L227,117 L228,117 L228,118 L229,118 L229,119 L229,119 L228,120 L227,121 L224,121 L221,122 L218,123 L214,124 L211,124 L208,124 L205,124 L204,124 L202,124 L201,123 L200,122 L199,121 L199,121 L199,121 L199,120 M199,120 M237,93 L237,93 L238,93 L239,93 L239,93 L240,93 L240,94 L240,96 L240,98 L240,101 L240,103 L239,106 L237,108 L236,109 L235,110 L234,111 L234,111 L234,112 L234,112 L234,112 L234,113 L233,115 L233,117 L233,118 L233,119 L232,119 L232,120 L232,120 L232,120 L233,121 L233,121 L235,121 L236,121 L239,121 L242,120 L245,118 L247,115 L249,113 L252,110 L253,109 L255,107 L256,106 L257,105 L258,103 L259,102 L259,101 L260,100 L260,99 L261,98 L262,97 L262,97 L261,97 L261,97 L260,98 L258,99 L257,100 L256,102 L255,103 L254,104 L253,106 L252,107 L252,109 L251,111 L251,113 L251,116 L251,117 L251,119 L251,120 L252,121 L253,122 L254,122 L256,123 L257,123 L259,123 L260,123 L261,123 L262,123 L264,122 L265,121 L266,120 L267,118 L268,117 L269,116 L270,114 L271,114 L271,113 M271,113 M276,100 L276,100 L277,100 L277,100 L277,100 L279,100 L280,100 L280,100 L281,100 L281,100 L282,100 L283,100 L284,100 L284,101 L285,101 L285,102 L285,103 L285,104 L285,106 L284,109 L282,112 L280,115 L279,117 L278,119 L277,120 L277,121 L277,121 L277,122 L277,121 L277,120 L277,116 L277,113 L279,108 L281,105 L284,103 L286,101 L289,99 L291,97 L292,96 L293,96 L294,95 L295,95 L296,94 L297,94 L298,94 L299,94 L300,94 L301,94 L301,96 L301,97 L301,100 L301,102 L301,105 L301,108 L300,110 L299,113 L298,115 L297,117 L296,119 L296,121 L296,122 L296,123 L296,123 L296,124 L296,124 L297,124 L298,124 L302,121 L305,120 L306,119 L307,118 L308,117 L308,117 L308,117 L308,116 M308,116 M312,100 L312,100 L312,100 L312,100 L312,99 L312,98 L313,97 L314,96 L314,95 L315,95 L317,94 L318,94 L319,94 L321,94 L322,94 L323,94 L324,94 L324,94 L325,94 L325,96 L326,98 L326,100 L326,102 L326,106 L326,110 L324,114 L323,118 L321,121 L320,123 L319,124 L319,125 L318,126 L318,126 L318,126 L318,126 L318,126 L318,125 L318,122 L319,118 L322,113 L324,110 L327,106 L329,103 L331,101 L333,99 L334,98 L336,98 L337,97 L339,97 L341,96 L343,96 L344,96 L345,96 L346,96 L346,96 L347,97 L347,99 L347,100 L347,104 L347,106 L345,109 L344,111 L343,113 L342,114 L342,115 L342,116 L342,116 L342,117 L342,117 L342,117 L342,117 L343,117 L345,117 L347,116 L349,115 L350,114 L351,113 L352,112 L353,112 L353,112 M353,112 M362,96 L362,97 L362,98 L362,100 L362,102 L362,104 L362,106 L362,108 L362,109 L362,111 L362,112 L362,113 L363,113 L365,114 L367,114 L371,114 L374,114 L377,113 L379,111 L381,108 L382,105 L384,102 L385,99 L386,96 L386,94 L387,92 L387,91 L387,90 L387,89 L387,89 L386,89 L386,89 L384,89 L383,90 L381,91 L380,93 L378,96 L377,99 L376,103 L375,106 L373,110 L371,116 L369,121 L367,125 L365,129 L363,132 L362,136 L360,140 L357,144 L355,149 L353,153 L351,157 L348,160 L347,161 L345,162 L343,163 L341,164 L339,164 L337,164 L335,165 L332,165 L331,165 L329,165 L327,165 L325,162 L323,160 L322,157 L321,154 L321,151 L321,148 L322,145 L324,142 L326,139 L328,137 L331,135 L333,134 L334,133 L335,133 L336,133 L337,133 L338,133 L339,133 L340,134 L341,135 L341,136 L342,137 L342,138 L342,138 L342,139 L343,140 L343,142 L344,144 L345,146 L345,147 M345,147 M437,99 L438,99 L437,99 L437,99 L435,99 L434,99 L432,99 L430,99 L429,99 L427,98 L425,100 L423,101 L422,104 L420,107 L419,110 L419,112 L418,115 L418,116 L418,118 L418,119 L419,120 L420,121 L422,122 L424,122 L426,122 L429,122 L432,122 L436,120 L439,115 L443,109 L446,101 L449,93 L452,86 L453,81 L456,73 L457,65 L458,62 L459,55 L459,52 L459,51 L459,51 L458,51 L458,51 L456,52 L454,55 L452,58 L450,62 L448,65 L447,69 L446,73 L445,79 L443,85 L443,91 L442,96 L442,100 L442,103 L442,106 L442,108 L442,111 L442,114 L443,117 L444,118 L444,120 L445,121 L445,121 L446,122 L447,122 L450,121 L455,119 L456,118 L459,116 L461,116 L462,115 L463,114 L463,113 M463,113 M486,98 L486,97 L486,97 L485,97 L484,97 L483,97 L482,97 L481,97 L480,96 L479,96 L478,95 L476,95 L474,95 L472,95 L471,95 L469,96 L467,98 L465,100 L463,103 L462,105 L461,107 L461,110 L460,112 L460,115 L460,118 L460,121 L460,123 L460,125 L462,126 L464,127 L467,127 L469,128 L473,128 L475,128 L478,127 L480,126 L481,123 L483,121 L484,117 L486,114 L487,110 L487,107 L488,106 L488,105 L488,105 L488,104 L488,104 L488,104 L488,104 L488,103 L488,103 L488,103 L488,103 L487,103 L486,104 L484,107 L484,108 L483,110 L482,112 L482,114 L482,117 L482,119 L482,122 L482,124 L483,126 L483,126 L484,127 L485,128 L486,128 L488,129 L490,129 L492,129 L495,126 L497,123 L499,119 L501,115 L502,112 L504,108 L504,106 L505,104 L505,103 L506,101 L506,100 L506,99 L506,99 L506,100 L506,101 L505,102 L504,105 L503,111 L502,114 L502,117 L502,120 L502,123 L502,127 L502,129 L502,130 L502,131 L503,132 L504,132 L506,131 L509,128 L514,123 L516,120 L520,116 L522,114 L523,111 L524,110 L525,108 L525,107 L525,107 L525,107 L525,106 L525,106 L525,106 L525,106 L523,106 L522,107 L520,109 L518,112 L516,118 L514,121 L513,127 L511,132 L510,136 L509,142 L507,146 L506,149 L505,152 L504,155 L502,159 L500,162 L499,165 L498,167 L496,168 L495,170 L493,171 L490,172 L487,173 L483,173 L480,172 L477,170 L474,166 L472,162 L470,158 L468,154 L468,151 L467,147 L467,145 L467,143 L467,142 L467,141 L468,141 L468,141 L468,141 M468,141 M474,141 L474,141 M474,141 " fill="none" stroke="blue" stroke-width="1"/> 
            </svg>