<?xml version="1.0" encoding="utf-8" ?>
<svg id="svg_1" baseProfile="full" height="92.15000015497208" version="1.1" width="345.35000494122505" xmlns="http://www.w3.org/2000/svg" xmlns:ev="http://www.w3.org/2001/xml-events" xmlns:xlink="http://www.w3.org/1999/xlink"><defs /><rect fill="white" height="92.15000015497208" width="345.35000494122505" x="0" y="0" /><path d="M25,47.9499994404614 m0.0,-0.0 l0.0,-0.0 0.25,-0.0 l0.45000001788139343,-0.4000000059604645 0.699999988079071,-0.75 l0.6000000238418579,-1.2000000476837158 0.6000000238418579,-1.0 l0.3499999940395355,-0.800000011920929 0.05000000074505806,-0.6000000238418579 l-0.10000000149011612,-0.0 -0.25,0.20000000298023224 l-0.25,0.6000000238418579 -0.25,1.399999976158142 l0.05000000074505806,1.2000000476837158 0.4000000059604645,1.600000023841858 l0.4000000059604645,1.649999976158142 0.5,0.949999988079071 l0.699999988079071,0.6000000238418579 0.699999988079071,0.25 l0.75,-0.0 0.9000000357627869,-1.0500000715255737 l1.0,-1.399999976158142 1.0,-1.75 l1.0,-1.850000023841858 0.75,-1.649999976158142 l0.6000000238418579,-1.0 0.20000000298023224,-0.4000000059604645 l0.0,-0.0 0.0,0.15000000596046448 l0.10000000149011612,1.25 -0.10000000149011612,1.600000023841858 l0.05000000074505806,1.600000023841858 0.15000000596046448,1.399999976158142 l0.0,1.0 0.15000000596046448,0.4000000059604645 l0.10000000149011612,-0.0 0.25,-0.0 l0.25,-1.0500000715255737 0.5,-1.9500000476837158 l0.949999988079071,-1.7000000476837158 1.100000023841858,-1.600000023841858 l1.25,-1.3000000715255737 1.0500000715255737,-0.45000001788139343 l0.9000000357627869,-0.05000000074505806 1.0,0.5 l0.8500000238418579,1.0 0.5,1.350000023841858 l0.5,1.399999976158142 0.10000000149011612,1.2000000476837158 l0.15000000596046448,0.949999988079071 -0.25,0.8500000238418579 l-0.3499999940395355,0.4000000059604645 -0.25,-0.15000000596046448 m-17.55000114440918,-16.950000762939453 l-0.3499999940395355,0.20000000298023224 -0.10000000149011612,0.4000000059604645 l-0.25,0.800000011920929 -0.25,0.6000000238418579 m31.0,12.15000057220459 l0.10000000149011612,0.4000000059604645 0.30000001192092896,0.15000000596046448 l0.45000001788139343,-0.25 0.800000011920929,-0.75 l1.0500000715255737,-1.149999976158142 1.0500000715255737,-1.75 l0.8500000238418579,-2.1500000953674316 0.75,-1.9500000476837158 l0.6000000238418579,-2.1500000953674316 0.3499999940395355,-2.049999952316284 l0.3499999940395355,-1.25 0.10000000149011612,-0.8500000238418579 l0.0,-0.550000011920929 -0.10000000149011612,-0.25 l0.15000000596046448,0.4000000059604645 0.10000000149011612,0.550000011920929 l0.45000001788139343,1.350000023841858 0.4000000059604645,1.8000000715255737 l0.25,2.1500000953674316 0.10000000149011612,2.200000047683716 l-0.05000000074505806,2.25 -0.05000000074505806,2.450000047683716 l-0.15000000596046448,2.5 -0.20000000298023224,1.850000023841858 l-0.30000001192092896,1.4500000476837158 0.05000000074505806,1.0 l-0.10000000149011612,0.20000000298023224 0.25,-0.25 m-2.049999952316284,-5.349999904632568 l0.20000000298023224,0.4000000059604645 0.699999988079071,0.5 l0.550000011920929,-0.10000000149011612 0.699999988079071,0.10000000149011612 l0.800000011920929,-0.75 0.949999988079071,-1.149999976158142 l0.949999988079071,-1.8000000715255737 0.9000000357627869,-2.0 l0.949999988079071,-2.4000000953674316 0.8500000238418579,-2.4000000953674316 l0.6000000238418579,-2.4000000953674316 0.5,-1.899999976158142 l0.15000000596046448,-1.7000000476837158 -0.05000000074505806,-1.0 l-0.15000000596046448,-0.3499999940395355 -0.10000000149011612,0.25 l-0.10000000149011612,0.20000000298023224 -0.05000000074505806,1.2000000476837158 l-0.05000000074505806,1.850000023841858 -0.20000000298023224,2.299999952316284 l-0.15000000596046448,2.5 -0.20000000298023224,2.450000047683716 l-0.10000000149011612,2.700000047683716 -0.10000000149011612,2.25 l-0.10000000149011612,2.0 0.0,1.25 l0.15000000596046448,1.2000000476837158 0.10000000149011612,-0.05000000074505806 l0.15000000596046448,-0.0 0.20000000298023224,-0.45000001788139343 l0.3499999940395355,-1.0500000715255737 0.4000000059604645,-1.350000023841858 l0.45000001788139343,-1.25 0.30000001192092896,-1.3000000715255737 l0.4000000059604645,-0.699999988079071 0.25,-0.25 l0.05000000074505806,-0.0 0.20000000298023224,0.3499999940395355 l0.30000001192092896,1.0 0.45000001788139343,0.9000000357627869 l0.699999988079071,0.8500000238418579 0.699999988079071,0.949999988079071 l0.9000000357627869,0.75 1.0,0.6500000357627869 l1.100000023841858,0.20000000298023224 1.100000023841858,-0.25 l1.149999976158142,-0.5 1.0,-1.0500000715255737 l0.949999988079071,-0.8500000238418579 0.550000011920929,-1.2000000476837158 l0.10000000149011612,-1.0500000715255737 -0.15000000596046448,-0.75 l-0.550000011920929,-0.699999988079071 -0.75,-0.4000000059604645 l-0.6500000357627869,-0.05000000074505806 -0.5,0.30000001192092896 l-0.45000001788139343,0.699999988079071 -0.3499999940395355,0.949999988079071 l-0.10000000149011612,1.0 0.10000000149011612,1.25 l0.5,1.100000023841858 0.800000011920929,0.8500000238418579 l1.4500000476837158,1.100000023841858 1.649999976158142,0.4000000059604645 m21.450000762939453,-7.5 l-0.10000000149011612,-0.15000000596046448 0.0,-0.0 l-0.20000000298023224,-0.15000000596046448 -0.30000001192092896,-0.10000000149011612 l-0.3499999940395355,0.10000000149011612 -0.550000011920929,0.20000000298023224 l-0.8500000238418579,0.30000001192092896 -0.800000011920929,0.9000000357627869 l-0.6000000238418579,1.25 -0.3499999940395355,1.600000023841858 l-0.25,1.5500000715255737 0.25,1.649999976158142 l0.45000001788139343,0.8500000238418579 0.699999988079071,0.8500000238418579 l0.699999988079071,0.20000000298023224 0.9000000357627869,0.15000000596046448 l0.550000011920929,-0.45000001788139343 0.5,-0.800000011920929 l0.550000011920929,-0.800000011920929 0.25,-1.350000023841858 l-0.05000000074505806,-1.4500000476837158 0.0,-1.3000000715255737 l-0.10000000149011612,-1.25 0.15000000596046448,-0.9000000357627869 l-0.25,-1.0 -0.10000000149011612,-0.3499999940395355 l-0.05000000074505806,-0.0 -0.10000000149011612,0.05000000074505806 l0.05000000074505806,0.6000000238418579 0.10000000149011612,1.0 l0.45000001788139343,1.350000023841858 0.45000001788139343,1.3000000715255737 l0.45000001788139343,1.399999976158142 0.550000011920929,1.0500000715255737 l0.75,0.800000011920929 0.699999988079071,0.4000000059604645 l0.699999988079071,-0.25 0.75,-0.949999988079071 l0.699999988079071,-1.5500000715255737 0.5,-2.75 l0.6000000238418579,-2.3500001430511475 0.45000001788139343,-2.799999952316284 l0.45000001788139343,-2.25 0.15000000596046448,-2.700000047683716 l0.15000000596046448,-2.0 -0.10000000149011612,-1.7000000476837158 l-0.05000000074505806,-1.0500000715255737 -0.45000001788139343,-0.699999988079071 l-0.30000001192092896,-0.05000000074505806 -0.20000000298023224,0.10000000149011612 l-0.30000001192092896,0.550000011920929 -0.4000000059604645,1.2000000476837158 l-0.3499999940395355,1.850000023841858 -0.15000000596046448,2.450000047683716 l-0.10000000149011612,2.6000001430511475 0.05000000074505806,2.799999952316284 l0.20000000298023224,2.700000047683716 0.30000001192092896,2.5 l0.550000011920929,2.1000001430511475 0.9000000357627869,1.8000000715255737 l0.9000000357627869,1.149999976158142 0.75,0.4000000059604645 l0.8500000238418579,0.05000000074505806 0.75,-0.25 l0.6500000357627869,-0.699999988079071 0.550000011920929,-0.8500000238418579 l0.45000001788139343,-1.3000000715255737 0.3499999940395355,-0.949999988079071 l0.10000000149011612,-1.149999976158142 0.15000000596046448,-0.699999988079071 l-0.15000000596046448,-0.8500000238418579 0.15000000596046448,-0.25 l0.0,-0.20000000298023224 -0.05000000074505806,-0.20000000298023224 l0.05000000074505806,0.20000000298023224 -0.10000000149011612,-0.25 l0.05000000074505806,0.25 0.0,-0.0 l0.10000000149011612,0.20000000298023224 0.15000000596046448,-0.05000000074505806 l0.25,-0.15000000596046448 0.6000000238418579,-0.05000000074505806 l0.8500000238418579,-0.15000000596046448 1.100000023841858,-0.25 l1.100000023841858,-0.0 1.149999976158142,-0.30000001192092896 l1.0,-0.25 0.8500000238418579,-0.30000001192092896 l0.30000001192092896,-0.4000000059604645 0.15000000596046448,-0.10000000149011612 l-0.15000000596046448,-0.10000000149011612 -0.25,-0.15000000596046448 l-0.550000011920929,0.05000000074505806 -0.699999988079071,0.10000000149011612 l-0.75,0.5 -0.699999988079071,0.800000011920929 l-0.5,1.100000023841858 -0.20000000298023224,0.949999988079071 l0.10000000149011612,1.0 0.25,0.800000011920929 l0.4000000059604645,0.699999988079071 0.30000001192092896,0.30000001192092896 l0.30000001192092896,0.10000000149011612 0.4000000059604645,-0.20000000298023224 l0.550000011920929,-0.4000000059604645 0.45000001788139343,-1.100000023841858 l0.550000011920929,-1.3000000715255737 0.30000001192092896,-1.9500000476837158 l0.10000000149011612,-2.25 0.4000000059604645,-2.1500000953674316 l0.15000000596046448,-2.25 0.25,-1.649999976158142 l0.0,-1.8000000715255737 0.0,-1.350000023841858 l-0.15000000596046448,-0.75 -0.05000000074505806,-0.20000000298023224 l-0.10000000149011612,-0.0 0.0,0.45000001788139343 l-0.05000000074505806,1.350000023841858 -0.05000000074505806,2.049999952316284 l-0.10000000149011612,2.0 -0.05000000074505806,2.200000047683716 l0.10000000149011612,2.450000047683716 0.25,2.25 l0.25,2.1000001430511475 0.3499999940395355,1.600000023841858 l0.5,1.25 0.699999988079071,0.8500000238418579 l0.699999988079071,0.3499999940395355 0.9000000357627869,-0.0 l0.9000000357627869,-0.4000000059604645 0.699999988079071,-1.0 l0.699999988079071,-1.0 0.45000001788139343,-1.3000000715255737 l0.20000000298023224,-1.25 0.15000000596046448,-0.9000000357627869 l0.0,-0.699999988079071 -0.10000000149011612,-0.4000000059604645 l-0.15000000596046448,-0.15000000596046448 0.05000000074505806,0.25 l-0.10000000149011612,-0.0 0.05000000074505806,0.9000000357627869 l0.25,0.949999988079071 0.4000000059604645,1.149999976158142 l0.30000001192092896,0.75 0.5,0.8500000238418579 l0.550000011920929,0.45000001788139343 0.4000000059604645,-0.0 l0.550000011920929,-0.0 0.5,-0.25 l0.4000000059604645,-0.9000000357627869 0.5,-0.9000000357627869 l0.30000001192092896,-1.0500000715255737 0.15000000596046448,-1.2000000476837158 l0.15000000596046448,-1.0 0.05000000074505806,-0.699999988079071 l0.0,-0.4000000059604645 0.0,-0.0 l0.05000000074505806,0.15000000596046448 -0.05000000074505806,0.05000000074505806 l0.10000000149011612,0.6000000238418579 0.3499999940395355,0.949999988079071 l0.3499999940395355,1.2000000476837158 0.45000001788139343,0.9000000357627869 l0.45000001788139343,0.6500000357627869 0.5,0.6500000357627869 l0.550000011920929,0.4000000059604645 0.3499999940395355,0.05000000074505806 l0.25,0.10000000149011612 0.15000000596046448,-0.10000000149011612 l0.05000000074505806,-0.05000000074505806 0.15000000596046448,0.15000000596046448 l-0.15000000596046448,-0.15000000596046448 0.10000000149011612,-0.20000000298023224 l0.45000001788139343,-0.75 0.6500000357627869,-1.0 m0.05000000074505806,2.200000047683716 l0.15000000596046448,-0.05000000074505806 0.6000000238418579,-0.05000000074505806 l0.6000000238418579,-0.800000011920929 0.949999988079071,-0.699999988079071 l0.75,-1.100000023841858 0.75,-0.9000000357627869 l0.4000000059604645,-0.6500000357627869 0.05000000074505806,-0.699999988079071 l-0.05000000074505806,-0.25 -0.20000000298023224,-0.10000000149011612 l0.10000000149011612,0.25 0.0,0.4000000059604645 l-0.15000000596046448,0.800000011920929 0.15000000596046448,1.25 l0.0,1.149999976158142 0.20000000298023224,1.25 l0.20000000298023224,0.800000011920929 0.10000000149011612,0.6000000238418579 l0.0,-0.0 -0.05000000074505806,-0.15000000596046448 l0.10000000149011612,-0.10000000149011612 0.05000000074505806,-1.149999976158142 l0.25,-1.7000000476837158 0.6000000238418579,-1.25 l0.5,-1.2000000476837158 0.5,-0.949999988079071 l0.6500000357627869,-0.4000000059604645 0.20000000298023224,-0.3499999940395355 l0.4000000059604645,0.25 0.30000001192092896,0.5 l0.30000001192092896,1.0 0.4000000059604645,1.149999976158142 l0.4000000059604645,1.149999976158142 0.4000000059604645,0.699999988079071 l0.75,0.949999988079071 0.9000000357627869,0.6000000238418579 l1.0500000715255737,0.3499999940395355 1.399999976158142,0.15000000596046448 l1.25,-0.30000001192092896 1.149999976158142,-0.9000000357627869 l1.399999976158142,-0.8500000238418579 1.0,-1.100000023841858 l0.9000000357627869,-0.75 0.4000000059604645,-0.45000001788139343 l0.05000000074505806,-0.05000000074505806 -0.05000000074505806,0.05000000074505806 l-0.550000011920929,0.3499999940395355 -0.75,1.149999976158142 l-0.75,1.399999976158142 -0.3499999940395355,1.350000023841858 l0.0,1.600000023841858 0.3499999940395355,0.75 l0.6500000357627869,0.30000001192092896 0.6000000238418579,-0.10000000149011612 l0.6000000238418579,-0.6000000238418579 0.45000001788139343,-1.25 l0.45000001788139343,-1.649999976158142 0.4000000059604645,-2.1000001430511475 l0.30000001192092896,-2.299999952316284 0.15000000596046448,-2.549999952316284 l0.20000000298023224,-2.5 0.20000000298023224,-2.25 l0.20000000298023224,-1.8000000715255737 -0.10000000149011612,-1.399999976158142 l-0.05000000074505806,-0.6500000357627869 -0.20000000298023224,-0.10000000149011612 l-0.10000000149011612,0.05000000074505806 0.0,0.699999988079071 l-0.10000000149011612,1.3000000715255737 0.20000000298023224,1.75 l0.05000000074505806,1.899999976158142 0.3499999940395355,2.1500000953674316 l0.3499999940395355,2.200000047683716 0.45000001788139343,2.25 l0.6000000238418579,2.049999952316284 0.699999988079071,1.399999976158142 l0.949999988079071,1.3000000715255737 1.0,0.550000011920929 l1.399999976158142,0.30000001192092896 1.350000023841858,-0.15000000596046448 l1.350000023841858,-0.6000000238418579 1.25,-0.8500000238418579 l1.100000023841858,-0.75 0.800000011920929,-1.0500000715255737 l0.6000000238418579,-0.8500000238418579 0.25,-0.45000001788139343 l-0.20000000298023224,-0.30000001192092896 -0.25,0.15000000596046448 l-0.6500000357627869,0.15000000596046448 -0.6500000357627869,0.75 l-0.45000001788139343,1.25 -0.05000000074505806,1.25 l0.20000000298023224,1.0500000715255737 0.5,0.6500000357627869 l0.550000011920929,0.3499999940395355 0.6500000357627869,-0.0 l0.6000000238418579,-0.3499999940395355 0.3499999940395355,-0.75 l0.30000001192092896,-1.149999976158142 0.30000001192092896,-1.149999976158142 l0.05000000074505806,-1.25 -0.15000000596046448,-0.6500000357627869 l-0.10000000149011612,-0.15000000596046448 0.05000000074505806,0.15000000596046448 l0.0,-0.0 0.25,0.6000000238418579 l0.5,1.100000023841858 0.6500000357627869,1.0 l0.6500000357627869,0.800000011920929 0.8500000238418579,0.6000000238418579 l1.600000023841858,0.10000000149011612 0.75,-0.699999988079071 l0.6500000357627869,-1.0 1.350000023841858,-2.1500000953674316 l0.5,-0.8500000238418579 0.25,-0.20000000298023224 l-0.10000000149011612,-0.0 0.10000000149011612,0.45000001788139343 l-0.05000000074505806,0.800000011920929 0.15000000596046448,1.100000023841858 l0.25,1.3000000715255737 0.15000000596046448,0.6500000357627869 l0.05000000074505806,0.25 0.20000000298023224,0.05000000074505806 l-0.05000000074505806,-0.20000000298023224 0.05000000074505806,-0.800000011920929 l0.4000000059604645,-1.25 0.4000000059604645,-1.3000000715255737 l0.6500000357627869,-1.2000000476837158 0.4000000059604645,-0.550000011920929 l0.10000000149011612,-0.10000000149011612 0.0,0.30000001192092896 l0.05000000074505806,0.45000001788139343 -0.10000000149011612,1.25 l0.45000001788139343,1.0 0.45000001788139343,1.100000023841858 l0.800000011920929,0.9000000357627869 0.699999988079071,0.75 l1.149999976158142,0.15000000596046448 1.2000000476837158,0.05000000074505806 l1.5,-0.550000011920929 1.5500000715255737,-0.699999988079071 l1.399999976158142,-0.550000011920929 1.0500000715255737,-0.8500000238418579 l0.949999988079071,-0.75 0.4000000059604645,-0.550000011920929 l0.0,-0.30000001192092896 -0.25,-0.0 l-0.550000011920929,-0.10000000149011612 -0.6000000238418579,-0.0 l-0.5,0.10000000149011612 -0.45000001788139343,0.3499999940395355 l-0.20000000298023224,0.6500000357627869 -0.20000000298023224,0.45000001788139343 l0.3499999940395355,1.0 0.20000000298023224,0.8500000238418579 l0.6500000357627869,0.949999988079071 0.800000011920929,0.699999988079071 l1.100000023841858,0.4000000059604645 1.3000000715255737,0.05000000074505806 l1.5,0.05000000074505806 2.6500000953674316,-1.100000023841858 l1.3000000715255737,-1.0 1.350000023841858,-0.8500000238418579 l0.8500000238418579,-1.25 0.699999988079071,-1.100000023841858 l0.05000000074505806,-0.8500000238418579 -0.25,-0.30000001192092896 l-0.75,-0.3499999940395355 -1.2000000476837158,0.15000000596046448 l-0.9000000357627869,0.5 -1.100000023841858,0.699999988079071 l-0.3499999940395355,1.0500000715255737 0.15000000596046448,1.149999976158142 l0.6000000238418579,1.3000000715255737 1.0500000715255737,1.4500000476837158 l1.5500000715255737,1.350000023841858 2.049999952316284,0.6500000357627869 l2.299999952316284,0.20000000298023224 2.8500001430511475,-0.6000000238418579 l2.9000000953674316,-1.4500000476837158 m16.850000381469727,-2.75 l-0.10000000149011612,-0.20000000298023224 -0.10000000149011612,-0.15000000596046448 l-0.25,-0.05000000074505806 -0.6000000238418579,-0.0 l-0.5,0.75 -0.8500000238418579,1.0500000715255737 l-0.3499999940395355,1.7000000476837158 0.20000000298023224,1.4500000476837158 l0.699999988079071,0.949999988079071 1.3000000715255737,0.5 l1.0500000715255737,0.10000000149011612 1.100000023841858,0.10000000149011612 l0.550000011920929,-0.30000001192092896 0.20000000298023224,-0.20000000298023224 l-0.25,-0.6000000238418579 -0.25,-0.800000011920929 l-0.6000000238418579,-1.100000023841858 -0.699999988079071,-1.0 l-0.550000011920929,-1.149999976158142 -0.5,-0.9000000357627869 l-0.20000000298023224,-0.3499999940395355 -0.30000001192092896,-0.30000001192092896 l-0.30000001192092896,-0.25 0.0,-0.0 l0.15000000596046448,0.10000000149011612 0.550000011920929,0.3499999940395355 l0.9000000357627869,0.25 1.149999976158142,-0.0 l1.4500000476837158,-0.20000000298023224 1.350000023841858,-0.800000011920929 l1.4500000476837158,-1.100000023841858 1.399999976158142,-1.7000000476837158 l1.0500000715255737,-1.899999976158142 1.149999976158142,-2.049999952316284 l0.6000000238418579,-2.700000047683716 0.45000001788139343,-2.450000047683716 l0.05000000074505806,-1.850000023841858 0.15000000596046448,-1.0 l-0.30000001192092896,-0.5 -0.3499999940395355,0.05000000074505806 l-0.30000001192092896,0.550000011920929 -0.05000000074505806,1.850000023841858 l0.10000000149011612,2.75 0.0,3.200000047683716 l0.15000000596046448,3.6500000953674316 -0.25,3.8500001430511475 l-0.05000000074505806,3.700000047683716 0.20000000298023224,3.75 l0.0,3.049999952316284 -0.05000000074505806,2.549999952316284 l0.30000001192092896,1.850000023841858 -0.05000000074505806,0.3499999940395355 m-2.049999952316284,-11.850000381469727 l0.0,-0.05000000074505806 0.4000000059604645,0.15000000596046448 l0.3499999940395355,-0.05000000074505806 0.949999988079071,-0.10000000149011612 l1.5,-0.30000001192092896 1.4500000476837158,-0.6000000238418579 l1.899999976158142,-0.75 2.1500000953674316,-1.100000023841858 m11.15000057220459,0.5 l0.0,-0.0 0.05000000074505806,-0.0 l-0.10000000149011612,0.3499999940395355 -0.25,0.550000011920929 l0.0,1.4500000476837158 0.15000000596046448,1.899999976158142 l0.10000000149011612,1.899999976158142 0.45000001788139343,2.450000047683716 l0.25,2.549999952316284 0.4000000059604645,2.549999952316284 l0.20000000298023224,2.6000001430511475 0.10000000149011612,2.450000047683716 l-0.30000001192092896,1.9500000476837158 0.0,1.399999976158142 l-0.25,0.800000011920929 0.10000000149011612,0.20000000298023224 l-0.3499999940395355,-0.20000000298023224 -0.25,-0.6000000238418579 l-0.10000000149011612,-1.0500000715255737 -0.25,-1.7000000476837158 l-0.20000000298023224,-2.049999952316284 -0.20000000298023224,-2.299999952316284 l0.10000000149011612,-2.4000000953674316 0.0,-2.6000001430511475 l0.0,-2.549999952316284 0.4000000059604645,-2.1500000953674316 l0.05000000074505806,-2.1500000953674316 0.550000011920929,-1.75 l0.800000011920929,-1.399999976158142 0.6000000238418579,-0.949999988079071 l0.949999988079071,-0.45000001788139343 0.949999988079071,-0.10000000149011612 l1.3000000715255737,0.949999988079071 0.6500000357627869,1.0500000715255737 l0.45000001788139343,1.2000000476837158 0.10000000149011612,1.149999976158142 l-0.10000000149011612,1.3000000715255737 -0.4000000059604645,1.0500000715255737 l-0.699999988079071,0.949999988079071 -0.8500000238418579,0.6500000357627869 l-0.949999988079071,0.45000001788139343 -0.949999988079071,0.10000000149011612 l-0.5,-0.05000000074505806 -0.05000000074505806,0.05000000074505806 l-0.10000000149011612,-0.20000000298023224 0.25,-0.0 l0.6500000357627869,-0.0 1.149999976158142,0.15000000596046448 l1.0,-0.15000000596046448 1.399999976158142,-0.3499999940395355 l1.600000023841858,-0.5 1.350000023841858,-0.8500000238418579 l1.25,-1.149999976158142 1.25,-1.3000000715255737 l1.0,-1.399999976158142 0.800000011920929,-1.25 l0.5,-1.149999976158142 0.10000000149011612,-1.100000023841858 l-0.30000001192092896,-0.550000011920929 -0.6500000357627869,-0.15000000596046448 l-0.800000011920929,-0.0 -0.699999988079071,0.45000001788139343 l-0.6000000238418579,0.75 -0.30000001192092896,0.949999988079071 l-0.10000000149011612,1.0500000715255737 0.15000000596046448,1.3000000715255737 l0.30000001192092896,1.149999976158142 0.699999988079071,0.949999988079071 l1.0,0.75 1.0500000715255737,0.3499999940395355 l1.350000023841858,-0.05000000074505806 1.649999976158142,-0.3499999940395355 l1.399999976158142,-0.949999988079071 1.25,-1.149999976158142 l1.149999976158142,-1.350000023841858 1.100000023841858,-1.2000000476837158 l0.800000011920929,-1.25 0.5,-0.949999988079071 l0.05000000074505806,-0.4000000059604645 -0.25,0.05000000074505806 l-0.5,0.20000000298023224 -0.6500000357627869,0.800000011920929 l-0.45000001788139343,1.149999976158142 -0.5,1.4500000476837158 l-0.20000000298023224,1.8000000715255737 0.20000000298023224,1.600000023841858 l0.05000000074505806,0.8500000238418579 0.699999988079071,0.699999988079071 l0.5,0.10000000149011612 0.45000001788139343,-0.30000001192092896 l0.5,-0.800000011920929 0.5,-0.9000000357627869 l0.10000000149011612,-1.350000023841858 0.10000000149011612,-1.3000000715255737 l0.20000000298023224,-0.9000000357627869 -0.10000000149011612,-0.800000011920929 l-0.15000000596046448,-0.45000001788139343 -0.10000000149011612,-0.15000000596046448 l0.0,-0.0 0.05000000074505806,0.20000000298023224 l0.10000000149011612,0.550000011920929 0.4000000059604645,1.0 l0.6000000238418579,1.149999976158142 0.9000000357627869,1.100000023841858 l0.9000000357627869,0.800000011920929 1.100000023841858,0.6000000238418579 l1.3000000715255737,0.30000001192092896 1.25,-0.25 l1.25,-0.5 1.149999976158142,-0.75 l1.0500000715255737,-0.949999988079071 0.550000011920929,-1.0 l0.30000001192092896,-0.699999988079071 -0.10000000149011612,-0.5 l-0.3499999940395355,0.05000000074505806 -0.75,-0.0 l-0.699999988079071,0.6000000238418579 -0.4000000059604645,1.0500000715255737 l-0.45000001788139343,0.8500000238418579 0.25,1.25 l0.45000001788139343,1.0500000715255737 0.45000001788139343,0.75 l1.0,0.949999988079071 1.149999976158142,0.15000000596046448 l1.399999976158142,-0.05000000074505806 1.850000023841858,-0.3499999940395355 l1.4500000476837158,-0.8500000238418579 1.5,-0.949999988079071 l1.100000023841858,-1.0 0.699999988079071,-1.2000000476837158 l0.75,-1.2000000476837158 0.10000000149011612,-1.100000023841858 l-0.3499999940395355,-0.8500000238418579 -0.3499999940395355,-0.25 l-1.149999976158142,-0.10000000149011612 -1.3000000715255737,0.6500000357627869 l-1.100000023841858,1.0500000715255737 -0.6500000357627869,1.399999976158142 l-0.25,1.600000023841858 -0.15000000596046448,1.8000000715255737 l0.3499999940395355,1.75 0.75,1.3000000715255737 l1.2000000476837158,0.699999988079071 1.7000000476837158,0.15000000596046448 l1.9500000476837158,-0.5 2.4000000953674316,-0.699999988079071 l2.1000001430511475,-1.0 m4.450000286102295,-25.05000114440918 l0.0,-0.0 0.0,-0.0 l-0.10000000149011612,0.20000000298023224 -0.30000001192092896,0.4000000059604645 l-0.30000001192092896,1.100000023841858 -0.550000011920929,0.800000011920929 l-0.3499999940395355,0.8500000238418579 -0.15000000596046448,0.550000011920929 m4.550000190734863,-5.150000095367432 l-0.05000000074505806,0.15000000596046448 0.10000000149011612,0.5 l-0.4000000059604645,0.6500000357627869 -0.25,1.0 l-0.699999988079071,1.0 -0.8500000238418579,1.2000000476837158 l-0.6000000238418579,1.149999976158142 -0.800000011920929,0.800000011920929 " fill="none" stroke="blue" stroke-width="1" /></svg>