<?xml version="1.0" encoding="utf-8" ?>
<svg baseProfile="full" height="5883.449628710747" version="1.1" width="1177.2157151699066" xmlns="http://www.w3.org/2000/svg" xmlns:ev="http://www.w3.org/2001/xml-events" xmlns:xlink="http://www.w3.org/1999/xlink"><defs /><rect fill="white" height="5883.449628710747" width="1177.2157151699066" x="0" y="0" /><path d="M25,5858.449628710747 m100.64636993408203,5327.9794921875 l1.420912265777588,-42.98827362060547 1.420912265777588,-132.50439453125 l1.420912265777588,-132.50439453125 4.728426933288574,-132.50439453125 l8.035943031311035,-177.262451171875 8.035943031311035,-222.02052307128906 l8.035943031311035,-222.02052307128906 8.035943031311035,-177.262451171875 l4.728426933288574,-177.262451171875 8.035943031311035,-177.262451171875 l4.728426933288574,-177.262451171875 4.728426933288574,-177.262451171875 l4.728426933288574,-177.262451171875 4.728426933288574,-177.262451171875 l4.728426933288574,-87.74632263183594 1.420912265777588,-87.74632263183594 l1.420912265777588,-42.98827362060547 1.420912265777588,-87.74632263183594 l1.420912265777588,-87.74632263183594 1.420912265777588,-132.50439453125 l1.420912265777588,-132.50439453125 1.420912265777588,-177.262451171875 l1.420912265777588,-87.74632263183594 -1.8866031169891357,-132.50439453125 l1.420912265777588,-42.98827362060547 -1.8866031169891357,-42.98827362060547 l-1.8866031169891357,-42.98827362060547 1.420912265777588,1.7697871923446655 l-1.8866031169891357,1.7697871923446655 -1.8866031169891357,1.7697871923446655 l-1.8866031169891357,1.7697871923446655 -1.8866031169891357,46.52784729003906 l-1.8866031169891357,136.04396057128906 -1.8866031169891357,136.04396057128906 l1.420912265777588,225.56008911132812 1.420912265777588,180.80201721191406 l1.420912265777588,315.0762023925781 1.420912265777588,180.80201721191406 l1.420912265777588,315.0762023925781 1.420912265777588,225.56008911132812 l1.420912265777588,225.56008911132812 1.420912265777588,180.80201721191406 l1.420912265777588,136.04396057128906 1.420912265777588,136.04396057128906 l1.420912265777588,91.2859115600586 1.420912265777588,136.04396057128906 l1.420912265777588,91.2859115600586 1.420912265777588,136.04396057128906 l1.420912265777588,136.04396057128906 1.420912265777588,225.56008911132812 l1.420912265777588,180.80201721191406 1.420912265777588,136.04396057128906 l1.420912265777588,180.80201721191406 1.420912265777588,91.2859115600586 l1.420912265777588,46.52784729003906 1.420912265777588,46.52784729003906 l1.420912265777588,1.7697871923446655 1.420912265777588,46.52784729003906 l1.420912265777588,-42.98827362060547 1.420912265777588,-177.262451171875 l1.420912265777588,-177.262451171875 4.728426933288574,-222.02052307128906 l4.728426933288574,-222.02052307128906 8.035943031311035,-177.262451171875 l4.728426933288574,-177.262451171875 8.035943031311035,-132.50439453125 l4.728426933288574,-87.74632263183594 4.728426933288574,-87.74632263183594 l4.728426933288574,-87.74632263183594 4.728426933288574,-42.98827362060547 l8.035943031311035,-87.74632263183594 4.728426933288574,1.7697871923446655 l4.728426933288574,-42.98827362060547 4.728426933288574,1.7697871923446655 l4.728426933288574,1.7697871923446655 1.420912265777588,1.7697871923446655 l8.035943031311035,1.7697871923446655 1.420912265777588,91.2859115600586 l4.728426933288574,91.2859115600586 4.728426933288574,91.2859115600586 l4.728426933288574,91.2859115600586 1.420912265777588,180.80201721191406 l4.728426933288574,136.04396057128906 1.420912265777588,136.04396057128906 l1.420912265777588,136.04396057128906 1.420912265777588,91.2859115600586 l1.420912265777588,136.04396057128906 1.420912265777588,91.2859115600586 l1.420912265777588,46.52784729003906 1.420912265777588,91.2859115600586 l1.420912265777588,46.52784729003906 4.728426933288574,46.52784729003906 l1.420912265777588,1.7697871923446655 1.420912265777588,46.52784729003906 l1.420912265777588,1.7697871923446655 4.728426933288574,1.7697871923446655 l1.420912265777588,1.7697871923446655 4.728426933288574,46.52784729003906 l1.420912265777588,1.7697871923446655 4.728426933288574,1.7697871923446655 l1.420912265777588,1.7697871923446655 4.728426933288574,1.7697871923446655 l4.728426933288574,1.7697871923446655 11.343457221984863,1.7697871923446655 l8.035943031311035,-87.74632263183594 8.035943031311035,-87.74632263183594 l8.035943031311035,-132.50439453125 11.343457221984863,-132.50439453125 l8.035943031311035,-132.50439453125 4.728426933288574,-132.50439453125 l4.728426933288574,-132.50439453125 4.728426933288574,-132.50439453125 l4.728426933288574,-132.50439453125 4.728426933288574,-87.74632263183594 l1.420912265777588,-132.50439453125 1.420912265777588,-87.74632263183594 l1.420912265777588,-42.98827362060547 1.420912265777588,-42.98827362060547 l1.420912265777588,-42.98827362060547 1.420912265777588,-42.98827362060547 l1.420912265777588,1.7697871923446655 -1.8866031169891357,-42.98827362060547 l-1.8866031169891357,1.7697871923446655 -1.8866031169891357,1.7697871923446655 l-1.8866031169891357,1.7697871923446655 -1.8866031169891357,1.7697871923446655 l-1.8866031169891357,46.52784729003906 -1.8866031169891357,46.52784729003906 l-1.8866031169891357,46.52784729003906 1.420912265777588,1.7697871923446655 l-1.8866031169891357,46.52784729003906 1.420912265777588,46.52784729003906 l1.420912265777588,46.52784729003906 1.420912265777588,46.52784729003906 l1.420912265777588,91.2859115600586 1.420912265777588,91.2859115600586 l1.420912265777588,136.04396057128906 1.420912265777588,91.2859115600586 l1.420912265777588,136.04396057128906 4.728426933288574,91.2859115600586 l4.728426933288574,91.2859115600586 4.728426933288574,91.2859115600586 l4.728426933288574,91.2859115600586 4.728426933288574,91.2859115600586 l4.728426933288574,46.52784729003906 1.420912265777588,46.52784729003906 l4.728426933288574,46.52784729003906 1.420912265777588,1.7697871923446655 l4.728426933288574,46.52784729003906 1.420912265777588,1.7697871923446655 l4.728426933288574,1.7697871923446655 4.728426933288574,1.7697871923446655 l8.035943031311035,1.7697871923446655 8.035943031311035,-42.98827362060547 l4.728426933288574,-87.74632263183594 11.343457221984863,-132.50439453125 l8.035943031311035,-132.50439453125 11.343457221984863,-266.778564453125 l4.728426933288574,-132.50439453125 11.343457221984863,-177.262451171875 l8.035943031311035,-177.262451171875 4.728426933288574,-177.262451171875 l4.728426933288574,-177.262451171875 4.728426933288574,-177.262451171875 l4.728426933288574,-266.778564453125 4.728426933288574,-311.5366516113281 l1.420912265777588,-266.778564453125 1.420912265777588,-222.02052307128906 l1.420912265777588,-177.262451171875 1.420912265777588,-132.50439453125 l1.420912265777588,-42.98827362060547 1.420912265777588,1.7697871923446655 l1.420912265777588,1.7697871923446655 -1.8866031169891357,1.7697871923446655 l1.420912265777588,1.7697871923446655 -1.8866031169891357,1.7697871923446655 l1.420912265777588,1.7697871923446655 -1.8866031169891357,46.52784729003906 l-1.8866031169891357,136.04396057128906 -1.8866031169891357,136.04396057128906 l-1.8866031169891357,180.80201721191406 -1.8866031169891357,225.56008911132812 l1.420912265777588,225.56008911132812 -1.8866031169891357,180.80201721191406 l1.420912265777588,180.80201721191406 1.420912265777588,91.2859115600586 l1.420912265777588,180.80201721191406 1.420912265777588,91.2859115600586 l1.420912265777588,180.80201721191406 1.420912265777588,136.04396057128906 l1.420912265777588,136.04396057128906 4.728426933288574,136.04396057128906 l4.728426933288574,91.2859115600586 1.420912265777588,91.2859115600586 l4.728426933288574,46.52784729003906 4.728426933288574,91.2859115600586 l1.420912265777588,46.52784729003906 4.728426933288574,46.52784729003906 l4.728426933288574,46.52784729003906 4.728426933288574,1.7697871923446655 l4.728426933288574,46.52784729003906 4.728426933288574,1.7697871923446655 l4.728426933288574,46.52784729003906 4.728426933288574,1.7697871923446655 l4.728426933288574,1.7697871923446655 4.728426933288574,1.7697871923446655 l4.728426933288574,1.7697871923446655 8.035943031311035,1.7697871923446655 l8.035943031311035,-42.98827362060547 8.035943031311035,-132.50439453125 l8.035943031311035,-87.74632263183594 11.343457221984863,-132.50439453125 l8.035943031311035,-177.262451171875 4.728426933288574,-177.262451171875 l8.035943031311035,-132.50439453125 4.728426933288574,-177.262451171875 l4.728426933288574,-177.262451171875 1.420912265777588,-177.262451171875 l1.420912265777588,-177.262451171875 1.420912265777588,-177.262451171875 l1.420912265777588,-222.02052307128906 1.420912265777588,-132.50439453125 l1.420912265777588,-177.262451171875 1.420912265777588,-177.262451171875 l1.420912265777588,-132.50439453125 1.420912265777588,-132.50439453125 l1.420912265777588,-42.98827362060547 1.420912265777588,-42.98827362060547 l1.420912265777588,-42.98827362060547 1.420912265777588,1.7697871923446655 l-1.8866031169891357,1.7697871923446655 1.420912265777588,1.7697871923446655 l-1.8866031169891357,46.52784729003906 -5.194118022918701,91.2859115600586 l-1.8866031169891357,91.2859115600586 -1.8866031169891357,180.80201721191406 l-1.8866031169891357,180.80201721191406 -1.8866031169891357,225.56008911132812 l1.420912265777588,225.56008911132812 1.420912265777588,136.04396057128906 l-1.8866031169891357,180.80201721191406 1.420912265777588,136.04396057128906 l1.420912265777588,136.04396057128906 1.420912265777588,91.2859115600586 l4.728426933288574,136.04396057128906 1.420912265777588,91.2859115600586 l4.728426933288574,91.2859115600586 4.728426933288574,91.2859115600586 l1.420912265777588,136.04396057128906 8.035943031311035,91.2859115600586 l4.728426933288574,180.80201721191406 4.728426933288574,91.2859115600586 l1.420912265777588,91.2859115600586 4.728426933288574,46.52784729003906 l1.420912265777588,1.7697871923446655 4.728426933288574,46.52784729003906 l1.420912265777588,1.7697871923446655 4.728426933288574,46.52784729003906 l4.728426933288574,46.52784729003906 4.728426933288574,1.7697871923446655 l1.420912265777588,1.7697871923446655 4.728426933288574,1.7697871923446655 l4.728426933288574,1.7697871923446655 8.035943031311035,1.7697871923446655 l8.035943031311035,-42.98827362060547 4.728426933288574,-87.74632263183594 l8.035943031311035,-87.74632263183594 8.035943031311035,-87.74632263183594 l4.728426933288574,-87.74632263183594 8.035943031311035,-132.50439453125 l4.728426933288574,-87.74632263183594 1.420912265777588,-87.74632263183594 l4.728426933288574,-87.74632263183594 4.728426933288574,-132.50439453125 l1.420912265777588,-87.74632263183594 4.728426933288574,-42.98827362060547 l1.420912265777588,-87.74632263183594 1.420912265777588,-42.98827362060547 l4.728426933288574,1.7697871923446655 1.420912265777588,-42.98827362060547 l-1.8866031169891357,1.7697871923446655 -1.8866031169891357,91.2859115600586 l-1.8866031169891357,46.52784729003906 -5.194118022918701,91.2859115600586 l-1.8866031169891357,91.2859115600586 -1.8866031169891357,136.04396057128906 l1.420912265777588,91.2859115600586 -1.8866031169891357,91.2859115600586 l1.420912265777588,91.2859115600586 1.420912265777588,136.04396057128906 l1.420912265777588,46.52784729003906 1.420912265777588,91.2859115600586 l1.420912265777588,46.52784729003906 1.420912265777588,46.52784729003906 l1.420912265777588,46.52784729003906 1.420912265777588,1.7697871923446655 l4.728426933288574,46.52784729003906 1.420912265777588,46.52784729003906 l4.728426933288574,46.52784729003906 4.728426933288574,46.52784729003906 l4.728426933288574,1.7697871923446655 4.728426933288574,46.52784729003906 l4.728426933288574,1.7697871923446655 4.728426933288574,1.7697871923446655 l4.728426933288574,1.7697871923446655 4.728426933288574,1.7697871923446655 l8.035943031311035,1.7697871923446655 4.728426933288574,1.7697871923446655 l4.728426933288574,1.7697871923446655 8.035943031311035,1.7697871923446655 l4.728426933288574,1.7697871923446655 4.728426933288574,-42.98827362060547 l4.728426933288574,-42.98827362060547 1.420912265777588,-42.98827362060547 l4.728426933288574,-87.74632263183594 4.728426933288574,-132.50439453125 l1.420912265777588,-87.74632263183594 1.420912265777588,-132.50439453125 l1.420912265777588,-132.50439453125 1.420912265777588,-87.74632263183594 l1.420912265777588,-132.50439453125 1.420912265777588,-87.74632263183594 l1.420912265777588,-42.98827362060547 -1.8866031169891357,-42.98827362060547 l-1.8866031169891357,-42.98827362060547 1.420912265777588,1.7697871923446655 l-5.194118022918701,-42.98827362060547 1.420912265777588,1.7697871923446655 l-1.8866031169891357,-42.98827362060547 -1.8866031169891357,1.7697871923446655 l-1.8866031169891357,1.7697871923446655 1.420912265777588,1.7697871923446655 l-1.8866031169891357,1.7697871923446655 -1.8866031169891357,1.7697871923446655 l-1.8866031169891357,1.7697871923446655 1.420912265777588,46.52784729003906 l-1.8866031169891357,46.52784729003906 -1.8866031169891357,46.52784729003906 l1.420912265777588,1.7697871923446655 1.420912265777588,46.52784729003906 l1.420912265777588,91.2859115600586 1.420912265777588,91.2859115600586 l1.420912265777588,91.2859115600586 1.420912265777588,46.52784729003906 l1.420912265777588,46.52784729003906 1.420912265777588,46.52784729003906 l4.728426933288574,46.52784729003906 1.420912265777588,1.7697871923446655 l4.728426933288574,46.52784729003906 4.728426933288574,1.7697871923446655 l11.343457221984863,1.7697871923446655 8.035943031311035,1.7697871923446655 l11.343457221984863,1.7697871923446655 11.343457221984863,-87.74632263183594 l11.343457221984863,-87.74632263183594 8.035943031311035,-87.74632263183594 l8.035943031311035,-87.74632263183594 4.728426933288574,-87.74632263183594 l8.035943031311035,-87.74632263183594 4.728426933288574,-42.98827362060547 l4.728426933288574,-42.98827362060547 4.728426933288574,-42.98827362060547 l1.420912265777588,1.7697871923446655 1.420912265777588,1.7697871923446655 " fill="none" stroke="blue" stroke-width="1" /></svg>