<?xml version="1.0" standalone="no"?>
<svg id="svg1" baseProfile="full" height="200" width="800" version="1.1" xmlns="http://www.w3.org/2000/svg" xmlns:ev="http://www.w3.org/2001/xml-events" xmlns:xlink="http://www.w3.org/1999/xlink" onmousedown="mouseDown(evt)" onmouseup="mouseUp(evt)" onmousemove="mouseMove(evt)" ontouchstart="mouseDown(evt)" ontouchmove="mouseMove(evt)" ontouchend="mouseUp(evt)">
                <script type="text/JavaScript">
                    
                        var svg = document.getElementById("svg1");
                        var pt = svg.createSVGPoint();
                        isDrawing = false;
                        start = 0;
                        sp = null;
                        function alert_coords(evt) {
                            if(evt.targetTouches) {
                                // Prefer Touch Events
                                pt.x = evt.targetTouches[0].clientX;
                                pt.y = evt.targetTouches[0].clientY;
                            } else {
                                pt.x = evt.clientX;
                                pt.y = evt.clientY;
                            }
                            // The cursor point, translated into svg coordinates
                            var point =  pt.matrixTransform(svg.getScreenCTM().inverse());
                            return point;
                        }
                        function mouseDown(evt) {
                            point = alert_coords(evt);
                            isDrawing = true;
                            var path = document.getElementById("path1");
                            var d = path.getAttributeNS(null, "d") + "M"+ point.x + "," + point.y+ " ";
                            path.setAttributeNS(null, "d", d);
                        }
                        function mouseUp(evt) {
                            if (isDrawing === true) {
                                point = alert_coords(evt);
                                var path = document.getElementById("path1");
                                var d = path.getAttributeNS(null, "d") + "M"+ point.x + "," + point.y+ " ";
                                path.setAttributeNS(null, "d", d);
                                isDrawing = false;
                            }
                        }
                        function mouseMove(evt) {
                            if (isDrawing === true) {
                                point = alert_coords(evt);
                                var path = document.getElementById("path1");
                                x = point.x;
                                y = point.y ;
                                var d = path.getAttributeNS(null, "d") + "L"+ x + "," + y + " ";
                                path.setAttributeNS(null, "d", d);
                            }
                        }
                    
                </script>
                <rect id="rect1" fill="white" height="200" width="800" stroke="black" x="0" y="0"/>
                <path id="path1" d="M63.96875,24.947919845581055 L64,24.33333396911621 M64,24.33333396911621 M64,24.33333396911621 M57.84375,109.67708587646484 L43.552085876464844,111.71875762939453 L39.46875,114.78125762939453 L37.9375,116.31250762939453 L33.85416793823242,121.41667938232422 L30.28125,128.5625 L28.75,135.1979217529297 L28.239585876464844,141.3229217529297 L28.75,146.4270782470703 L29.770835876464844,150 L31.302085876464844,152.0416717529297 L32.833335876464844,153.0625 L34.875,153.5729217529297 L37.427085876464844,153.5729217529297 L41.51042175292969,151.53125 L47.125,144.8958282470703 L50.1875,138.7708282470703 L56.3125,123.96875762939453 L58.864585876464844,112.73958587646484 L59.88542175292969,106.61458587646484 L61.41667175292969,96.40625762939453 L63.458335876464844,86.19792938232422 L64.47917175292969,75.47917938232422 L64.47917175292969,66.80208587646484 L64.47917175292969,61.187503814697266 L64.47917175292969,57.10416793823242 L64.47917175292969,54.55208206176758 L64.47917175292969,53.02083206176758 L64.47917175292969,52.000003814697266 L62.94792175292969,58.63541793823242 L61.41667175292969,78.03125762939453 L60.395835876464844,105.59375762939453 L60.395835876464844,127.03125762939453 L61.41667175292969,143.3645782470703 L62.4375,147.9583282470703 M93.0625,129.5833282470703 L101.22917175292969,118.35417938232422 L104.29167175292969,113.25000762939453 L105.82292175292969,109.67708587646484 L106.33334350585938,106.61458587646484 L106.33334350585938,105.59375762939453 L105.82292175292969,104.06250762939453 L103.78125,103.55208587646484 L100.71875,104.06250762939453 L97.65625,105.59375762939453 L95.10417175292969,108.14583587646484 L91.02084350585938,113.25000762939453 L87.44792175292969,118.35417938232422 L84.38542175292969,125.50000762939453 L82.34375,132.6458282470703 L82.34375,138.7708282470703 L83.875,143.3645782470703 L86.9375,146.9375 L88.97917175292969,148.46875 L96.125,150.5104217529297 L98.16667175292969,151.0208282470703 M128.28125,128.0520782470703 L140.53125,117.33333587646484 L144.1041717529297,112.73958587646484 L145.6354217529297,110.18750762939453 L147.1666717529297,106.10417938232422 L147.67709350585938,102.53125762939453 L147.67709350585938,101.00000762939453 L146.14584350585938,100.48958587646484 L143.08334350585938,102.02083587646484 L140.02084350585938,104.57292938232422 L135.9375,109.16667938232422 L132.875,114.78125762939453 L130.3229217529297,119.37500762939453 L128.28125,125.50000762939453 L127.77084350585938,132.6458282470703 L128.28125,138.7708282470703 L128.7916717529297,141.3229217529297 L130.3229217529297,144.8958282470703 L132.36459350585938,145.9166717529297 L138.48959350585938,145.40625 L140.53125,144.8958282470703 M174.7291717529297,110.69792938232422 L170.64584350585938,123.96875762939453 L169.11459350585938,132.1354217529297 L167.0729217529297,140.8125 L161.96875,164.2916717529297 L155.84375,198.4895782470703 L154.8229217529297,206.1458282470703 L154.3125,210.2291717529297 M169.11459350585938,121.41667938232422 L176.2604217529297,105.59375762939453 L179.83334350585938,101.51042938232422 L181.875,99.46875762939453 L186.46875,96.40625762939453 L191.0625,94.87500762939453 L196.16668701171875,95.38542938232422 L200.25,97.93750762939453 L204.33334350585938,103.04167938232422 L207.90625,109.16667938232422 L209.94793701171875,113.76042938232422 L210.96875,117.84375762939453 L210.96875,121.41667938232422 L210.45834350585938,124.47917938232422 L207.90625,127.54167938232422 L201.27084350585938,132.6458282470703 L193.61459350585938,136.21875 L189.53125,137.75 L184.9375,139.28125 M251.29168701171875,101.00000762939453 L251.29168701171875,114.27083587646484 L251.29168701171875,117.33333587646484 L250.78125,120.39583587646484 L250.27084350585938,126.52083587646484 L250.27084350585938,131.625 L250.27084350585938,134.6875 L250.27084350585938,136.21875 L251.29168701171875,135.7083282470703 L252.3125,133.15625 L253.33334350585938,129.0729217529297 L254.35418701171875,126.52083587646484 L256.3958435058594,120.90625762939453 L259.4583435058594,114.78125762939453 L262.01043701171875,110.18750762939453 L264.5625,106.10417938232422 L266.60418701171875,103.55208587646484 L268.6458435058594,101.51042938232422 L270.6875,100.48958587646484 L272.21875,100.48958587646484 L274.26043701171875,102.53125762939453 L275.28125,108.65625762939453 L275.28125,114.78125762939453 L275.28125,120.90625762939453 L275.28125,127.03125762939453 L275.28125,132.6458282470703 L275.28125,135.1979217529297 L276.3020935058594,139.7916717529297 L276.8125,140.8125 M294.6770935058594,116.31250762939453 L305.3958435058594,108.14583587646484 L308.4583435058594,105.08333587646484 L309.9895935058594,102.53125762939453 L311.01043701171875,100.48958587646484 L311.01043701171875,99.97917938232422 L311.01043701171875,99.46875762939453 L309.47918701171875,101.00000762939453 L306.41668701171875,104.57292938232422 L302.84375,110.69792938232422 L300.8020935058594,116.31250762939453 L298.76043701171875,122.94792938232422 L298.25,132.6458282470703 L300.29168701171875,142.34375 L302.3333435058594,148.9791717529297 L304.375,151.53125 L305.90625,152.5520782470703 L307.4375,153.0625 L312.03125,152.5520782470703 L321.21875,145.40625 L324.28125,142.34375 L329.38543701171875,135.1979217529297 L332.9583435058594,129.5833282470703 L335,125.50000762939453 L337.04168701171875,121.41667938232422 L337.5520935058594,116.82292938232422 L337.5520935058594,112.73958587646484 L337.5520935058594,110.18750762939453 L337.5520935058594,109.16667938232422 L337.5520935058594,108.14583587646484 L337.5520935058594,107.63542938232422 L337.5520935058594,108.65625762939453 L336.53125,113.25000762939453 L335.51043701171875,116.31250762939453 L334.4895935058594,123.45833587646484 L333.46875,131.625 L333.46875,140.3020782470703 L333.97918701171875,146.4270782470703 L335,150 L336.0208435058594,151.53125 L337.04168701171875,151.53125 L338.57293701171875,150.5104217529297 L342.1458435058594,146.4270782470703 L346.7395935058594,138.2604217529297 L351.3333435058594,131.625 L354.3958435058594,125.50000762939453 L355.9270935058594,122.43750762939453 L357.96875,117.33333587646484 L358.9895935058594,112.73958587646484 L358.9895935058594,110.18750762939453 L358.9895935058594,108.65625762939453 L358.9895935058594,107.63542938232422 L358.9895935058594,107.12500762939453 L358.9895935058594,108.65625762939453 L358.9895935058594,115.80208587646484 L358.9895935058594,126.52083587646484 L360.01043701171875,137.75 L362.0520935058594,144.3854217529297 L364.09375,146.4270782470703 L366.13543701171875,146.9375 M387.57293701171875,109.16667938232422 L387.57293701171875,124.47917938232422 L387.57293701171875,132.1354217529297 L387.0625,137.2395782470703 L387.0625,140.8125 L387.0625,143.3645782470703 L387.0625,144.8958282470703 L387.0625,145.9166717529297 L386.5521240234375,141.3229217529297 L387.0625,128.0520782470703 L396.25,103.04167938232422 L403.3958740234375,93.85417938232422 L406.96875,90.28125762939453 L415.13543701171875,83.13542938232422 L417.1771240234375,81.60417938232422 M438.6146240234375,112.73958587646484 L425.85418701171875,120.90625762939453 L424.32293701171875,123.45833587646484 L422.79168701171875,127.03125762939453 L420.2396240234375,134.1770782470703 L419.72918701171875,139.28125 L420.2396240234375,141.8333282470703 L421.26043701171875,142.34375 L424.8333740234375,141.3229217529297 L429.9375,136.21875 L435.04168701171875,128.5625 L438.10418701171875,122.43750762939453 L439.125,119.88542938232422 L440.1458740234375,116.31250762939453 L440.1458740234375,114.27083587646484 L440.1458740234375,113.25000762939453 L440.1458740234375,113.25000762939453 L438.6146240234375,115.29167938232422 L437.0833740234375,120.39583587646484 L436.57293701171875,129.0729217529297 L437.0833740234375,139.28125 L439.125,145.9166717529297 L441.16668701171875,147.9583282470703 L442.1875,148.46875 M459.54168701171875,47.91666793823242 L456.9896240234375,66.29167175292969 L453.9271240234375,88.23958587646484 L452.3958740234375,108.65625762939453 L451.375,127.03125762939453 L451.375,134.1770782470703 M503.94793701171875,125.50000762939453 L505.47918701171875,138.2604217529297 L505.47918701171875,142.34375 L505.47918701171875,144.8958282470703 L505.47918701171875,145.40625 L506.5,145.40625 L507.5208740234375,144.3854217529297 L508.03125,142.8541717529297 L510.07293701171875,137.75 L512.625,131.625 L514.6666870117188,126.52083587646484 L516.7083740234375,121.41667938232422 L518.75,116.82292938232422 L520.7916870117188,113.25000762939453 L522.3229370117188,111.20833587646484 L523.34375,109.67708587646484 L524.3646240234375,108.65625762939453 L525.3854370117188,108.14583587646484 L527.4271240234375,111.20833587646484 L527.9375,119.37500762939453 L527.9375,130.6041717529297 L528.4479370117188,136.21875 L528.9583740234375,144.8958282470703 L530.4896240234375,148.46875 M549.375,120.90625762939453 L561.1146240234375,115.80208587646484 L565.7083740234375,112.73958587646484 L568.7708740234375,109.67708587646484 L570.3021240234375,107.63542938232422 L570.8125,106.61458587646484 L570.8125,105.59375762939453 L570.3021240234375,104.57292938232422 L568.2604370117188,104.06250762939453 L565.1979370117188,105.59375762939453 L562.1354370117188,108.14583587646484 L559.0729370117188,113.76042938232422 L557.5416870117188,121.92708587646484 L557.5416870117188,129.5833282470703 L559.0729370117188,135.7083282470703 L561.625,139.28125 L563.15625,139.7916717529297 L571.3229370117188,136.7291717529297 L575.9166870117188,132.1354217529297 L577.9583740234375,130.09375 M604.5,52.000003814697266 L599.3958740234375,67.82292175292969 L597.3541870117188,78.03125762939453 L595.3125,88.75000762939453 L593.2708740234375,99.97917938232422 L592.25,109.16667938232422 L592.25,116.31250762939453 L592.25,120.39583587646484 L593.2708740234375,122.94792938232422 L594.8021240234375,122.94792938232422 L596.84375,121.92708587646484 L600.9271240234375,119.37500762939453 M575.40625,90.28125762939453 L588.6771240234375,83.64583587646484 M624.9166870117188,97.42708587646484 L619.3021240234375,114.27083587646484 L617.2604370117188,121.41667938232422 L616.2396240234375,127.03125762939453 L615.7291870117188,129.5833282470703 L615.7291870117188,133.15625 L616.2396240234375,135.1979217529297 L617.2604370117188,135.7083282470703 L618.7916870117188,135.1979217529297 L621.34375,131.625 L625.4271240234375,126.52083587646484 L628.4896240234375,122.43750762939453 L631.0416870117188,119.88542938232422 L632.5729370117188,118.35417938232422 L633.59375,117.33333587646484 L634.6146240234375,116.82292938232422 L635.6354370117188,117.33333587646484 L637.6771240234375,120.39583587646484 L638.6979370117188,123.45833587646484 L641.25,132.1354217529297 L642.78125,140.3020782470703 L643.8021240234375,144.3854217529297 L644.8229370117188,145.9166717529297 L645.84375,145.9166717529297 L646.8646240234375,144.3854217529297 L649.4166870117188,138.2604217529297 L651.4583740234375,129.5833282470703 L652.4791870117188,120.39583587646484 L652.4791870117188,111.20833587646484 L652.4791870117188,104.57292938232422 L652.9896240234375,100.48958587646484 L654.0104370117188,98.44792938232422 L654.5208740234375,97.93750762939453 L654.5208740234375,97.42708587646484 M686.6771240234375,93.34375762939453 L679.53125,107.12500762939453 L678,111.20833587646484 L676.9791870117188,115.80208587646484 L675.4479370117188,124.47917938232422 L675.4479370117188,131.1145782470703 L676.46875,135.1979217529297 L677.4896240234375,136.7291717529297 L679.53125,136.7291717529297 L682.0833740234375,134.6875 L686.1666870117188,128.5625 L689.7396240234375,117.84375762939453 L690.7604370117188,112.73958587646484 L691.2708740234375,105.59375762939453 L690.7604370117188,101.51042938232422 L689.7396240234375,99.46875762939453 L687.1875,97.93750762939453 L683.1041870117188,98.95833587646484 L680.5521240234375,101.51042938232422 M700.4583740234375,106.61458587646484 L716.28125,110.69792938232422 L720.3646240234375,115.80208587646484 L723.4271240234375,130.6041717529297 L722.9166870117188,138.2604217529297 L720.875,144.8958282470703 L719.8541870117188,147.4479217529297 L717.8125,150 L715.7708740234375,150.5104217529297 L714.2396240234375,145.9166717529297 L714.2396240234375,134.1770782470703 L717.3021240234375,124.98958587646484 L721.3854370117188,115.80208587646484 L725.46875,107.12500762939453 L728.53125,99.97917938232422 L730.5729370117188,95.38542938232422 L731.59375,93.34375762939453 L732.6146240234375,92.32292938232422 L733.125,91.81250762939453 M765.28125,48.42708206176758 L762.7291870117188,68.84375762939453 L761.7083740234375,74.45833587646484 L760.6875,81.09375762939453 L758.6458740234375,94.87500762939453 L756.09375,106.10417938232422 L754.0521240234375,115.80208587646484 L752.5208740234375,127.54167938232422 L751.5,137.75 L750.4791870117188,145.40625 L749.4583740234375,150 L749.4583740234375,153.0625 L749.4583740234375,154.0833282470703 M783.65625,78.03125762939453 L776,89.77083587646484 L770.8958740234375,97.93750762939453 L766.3021240234375,104.57292938232422 L759.6666870117188,112.73958587646484 L757.1146240234375,114.78125762939453 L756.09375,115.80208587646484 L754.5625,117.33333587646484 L753.5416870117188,118.35417938232422 L753.03125,118.86458587646484 L753.03125,118.86458587646484 L753.5416870117188,118.86458587646484 L755.0729370117188,120.90625762939453 L758.1354370117188,126.52083587646484 L762.21875,134.1770782470703 L766.3021240234375,141.3229217529297 L770.3854370117188,146.9375 L774.9791870117188,154.0833282470703 L776,156.125 " fill="none" stroke="blue" stroke-width="1"/> 
            </svg>