<?xml version="1.0" standalone="no"?>
<svg id="svg1" baseProfile="full" height="200" width="800" version="1.1" xmlns="http://www.w3.org/2000/svg" xmlns:ev="http://www.w3.org/2001/xml-events" xmlns:xlink="http://www.w3.org/1999/xlink" onmousedown="mouseDown(evt)" onmouseup="mouseUp(evt)" onmousemove="mouseMove(evt)" ontouchstart="mouseDown(evt)" ontouchmove="mouseMove(evt)" ontouchend="mouseUp(evt)">
                <script type="text/JavaScript">
                    
                        var svg = document.getElementById("svg1");
                        var pt = svg.createSVGPoint();
                        isDrawing = false;
                        start = 0;
                        sp = null;
                        function alert_coords(evt) {
                            if(evt.targetTouches) {
                                // Prefer Touch Events
                                pt.x = evt.targetTouches[0].clientX;
                                pt.y = evt.targetTouches[0].clientY;
                            } else {
                                pt.x = evt.clientX;
                                pt.y = evt.clientY;
                            }
                            // The cursor point, translated into svg coordinates
                            var point =  pt.matrixTransform(svg.getScreenCTM().inverse());
                            return point;
                        }
                        function mouseDown(evt) {
                            point = alert_coords(evt);
                            isDrawing = true;
                            var path = document.getElementById("path1");
                            var d = path.getAttributeNS(null, "d") + "M"+ point.x + "," + point.y+ " ";
                            path.setAttributeNS(null, "d", d);
                        }
                        function mouseUp(evt) {
                            if (isDrawing === true) {
                                point = alert_coords(evt);
                                var path = document.getElementById("path1");
                                var d = path.getAttributeNS(null, "d") + "M"+ point.x + "," + point.y+ " ";
                                path.setAttributeNS(null, "d", d);
                                isDrawing = false;
                            }
                        }
                        function mouseMove(evt) {
                            if (isDrawing === true) {
                                point = alert_coords(evt);
                                var path = document.getElementById("path1");
                                x = point.x;
                                y = point.y ;
                                var d = path.getAttributeNS(null, "d") + "L"+ x + "," + y + " ";
                                path.setAttributeNS(null, "d", d);
                            }
                        }
                    
                </script>
                <rect id="rect1" fill="white" height="200" width="800" stroke="black" x="0" y="0"/>
                <path id="path1" d="M20.583335876464844,78.54167938232422 L27.729167938232422,65.78125762939453 L29.770835876464844,63.22916793823242 L31.8125,60.67708206176758 L35.895835876464844,55.57291793823242 L37.427085876464844,53.02083206176758 L40.489585876464844,48.937503814697266 L42.53125,45.875003814697266 L43.552085876464844,43.83333206176758 L44.0625,42.812503814697266 L44.0625,42.30208206176758 L43.552085876464844,43.32291793823242 L42.020835876464844,46.89583206176758 L41,52.000003814697266 L39.46875,58.125003814697266 L37.427085876464844,65.27083587646484 L34.875,74.45833587646484 L32.833335876464844,81.60417938232422 L30.28125,91.30208587646484 L28.75,96.91667938232422 L25.6875,106.10417938232422 L22.625,114.78125762939453 L21.604167938232422,117.84375762939453 L19.5625,124.47917938232422 L18.03125,132.1354217529297 L16.5,139.7916717529297 L15.989583969116211,145.40625 L15.479167938232422,148.9791717529297 L14.458333969116211,150 L14.458333969116211,150.5104217529297 M20.583335876464844,103.04167938232422 L34.875,94.87500762939453 L39.97916793823242,91.81250762939453 L50.1875,84.66667938232422 L54.78125,81.60417938232422 L63.458335876464844,75.98958587646484 L70.09375,70.88542938232422 L74.6875,66.80208587646484 L78.26042175292969,62.718753814697266 L80.8125,58.63541793823242 L82.34375,55.57291793823242 L81.83333587646484,54.04166793823242 L79.28125,53.02083206176758 L74.6875,54.55208206176758 L70.09375,58.125003814697266 L63.96875,64.76042175292969 L60.90625,69.35417938232422 L54.270835876464844,81.09375762939453 L52.739585876464844,84.66667938232422 L50.1875,93.85417938232422 L48.65625,104.06250762939453 L47.63542175292969,112.22917938232422 L46.614585876464844,118.86458587646484 L46.10417175292969,123.96875762939453 L46.10417175292969,128.0520782470703 L46.10417175292969,131.625 L46.10417175292969,134.6875 L46.10417175292969,137.2395782470703 L46.614585876464844,138.7708282470703 L47.63542175292969,139.7916717529297 L48.145835876464844,139.7916717529297 M77.75,106.10417938232422 L67.03125,114.27083587646484 L63.96875,119.88542938232422 L61.927085876464844,126.01042938232422 L60.90625,130.6041717529297 L60.90625,133.15625 L61.41667175292969,134.1770782470703 L62.4375,133.6666717529297 L62.94792175292969,133.15625 L64.47917175292969,131.1145782470703 L67.03125,128.5625 L69.07292175292969,124.98958587646484 L71.11458587646484,120.90625762939453 L73.15625,115.80208587646484 L74.6875,111.71875762939453 L75.70833587646484,109.67708587646484 L75.70833587646484,108.65625762939453 L75.70833587646484,108.14583587646484 L75.70833587646484,108.65625762939453 L75.19792175292969,111.71875762939453 L74.17708587646484,117.33333587646484 L73.66667175292969,123.96875762939453 L73.66667175292969,127.03125762939453 L74.6875,132.6458282470703 L75.70833587646484,136.7291717529297 L77.75,139.28125 L79.28125,140.3020782470703 L80.8125,140.3020782470703 L81.83333587646484,139.7916717529297 L83.875,138.2604217529297 L85.91667175292969,134.6875 L87.95833587646484,130.6041717529297 L90.51042175292969,125.50000762939453 L92.55209350585938,120.90625762939453 L94.59375,116.31250762939453 L95.61459350585938,114.27083587646484 L98.16667175292969,110.69792938232422 L98.67709350585938,110.18750762939453 L100.20834350585938,109.16667938232422 L101.73959350585938,109.16667938232422 L103.27084350585938,110.69792938232422 L104.29167175292969,114.78125762939453 L104.80209350585938,120.39583587646484 L104.80209350585938,127.03125762939453 L104.80209350585938,134.1770782470703 L104.29167175292969,140.3020782470703 L103.78125,145.40625 L103.78125,148.9791717529297 L103.78125,150.5104217529297 L103.78125,151.0208282470703 L103.78125,151.53125 L104.29167175292969,151.0208282470703 L105.3125,148.9791717529297 L108.375,142.34375 L112.45834350585938,134.6875 L116.54167175292969,129.0729217529297 L120.625,124.47917938232422 L123.6875,120.90625762939453 L126.23959350585938,118.35417938232422 L128.28125,116.82292938232422 L129.30209350585938,116.31250762939453 L130.3229217529297,116.31250762939453 L131.34375,118.35417938232422 L131.34375,123.96875762939453 L130.83334350585938,127.54167938232422 L130.3229217529297,134.6875 L130.3229217529297,140.8125 L130.83334350585938,145.40625 L132.36459350585938,147.9583282470703 L134.40625,148.9791717529297 L138.48959350585938,149.4895782470703 L144.1041717529297,147.9583282470703 L149.20834350585938,145.40625 L153.2916717529297,142.34375 L156.3541717529297,138.7708282470703 L158.90625,134.6875 L159.92709350585938,130.6041717529297 L159.92709350585938,128.5625 L159.92709350585938,126.01042938232422 L159.4166717529297,123.96875762939453 L158.90625,122.43750762939453 L157.375,121.92708587646484 L154.3125,122.43750762939453 L151.25,124.98958587646484 L148.1875,129.0729217529297 L146.14584350585938,134.1770782470703 L146.14584350585938,138.7708282470703 L147.67709350585938,141.8333282470703 L150.2291717529297,143.875 L154.3125,144.3854217529297 L158.39584350585938,142.8541717529297 L159.92709350585938,141.3229217529297 L167.0729217529297,130.6041717529297 L171.6666717529297,119.88542938232422 L173.70834350585938,113.76042938232422 L176.2604217529297,102.53125762939453 L178.30209350585938,93.34375762939453 L179.83334350585938,84.15625762939453 L179.83334350585938,75.47917938232422 L179.83334350585938,70.37500762939453 L179.83334350585938,67.82292175292969 L179.83334350585938,66.29167175292969 L179.3229217529297,65.27083587646484 L175.75,68.84375762939453 L173.70834350585938,72.41667938232422 L170.1354217529297,81.09375762939453 L166.05209350585938,97.42708587646484 L164.52084350585938,108.65625762939453 L164.0104217529297,116.82292938232422 L164.0104217529297,120.39583587646484 L164.52084350585938,127.54167938232422 L166.05209350585938,133.15625 L168.6041717529297,136.21875 L175.75,137.2395782470703 M183.40625,146.4270782470703 L191.0625,130.6041717529297 L192.59375,124.47917938232422 L193.61459350585938,119.37500762939453 L194.63543701171875,115.80208587646484 L194.63543701171875,113.25000762939453 L195.14584350585938,111.71875762939453 L195.14584350585938,110.69792938232422 L195.14584350585938,110.18750762939453 L195.14584350585938,110.69792938232422 L193.61459350585938,114.27083587646484 L192.08334350585938,118.86458587646484 L191.0625,124.98958587646484 L190.04168701171875,131.625 L190.04168701171875,137.2395782470703 L190.04168701171875,141.8333282470703 L191.0625,144.8958282470703 L192.08334350585938,145.9166717529297 L193.61459350585938,146.4270782470703 L195.65625,146.4270782470703 L198.71875,144.8958282470703 L200.76043701171875,142.8541717529297 L203.82293701171875,139.28125 L205.35418701171875,137.2395782470703 L207.39584350585938,133.15625 L208.41668701171875,130.09375 L209.4375,128.5625 L209.94793701171875,127.54167938232422 L210.45834350585938,126.52083587646484 L210.45834350585938,126.01042938232422 L210.45834350585938,126.52083587646484 L210.45834350585938,129.5833282470703 L211.47918701171875,133.15625 L212.5,136.21875 L213.52084350585938,137.75 L214.54168701171875,138.7708282470703 L216.58334350585938,139.28125 L218.11459350585938,139.28125 L222.19793701171875,139.28125 L226.28125,138.7708282470703 L229.34375,136.7291717529297 L232.40625,134.1770782470703 L234.95834350585938,130.09375 L237,125.50000762939453 L237.51043701171875,119.88542938232422 L237,113.25000762939453 L235.97918701171875,107.63542938232422 L233.9375,104.06250762939453 L232.40625,102.02083587646484 L231.38543701171875,101.00000762939453 L229.34375,99.46875762939453 L227.8125,99.46875762939453 L226.79168701171875,101.00000762939453 L225.77084350585938,104.57292938232422 L226.79168701171875,108.65625762939453 L228.83334350585938,112.73958587646484 L231.89584350585938,115.29167938232422 L234.95834350585938,116.31250762939453 L238.53125,116.82292938232422 L242.61459350585938,116.82292938232422 L245.16668701171875,115.80208587646484 L247.20834350585938,114.27083587646484 L249.25,110.69792938232422 L250.27084350585938,106.61458587646484 L250.27084350585938,102.53125762939453 L249.76043701171875,100.48958587646484 L249.25,99.46875762939453 L247.71875,97.93750762939453 L245.67709350585938,97.42708587646484 L244.65625,97.42708587646484 L243.63543701171875,98.44792938232422 L242.10418701171875,101.51042938232422 L241.59375,106.10417938232422 L242.10418701171875,112.22917938232422 L244.65625,116.82292938232422 L246.1875,118.35417938232422 L250.78125,121.41667938232422 L255.375,122.43750762939453 L257.9270935058594,122.43750762939453 L262.01043701171875,121.41667938232422 L265.5833435058594,119.37500762939453 L267.625,117.33333587646484 L270.1770935058594,114.27083587646484 L271.7083435058594,111.71875762939453 L272.72918701171875,109.67708587646484 L273.2395935058594,108.65625762939453 L273.2395935058594,107.63542938232422 L273.2395935058594,107.63542938232422 L272.72918701171875,109.16667938232422 L270.6875,112.73958587646484 L268.6458435058594,117.84375762939453 L267.1145935058594,123.96875762939453 L266.60418701171875,128.0520782470703 L266.60418701171875,136.21875 L267.1145935058594,142.34375 L268.13543701171875,145.40625 L269.15625,146.9375 L270.6875,146.9375 L273.2395935058594,146.4270782470703 L277.32293701171875,144.8958282470703 L281.40625,141.8333282470703 L285.4895935058594,137.75 L288.5520935058594,133.15625 L290.59375,129.5833282470703 L292.63543701171875,126.52083587646484 L293.65625,124.47917938232422 L294.16668701171875,123.45833587646484 L295.1875,121.41667938232422 L296.2083435058594,120.39583587646484 L296.2083435058594,119.37500762939453 L296.2083435058594,118.86458587646484 L296.2083435058594,119.37500762939453 L295.69793701171875,120.39583587646484 L294.6770935058594,124.47917938232422 L294.6770935058594,131.1145782470703 L295.1875,136.21875 L296.71875,139.7916717529297 L298.25,142.34375 L299.78125,142.8541717529297 L301.82293701171875,142.8541717529297 L303.35418701171875,142.8541717529297 L307.94793701171875,140.3020782470703 L313.0520935058594,135.7083282470703 L319.6875,128.5625 L326.32293701171875,118.35417938232422 L330.91668701171875,107.63542938232422 L333.46875,97.93750762939453 L334.4895935058594,89.77083587646484 L335,82.11458587646484 L335,75.47917938232422 L335,71.39583587646484 L335,68.84375762939453 L335,67.31250762939453 L335,66.80208587646484 L334.4895935058594,66.29167175292969 L332.44793701171875,67.82292175292969 L328.875,71.90625762939453 L325.8125,78.03125762939453 L322.75,85.68750762939453 L319.6875,96.40625762939453 L318.15625,106.61458587646484 L318.15625,114.78125762939453 L318.15625,121.92708587646484 L319.1770935058594,127.54167938232422 L320.7083435058594,132.6458282470703 L322.75,136.7291717529297 L324.79168701171875,138.7708282470703 L326.8333435058594,139.7916717529297 L328.3645935058594,139.7916717529297 L331.4270935058594,138.7708282470703 L336.0208435058594,134.6875 L337.5520935058594,132.6458282470703 L340.10418701171875,128.5625 L342.65625,123.96875762939453 L344.69793701171875,118.35417938232422 L346.22918701171875,113.76042938232422 L347.25,110.69792938232422 L347.25,109.16667938232422 L347.25,108.14583587646484 L347.25,108.14583587646484 L346.22918701171875,111.20833587646484 L345.2083435058594,116.82292938232422 L344.69793701171875,120.39583587646484 L344.1875,127.54167938232422 L344.1875,132.6458282470703 L344.69793701171875,136.21875 L345.71875,137.75 L346.7395935058594,138.7708282470703 L347.76043701171875,138.7708282470703 L348.78125,138.7708282470703 L350.82293701171875,137.75 L353.375,134.1770782470703 L357.4583435058594,129.0729217529297 L361.54168701171875,124.47917938232422 L364.60418701171875,120.90625762939453 L366.13543701171875,119.88542938232422 L369.19793701171875,117.33333587646484 L369.7083435058594,116.82292938232422 L370.72918701171875,116.82292938232422 L371.75,118.35417938232422 L371.75,124.98958587646484 L370.72918701171875,134.1770782470703 L370.21875,140.8125 L369.7083435058594,144.3854217529297 L369.7083435058594,145.9166717529297 L369.7083435058594,146.4270782470703 L370.21875,145.9166717529297 L371.2395935058594,144.3854217529297 L373.79168701171875,140.8125 L375.32293701171875,138.7708282470703 L378.8958435058594,133.6666717529297 L379.40625,133.15625 L380.4270935058594,132.1354217529297 L381.44793701171875,131.625 L382.46875,132.1354217529297 L383.4895935058594,134.6875 L385.0208740234375,138.2604217529297 L387.0625,141.3229217529297 L389.10418701171875,142.8541717529297 L392.16668701171875,143.3645782470703 L396.25,142.8541717529297 L400.3333740234375,140.3020782470703 L402.88543701171875,138.2604217529297 L406.96875,133.6666717529297 L410.54168701171875,128.5625 L413.09375,123.96875762939453 L413.60418701171875,118.86458587646484 L413.60418701171875,114.78125762939453 L413.09375,112.22917938232422 L412.07293701171875,111.20833587646484 L409.5208740234375,110.69792938232422 L405.94793701171875,112.22917938232422 L402.88543701171875,115.29167938232422 L399.82293701171875,119.37500762939453 L398.29168701171875,122.43750762939453 L398.29168701171875,124.98958587646484 L399.82293701171875,126.52083587646484 L402.375,127.54167938232422 L403.90625,127.54167938232422 L407.9896240234375,127.03125762939453 L409.01043701171875,126.52083587646484 L410.03125,125.50000762939453 L411.0521240234375,124.47917938232422 L412.07293701171875,124.47917938232422 L412.5833740234375,124.47917938232422 L412.5833740234375,124.47917938232422 L412.5833740234375,126.52083587646484 L412.07293701171875,133.6666717529297 L411.5625,143.875 L411.0521240234375,152.5520782470703 L410.54168701171875,157.65625 L409.5208740234375,167.8645782470703 L407.9896240234375,176.5416717529297 L405.94793701171875,182.6666717529297 L403.90625,186.75001525878906 L401.35418701171875,189.3020782470703 L398.29168701171875,191.34376525878906 L395.22918701171875,192.3645782470703 L392.16668701171875,191.8541717529297 L389.6146240234375,190.3229217529297 L388.0833740234375,187.2604217529297 L386.5521240234375,180.62501525878906 L388.59375,171.9479217529297 L393.1875,163.78125 L401.8646240234375,153.0625 L405.94793701171875,147.9583282470703 L416.15625,137.75 L427.38543701171875,129.5833282470703 L436.57293701171875,124.98958587646484 L441.16668701171875,123.45833587646484 L443.2083740234375,122.94792938232422 L444.22918701171875,122.94792938232422 M352.8645935058594,73.43750762939453 L353,73.33333587646484 M353,73.33333587646484 M353,73.33333587646484 M293.65625,111.71875762939453 L307.94793701171875,105.08333587646484 L314.07293701171875,102.53125762939453 L320.19793701171875,99.97917938232422 L330.40625,95.38542938232422 L339.0833435058594,92.32292938232422 L345.71875,89.77083587646484 L348.2708435058594,88.75000762939453 M293.65625,69.35417938232422 L293,69.33333587646484 M293,69.33333587646484 M293,69.33333587646484 M370.72918701171875,68.84375762939453 L361.54168701171875,78.54167938232422 L360.5208435058594,80.07292938232422 L360.01043701171875,81.60417938232422 L359.5,84.15625762939453 L360.5208435058594,85.68750762939453 L362.5625,86.70833587646484 L365.625,87.21875762939453 L369.7083435058594,86.70833587646484 L372.7708435058594,85.17708587646484 L374.3020935058594,83.64583587646484 L377.3645935058594,80.07292938232422 L378.8958435058594,75.47917938232422 L378.38543701171875,70.88542938232422 L376.34375,67.31250762939453 L372.7708435058594,64.25000762939453 L367.66668701171875,61.69791793823242 L362.0520935058594,62.20833206176758 L357.96875,64.25000762939453 L356.4375,67.82292175292969 M291.6145935058594,84.15625762939453 L291,83.33333587646484 M291,83.33333587646484 M291,83.33333587646484 M468.72918701171875,150.5104217529297 L471.28125,128.5625 L472.8125,122.94792938232422 L475.875,112.22917938232422 L477.40625,107.63542938232422 L479.9583740234375,96.40625762939453 L480.46875,93.34375762939453 L480.97918701171875,88.75000762939453 L480.97918701171875,85.68750762939453 L480.97918701171875,84.15625762939453 L478.4271240234375,83.13542938232422 L475.3646240234375,83.64583587646484 L473.8333740234375,86.19792938232422 L473.8333740234375,92.32292938232422 L477.40625,101.51042938232422 L484.04168701171875,111.71875762939453 L491.69793701171875,120.90625762939453 L497.82293701171875,130.09375 L499.8646240234375,137.75 L499.8646240234375,139.7916717529297 L498.3333740234375,142.34375 L492.71875,144.8958282470703 L487.10418701171875,145.40625 L482.51043701171875,143.875 L479.9583740234375,141.3229217529297 L478.9375,136.21875 L479.9583740234375,130.6041717529297 L482.51043701171875,126.01042938232422 L488.125,120.39583587646484 L496.8021240234375,114.27083587646484 L503.94793701171875,109.16667938232422 L508.54168701171875,104.57292938232422 L511.60418701171875,100.48958587646484 L512.625,98.95833587646484 L513.6458740234375,96.91667938232422 L514.15625,95.89583587646484 L512.625,97.42708587646484 L508.03125,105.08333587646484 L507.01043701171875,108.14583587646484 L507.01043701171875,113.76042938232422 L509.0521240234375,118.35417938232422 L512.1146240234375,121.92708587646484 L515.1771240234375,124.47917938232422 L518.75,125.50000762939453 L521.8125,124.98958587646484 L524.3646240234375,122.94792938232422 L525.8958740234375,120.90625762939453 L528.4479370117188,114.78125762939453 L529.46875,108.65625762939453 L529.46875,105.08333587646484 L529.46875,103.04167938232422 L529.46875,102.02083587646484 L529.46875,101.00000762939453 L529.46875,104.06250762939453 L529.46875,110.18750762939453 L529.46875,117.33333587646484 L528.9583740234375,126.52083587646484 L528.9583740234375,138.2604217529297 L528.4479370117188,148.9791717529297 L528.4479370117188,154.0833282470703 L527.4271240234375,166.84376525878906 L525.8958740234375,177.56251525878906 L524.875,183.68751525878906 L523.8541870117188,187.2604217529297 L522.3229370117188,189.81251525878906 L519.7708740234375,191.8541717529297 L516.7083740234375,193.3854217529297 L513.6458740234375,193.8958282470703 L511.09375,192.3645782470703 L509.5625,187.7708282470703 L510.5833740234375,177.0520782470703 L513.1354370117188,165.8229217529297 L516.7083740234375,156.6354217529297 L518.75,151.53125 L523.34375,140.3020782470703 L528.4479370117188,131.625 L533.0416870117188,124.47917938232422 L538.1458740234375,116.82292938232422 L543.25,109.16667938232422 L546.8229370117188,103.04167938232422 L549.8854370117188,98.95833587646484 L551.4166870117188,96.91667938232422 L552.9479370117188,95.89583587646484 L554.9896240234375,95.38542938232422 L557.03125,97.42708587646484 L559.0729370117188,103.04167938232422 L559.5833740234375,110.18750762939453 L559.5833740234375,113.76042938232422 L559.5833740234375,120.39583587646484 L558.5625,126.01042938232422 L558.0521240234375,129.5833282470703 L558.0521240234375,131.1145782470703 L559.0729370117188,130.09375 L560.6041870117188,127.03125762939453 L563.6666870117188,122.43750762939453 L567.75,117.33333587646484 L572.8541870117188,112.22917938232422 L577.4479370117188,108.65625762939453 L580.5104370117188,107.12500762939453 L582.5521240234375,106.61458587646484 L583.0625,107.12500762939453 L584.59375,110.18750762939453 L584.59375,114.78125762939453 L583.5729370117188,120.39583587646484 L583.0625,127.03125762939453 L583.0625,133.6666717529297 L584.0833740234375,138.7708282470703 L585.6146240234375,141.8333282470703 L586.6354370117188,142.34375 L588.6771240234375,141.8333282470703 L591.7396240234375,138.7708282470703 L595.8229370117188,130.6041717529297 L599.90625,118.86458587646484 L601.4375,111.71875762939453 L603.4791870117188,98.44792938232422 L603.9896240234375,89.26042938232422 L603.9896240234375,80.58333587646484 L603.9896240234375,74.45833587646484 L603.9896240234375,70.88542938232422 L603.9896240234375,69.35417938232422 L603.9896240234375,68.84375762939453 L603.4791870117188,70.37500762939453 L602.4583740234375,77.52083587646484 L601.4375,88.23958587646484 L601.4375,103.55208587646484 L602.96875,114.78125762939453 L605.0104370117188,122.94792938232422 L607.0521240234375,129.5833282470703 L609.6041870117188,134.1770782470703 L610.625,136.21875 L612.6666870117188,139.28125 L614.7083740234375,140.3020782470703 L617.2604370117188,139.7916717529297 L621.34375,135.7083282470703 L627.46875,127.03125762939453 L633.59375,115.29167938232422 L637.6771240234375,102.53125762939453 L640.2291870117188,92.32292938232422 L640.7396240234375,82.11458587646484 L640.2291870117188,73.43750762939453 L639.71875,70.37500762939453 L638.6979370117188,66.29167175292969 L638.6979370117188,64.25000762939453 L638.6979370117188,63.73958206176758 L638.1875,65.27083587646484 L635.6354370117188,74.96875762939453 L633.0833740234375,88.75000762939453 L631.0416870117188,107.63542938232422 L629.5104370117188,118.35417938232422 L629,125.50000762939453 L629,128.0520782470703 L629,129.0729217529297 L629.5104370117188,129.5833282470703 L631.0416870117188,129.0729217529297 L634.6146240234375,126.52083587646484 L637.1666870117188,124.47917938232422 L642.2708740234375,120.39583587646484 L646.8646240234375,116.82292938232422 L649.9271240234375,115.29167938232422 L651.96875,114.78125762939453 L652.9896240234375,115.29167938232422 L654.5208740234375,117.33333587646484 L655.5416870117188,121.41667938232422 L656.5625,126.52083587646484 L658.6041870117188,131.1145782470703 L660.6458740234375,133.6666717529297 L662.6875,134.6875 L666.2604370117188,134.1770782470703 L668.8125,133.15625 L673.9166870117188,129.5833282470703 L678.5104370117188,125.50000762939453 L682.59375,120.90625762939453 L685.65625,114.78125762939453 L687.1875,108.65625762939453 L687.1875,104.06250762939453 L686.6771240234375,100.48958587646484 L685.65625,98.44792938232422 L684.6354370117188,96.91667938232422 L682.59375,96.40625762939453 L680.0416870117188,97.93750762939453 L677.4896240234375,102.53125762939453 L674.9375,110.69792938232422 L674.9375,116.82292938232422 L676.46875,122.43750762939453 L677.4896240234375,124.47917938232422 L679.53125,127.54167938232422 L681.5729370117188,129.0729217529297 L684.6354370117188,130.09375 L687.6979370117188,130.09375 L691.78125,128.5625 L696.375,124.98958587646484 L701.4791870117188,119.88542938232422 L707.09375,111.71875762939453 L710.15625,103.55208587646484 L711.6875,97.93750762939453 L711.6875,95.38542938232422 L710.15625,89.77083587646484 L709.6458740234375,88.75000762939453 L706.0729370117188,86.19792938232422 L705.0521240234375,86.19792938232422 L704.03125,86.70833587646484 L704.03125,88.75000762939453 L706.5833740234375,94.36458587646484 L713.21875,103.04167938232422 L719.34375,112.73958587646484 L723.4271240234375,121.41667938232422 L724.9583740234375,130.09375 L723.4271240234375,135.7083282470703 L720.3646240234375,139.28125 L715.2604370117188,141.8333282470703 L712.7083740234375,142.34375 L708.1146240234375,141.8333282470703 L705.0521240234375,139.7916717529297 L703.5208740234375,137.75 L703.0104370117188,136.7291717529297 L703.0104370117188,135.7083282470703 L704.03125,135.7083282470703 L707.09375,136.21875 L712.7083740234375,138.2604217529297 L718.8333740234375,140.8125 L723.9375,141.3229217529297 L729.0416870117188,140.8125 L734.1458740234375,138.2604217529297 L738.7396240234375,134.1770782470703 L740.78125,131.625 L743.84375,126.52083587646484 L745.375,120.39583587646484 L745.375,115.29167938232422 L745.375,110.69792938232422 L745.375,108.14583587646484 L745.375,107.12500762939453 L745.375,106.10417938232422 L744.3541870117188,109.67708587646484 L743.3333740234375,115.80208587646484 L742.8229370117188,121.92708587646484 L742.8229370117188,130.09375 L743.3333740234375,133.6666717529297 L746.3958740234375,139.7916717529297 L747.4166870117188,140.3020782470703 L751.5,141.3229217529297 L757.625,138.7708282470703 L759.6666870117188,136.7291717529297 L763.75,131.1145782470703 L767.8333740234375,123.96875762939453 L770.8958740234375,115.80208587646484 L771.40625,108.65625762939453 L770.8958740234375,104.06250762939453 L769.875,101.51042938232422 L767.8333740234375,99.97917938232422 L766.3021240234375,99.46875762939453 L765.28125,100.48958587646484 L764.7708740234375,101.51042938232422 L765.7916870117188,107.12500762939453 L767.3229370117188,109.16667938232422 L771.9166870117188,113.25000762939453 L777.53125,117.84375762939453 L783.1458740234375,123.45833587646484 L786.2083740234375,130.6041717529297 L784.166748046875,139.7916717529297 L782.635498046875,141.8333282470703 L779.572998046875,144.8958282470703 L776.510498046875,146.9375 L773.9583740234375,147.4479217529297 L773.4479370117188,145.9166717529297 L776.510498046875,134.6875 L783.1458740234375,125.50000762939453 L790.291748046875,114.78125762939453 L794.885498046875,106.61458587646484 L798.96875,101.00000762939453 L802.541748046875,97.42708587646484 L805.604248046875,94.87500762939453 L807.6458740234375,93.85417938232422 L809.1771240234375,94.36458587646484 M746.3958740234375,68.33333587646484 L758.1354370117188,72.92708587646484 L758.6458740234375,68.84375762939453 L757.1146240234375,64.76042175292969 L747.4166870117188,59.656253814697266 L742.8229370117188,60.67708206176758 L739.7604370117188,66.80208587646484 L739.25,68.33333587646484 M567.75,104.57292938232422 L583.0625,96.91667938232422 L596.84375,90.79167938232422 L609.09375,85.68750762939453 L627.46875,80.07292938232422 L631.5521240234375,79.05208587646484 " fill="none" stroke="blue" stroke-width="1"/> 
            </svg>