<?xml version="1.0" standalone="no"?>
<svg id="svg1" baseProfile="full" height="200" width="100%" version="1.1" xmlns="http://www.w3.org/2000/svg" xmlns:ev="http://www.w3.org/2001/xml-events" xmlns:xlink="http://www.w3.org/1999/xlink" onmousedown="mouseDown(evt)" onmouseup="mouseUp(evt)" onmousemove="mouseMove(evt)" ontouchstart="mouseDown(evt)" ontouchmove="mouseMove(evt)" ontouchend="mouseUp(evt)">
                <script type="text/JavaScript">
                    
                        var svg = document.getElementById("svg1");
                        var pt = svg.createSVGPoint();
                        isDrawing = false;
                        start = 0;
                        sp = null;
                        function alert_coords(evt) {
                            if(evt.targetTouches) {
                                // Prefer Touch Events
                                pt.x = evt.targetTouches[0].clientX;
                                pt.y = evt.targetTouches[0].clientY;
                            } else {
                                pt.x = evt.clientX;
                                pt.y = evt.clientY;
                            }
                            // The cursor point, translated into svg coordinates
                            var point =  pt.matrixTransform(svg.getScreenCTM().inverse());
                            return point;
                        }
                        function mouseDown(evt) {
                            point = alert_coords(evt);
                            isDrawing = true;
                            var path = document.getElementById("path1");
                            var d = path.getAttributeNS(null, "d") + "M"+ point.x + "," + point.y+ " ";
                            path.setAttributeNS(null, "d", d);
                        }
                        function mouseUp(evt) {
                            if (isDrawing === true) {
                                point = alert_coords(evt);
                                var path = document.getElementById("path1");
                                var d = path.getAttributeNS(null, "d") + "M"+ point.x + "," + point.y+ " ";
                                path.setAttributeNS(null, "d", d);
                                isDrawing = false;
                            }
                        }
                        function mouseMove(evt) {
                            if (isDrawing === true) {
                                point = alert_coords(evt);
                                var path = document.getElementById("path1");
                                x = point.x;
                                y = point.y ;
                                var d = path.getAttributeNS(null, "d") + "L"+ x + "," + y + " ";
                                path.setAttributeNS(null, "d", d);
                            }
                        }
                    
                </script>
                <rect id="rect1" fill="white" height="200" width="100%" stroke="black" x="0" y="0"/>
                <path id="path1" d="M28,140 L28,140 L28,139 L28,138 L28,137 L28,135 L29,131 L30,129 L31,126 L31,122 L31,118 L32,114 L32,111 L32,108 L32,104 L32,100 L32,99 L32,96 L32,94 L32,92 L32,89 L32,87 L32,85 L32,83 L32,80 L31,78 L31,76 L30,75 L30,74 L30,73 L29,72 L29,71 L29,71 L29,71 L29,71 L29,71 L29,71 L28,70 L28,70 L28,70 L27,70 L27,70 L27,70 L26,70 L26,70 L26,70 L26,70 L25,70 L25,70 L25,70 L24,71 L24,72 L24,73 L24,75 L23,77 L23,78 L23,80 L23,83 L23,85 L23,87 L23,89 L23,92 L24,93 L25,96 L26,98 L27,101 L28,102 L29,104 L31,108 L33,110 L34,113 L35,114 L37,118 L38,120 L40,124 L41,125 L43,130 L45,132 L45,134 L47,138 L47,139 L48,142 L50,143 L50,146 L51,148 L52,151 L53,153 L54,154 L55,156 L55,158 L56,160 L56,162 L57,164 L58,165 L58,166 L58,167 L58,167 L59,168 L59,168 L59,169 L59,169 L59,169 L59,169 L59,168 L59,167 L59,166 L58,165 L57,162 L56,160 L56,159 L55,156 L54,153 L53,151 L53,148 L52,146 L52,143 L51,141 L50,138 L50,136 L50,135 L50,132 L50,130 L50,128 L50,127 L51,124 L53,122 L54,121 L55,119 L56,118 L57,117 L58,116 L59,116 L59,116 L60,116 L60,116 L61,116 L61,116 L62,116 L63,116 L63,117 L64,118 L65,120 L66,121 L68,124 L69,125 L69,127 L71,130 L72,132 L73,134 L74,137 L74,139 L75,142 L76,144 L77,146 L78,149 L78,152 L79,154 L80,156 L80,158 L81,160 L81,162 L82,164 L83,165 L84,166 L84,167 L85,168 L85,169 L86,169 L87,169 L88,169 L88,170 L89,170 L91,170 L92,170 L93,170 L94,169 L95,168 L96,166 L97,164 L97,161 L98,159 L98,156 L98,154 L99,151 L99,148 L99,145 L99,143 L99,140 L99,137 L99,135 L99,133 L99,130 L98,128 L98,126 L97,125 L96,123 L96,122 L95,121 L95,120 L95,119 L94,119 L94,119 L93,119 L93,119 L93,119 L93,119 L92,119 L92,119 L91,119 L91,119 L90,120 L89,121 L89,122 L88,124 L88,125 L87,129 L87,130 L87,132 L87,134 L87,136 L87,138 L88,140 L89,141 L90,143 L91,145 L93,146 L94,147 L94,148 L95,149 L96,149 L97,150 L97,150 L98,150 L98,150 L98,150 L98,150 L99,150 L99,150 L99,148 L99,146 L99,144 L99,141 L99,137 L99,135 L99,132 L99,130 L99,128 L99,126 L99,124 L99,123 L99,122 L99,122 L99,122 L99,122 L99,122 L99,123 L99,125 L99,126 L100,128 L101,130 L102,132 L103,133 L104,135 L106,137 L107,139 L109,140 L111,141 L112,142 L114,143 L116,144 L118,145 L120,145 L121,146 L122,146 L123,146 L125,146 L126,145 L126,143 L127,141 L127,137 L128,134 L128,129 L128,124 L128,119 L127,115 L126,111 L124,106 L123,103 L121,99 L119,95 L117,92 L115,89 L113,86 L112,84 L110,82 L108,79 L107,77 L105,75 L104,74 L104,73 L103,72 L103,72 L102,72 L102,72 L102,72 L102,72 L102,73 L102,75 L102,76 L102,78 L103,80 L104,82 L105,84 L107,87 L109,89 L110,92 L113,95 L115,99 L118,103 L121,108 L124,115 L127,120 L130,126 L133,132 L136,138 L139,144 L142,149 L145,154 L147,158 L149,161 L151,165 L152,166 L154,170 L155,173 L157,175 L158,177 L159,179 L160,181 L161,182 L161,183 L162,184 L162,185 L163,186 L164,188 L165,189 L166,191 L167,194 L168,195 L169,197 L169,199 L168,198 L166,196 L164,192 L161,187 L158,183 L155,176 L151,170 L148,164 L144,158 L142,152 L140,147 L139,145 L138,140 L136,137 L135,132 L134,129 L133,125 L132,122 L132,119 L132,117 L132,114 L132,112 L131,110 L131,109 L131,108 L131,107 L131,106 L131,106 L131,105 L131,105 L132,105 L132,105 L133,104 L134,104 L135,104 L136,103 L137,103 L138,103 L139,103 L139,103 L140,103 L141,103 L143,103 L144,103 L145,104 L147,106 L147,108 L148,110 L149,112 L150,114 L151,117 L151,119 L151,121 L151,123 L151,125 L151,126 L151,128 L150,129 L148,131 L146,132 L145,133 L143,134 L141,134 L139,135 L138,135 L136,135 L136,135 L135,135 L135,135 L135,135 L137,134 L139,133 L141,132 L144,131 L148,129 L151,127 L155,124 L159,122 L162,119 L165,116 L167,114 L169,111 L171,108 L173,103 L174,102 L174,99 L174,97 L175,94 L175,92 L175,90 L175,87 L174,85 L173,84 L171,82 L170,80 L168,79 L166,77 L165,76 L163,75 L162,75 L161,74 L160,74 L159,73 L158,73 L157,73 L157,73 L156,73 L155,73 L155,73 L154,73 L153,74 L153,74 L153,74 L152,74 L152,75 L152,75 L152,75 L152,76 L152,77 L152,78 L152,79 L154,81 L156,84 L159,87 L162,90 L165,94 L168,97 L171,101 L174,106 L177,110 L181,116 L185,121 L188,127 L191,131 L194,137 L196,141 L198,146 L200,150 L201,152 L202,155 L204,158 L205,161 L206,163 L207,166 L208,167 L208,169 L209,171 L209,172 L210,174 L211,175 L211,176 L212,178 L212,178 L212,179 L213,180 L213,181 L214,182 L214,182 L214,183 L214,183 L214,183 L214,183 L214,183 L212,182 L210,181 L208,178 L205,175 L202,171 L200,168 L197,164 L195,159 L192,154 L190,150 L189,145 L187,141 L186,137 L185,132 L185,129 L184,124 L184,122 L184,119 L184,116 L184,113 L184,111 L184,109 L184,107 L184,105 L184,103 L184,102 L184,101 L184,100 L184,99 L184,98 L184,98 L184,97 L185,97 L185,97 L185,96 L185,96 L186,96 L187,95 L187,95 L188,94 L189,94 L190,94 L191,94 L192,94 L193,94 L194,94 L196,94 L196,94 L198,95 L199,97 L201,98 L201,101 L202,103 L203,106 L203,108 L203,110 L204,112 L204,114 L204,116 L204,117 L204,118 L203,119 L201,120 L200,120 L199,121 L197,121 L195,121 L193,121 L191,121 L190,121 L189,121 L188,120 L187,119 L186,119 L186,119 L186,118 L186,118 L186,118 L186,118 L186,118 L188,118 L189,118 L192,118 L195,119 L199,121 L200,121 L203,123 L206,123 L209,124 L210,124 L212,125 L214,125 L215,125 L215,124 L216,123 L217,121 L217,119 L217,116 L217,113 L217,111 L217,106 L217,104 L217,102 L217,100 L216,98 L216,96 L215,95 L215,94 L214,94 L213,93 L212,93 L212,92 L211,92 L210,92 L210,92 L210,92 L209,92 L209,92 L209,94 L210,96 L212,98 L214,102 L215,103 L218,106 L219,108 L221,109 L222,110 L224,111 L224,111 L225,112 L226,112 L227,112 L228,112 L229,112 L229,111 L230,110 L231,108 L232,106 L233,103 L233,102 L233,100 L234,97 L234,94 L234,92 L234,90 L234,89 L234,88 L234,87 L234,87 L234,86 L234,86 L234,87 L235,88 L235,90 L235,92 L236,95 L237,98 L238,100 L239,105 L240,108 L241,111 L243,114 L244,117 L246,120 L248,124 L249,128 L252,131 L254,134 L255,135 L256,138 L258,141 L260,143 L260,144 L261,146 L262,147 L263,148 L263,149 L263,150 L264,151 L264,153 L264,155 L264,156 L264,158 L264,160 L264,163 L264,164 L264,166 L264,167 L264,168 L264,169 L263,169 L263,170 L263,170 L262,170 L261,170 L260,170 L257,170 L255,170 L253,170 L250,170 L248,168 L245,166 L243,164 L241,162 L240,160 L238,155 L237,152 L237,148 L237,145 L237,142 L237,138 L237,134 L237,131 L239,127 L241,123 L242,119 L245,116 L245,115 L247,112 L249,111 L251,109 L252,108 L255,107 L257,107 L260,107 L261,107 L267,112 L270,116 L273,120 L276,123 L279,128 L279,129 L281,132 L283,135 L284,137 L284,138 L285,140 L285,140 L286,141 L286,141 L286,141 L286,142 L286,141 M286,141 M345,76 L345,76 L345,76 L344,76 L344,76 L343,76 L343,76 L342,76 L342,76 L341,76 L340,76 L339,76 L338,76 L338,76 L337,76 L336,76 L335,76 L335,76 L334,76 L333,76 L333,76 L332,77 L331,78 L330,79 L329,81 L329,82 L328,84 L328,86 L327,88 L327,89 L327,93 L327,94 L327,99 L327,100 L327,105 L328,108 L329,111 L330,113 L331,115 L332,117 L333,119 L334,120 L334,122 L335,123 L336,123 L337,124 L337,124 L337,125 L338,125 L339,125 L339,125 L340,125 L341,123 L342,121 L342,118 L343,115 L344,112 L344,110 L344,107 L344,104 L344,102 L344,100 L344,98 L344,97 L343,96 L342,95 L342,95 L342,94 L341,93 L341,93 L340,92 L340,92 L340,91 L340,91 L340,91 L340,90 L340,91 L340,93 L342,95 L342,97 L344,100 L345,102 L347,105 L348,106 L350,108 L352,110 L354,112 L356,113 L367,115 L369,115 L370,115 L372,113 L373,111 L373,109 L374,106 L374,102 L374,98 L374,94 L374,91 L374,89 L374,85 L373,82 L372,79 L371,77 L370,74 L369,73 L368,71 L368,69 L367,68 L367,68 L366,67 L366,67 L366,67 L365,66 L365,66 L365,67 L365,69 L365,71 L366,73 L367,75 L368,78 L369,80 L370,84 L371,87 L373,90 L374,93 L375,96 L376,97 L377,100 L379,102 L380,104 L381,106 L382,108 L382,109 L383,110 L383,111 L383,112 L384,112 L384,112 L384,113 L384,113 L384,112 L383,111 L383,108 L382,107 L381,104 L381,102 L381,98 L381,96 L381,94 L381,91 L381,89 L381,87 L381,85 L381,83 L382,82 L382,80 L382,79 L383,79 L384,78 L384,77 L385,77 L386,77 L386,77 L387,76 L388,76 L389,76 L390,76 L391,76 L391,76 L392,77 L393,78 L394,80 L395,82 L397,85 L398,88 L399,92 L400,94 L401,96 L402,99 L403,102 L405,104 L406,106 L407,108 L408,109 L409,109 L409,110 L410,110 L411,111 L412,111 L412,111 L413,111 L414,111 L415,111 L416,110 L417,108 L419,105 L420,102 L422,99 L423,94 L424,91 L424,89 L425,85 L426,82 L426,79 L426,77 L426,74 L426,73 L426,71 L426,70 L426,68 L424,67 L423,66 L422,65 L422,65 L421,64 L420,64 L419,64 L418,64 L418,64 L417,64 L417,64 L416,64 L416,64 L416,64 L415,65 L415,66 L414,68 L413,70 L413,73 L412,77 L412,80 L412,84 L412,86 L412,89 L412,92 L412,94 L412,95 L412,96 L412,97 L412,98 L412,98 L413,98 L413,98 L414,98 L414,98 L415,95 L416,93 L417,90 L417,88 L418,86 L419,84 L419,81 L420,80 L420,79 L420,78 L420,77 L420,77 L420,77 L421,77 L421,78 L423,81 L424,84 L427,92 L428,96 L431,103 L434,110 L437,117 L441,124 L444,131 L446,137 L449,142 L451,144 L452,147 L454,150 L456,153 L457,155 L458,156 L459,158 L460,159 L460,161 L460,162 L460,163 L461,163 L461,164 L461,165 L461,166 L461,166 L461,166 L461,167 L461,167 L461,167 L461,167 L460,167 L459,167 L458,167 L455,167 L453,167 L451,165 L449,163 L447,161 L446,158 L444,155 L443,151 L443,149 L443,146 L443,143 L443,140 L443,137 L443,134 L443,131 L444,128 L445,126 L446,123 L447,120 L448,116 L449,113 L449,109 L450,105 L451,101 L451,97 L452,92 L452,91 L452,85 L452,83 L452,80 L452,77 L452,76 L451,74 L450,72 L449,70 L448,69 L447,67 L446,66 L445,65 L445,65 L444,64 L443,63 L443,63 L442,63 L441,63 L441,63 L440,63 L439,63 L439,63 L438,63 L438,64 L438,66 L437,67 L437,70 L437,72 L437,74 L437,76 L437,78 L437,80 L438,81 L439,82 L440,82 L440,83 L441,83 L442,83 L444,84 L445,84 L446,84 L447,84 L448,84 L449,84 L450,84 L451,84 L452,84 L453,84 L454,83 L454,82 L455,82 L455,81 L456,80 L456,78 L457,78 L457,77 L457,76 L457,76 L458,76 L458,75 L458,75 L458,75 L458,75 L458,76 L459,77 L459,80 L460,81 L460,83 L461,85 L462,88 L463,90 L464,92 L464,93 L465,94 L466,96 L466,97 L467,97 L468,98 L468,98 L469,98 L469,99 L470,99 L470,99 L471,99 L471,99 L472,98 L472,97 L473,95 L474,93 L474,90 L475,89 L475,84 L476,81 L476,79 L476,77 L476,74 L476,72 L476,70 L476,69 L476,68 L476,67 L476,67 L476,67 L476,68 L476,69 L476,71 L476,74 L477,77 L477,79 L478,81 L479,83 L480,85 L482,87 L483,89 L485,90 L485,90 L486,91 L488,91 L489,91 L490,91 L491,91 L492,91 L493,89 L494,88 L495,86 L496,84 L497,82 L498,80 L499,77 L499,75 L499,73 L499,70 L499,68 L499,67 L499,65 L499,63 L499,63 L499,62 L499,62 L498,61 L498,61 L497,61 L497,61 L497,61 L497,61 L496,63 L496,65 L496,67 L496,70 L496,74 L496,78 L496,82 L497,88 L498,93 L500,99 L501,105 L503,111 L505,116 L507,121 L509,126 L511,130 L513,134 L515,137 L517,141 L518,144 L519,147 L521,151 L522,154 L522,156 L522,159 L523,161 L523,163 L524,164 L524,165 L524,166 L524,166 L524,167 L524,167 L524,167 L524,167 L524,168 L523,168 L522,168 L520,168 L518,168 L516,168 L514,168 L512,166 L510,163 L508,160 L506,156 L504,151 L503,146 L501,141 L501,136 L500,132 L500,130 L500,126 L500,123 L500,120 L500,117 L500,115 L500,113 L501,111 L502,109 L503,108 L504,107 L506,106 L507,105 L508,104 L510,104 L511,104 L512,104 L514,104 L515,104 L516,104 L517,105 L518,106 L518,106 L519,107 L519,108 L519,108 L520,108 L520,108 L520,109 L520,108 M520,108 " fill="none" stroke="blue" stroke-width="1"/> 
            </svg>