<?xml version="1.0" standalone="no"?>
<svg id="svg1" baseProfile="full" height="200" width="800" version="1.1" xmlns="http://www.w3.org/2000/svg" xmlns:ev="http://www.w3.org/2001/xml-events" xmlns:xlink="http://www.w3.org/1999/xlink" onmousedown="mouseDown(evt)" onmouseup="mouseUp(evt)" onmousemove="mouseMove(evt)" ontouchstart="mouseDown(evt)" ontouchmove="mouseMove(evt)" ontouchend="mouseUp(evt)">
                <script type="text/JavaScript">
                    
                        var svg = document.getElementById("svg1");
                        var pt = svg.createSVGPoint();
                        isDrawing = false;
                        start = 0;
                        sp = null;
                        function alert_coords(evt) {
                            if(evt.targetTouches) {
                                // Prefer Touch Events
                                pt.x = evt.targetTouches[0].clientX;
                                pt.y = evt.targetTouches[0].clientY;
                            } else {
                                pt.x = evt.clientX;
                                pt.y = evt.clientY;
                            }
                            // The cursor point, translated into svg coordinates
                            var point =  pt.matrixTransform(svg.getScreenCTM().inverse());
                            return point;
                        }
                        function mouseDown(evt) {
                            point = alert_coords(evt);
                            isDrawing = true;
                            var path = document.getElementById("path1");
                            var d = path.getAttributeNS(null, "d") + "M"+ point.x + "," + point.y+ " ";
                            path.setAttributeNS(null, "d", d);
                        }
                        function mouseUp(evt) {
                            if (isDrawing === true) {
                                point = alert_coords(evt);
                                var path = document.getElementById("path1");
                                var d = path.getAttributeNS(null, "d") + "M"+ point.x + "," + point.y+ " ";
                                path.setAttributeNS(null, "d", d);
                                isDrawing = false;
                            }
                        }
                        function mouseMove(evt) {
                            if (isDrawing === true) {
                                point = alert_coords(evt);
                                var path = document.getElementById("path1");
                                x = point.x;
                                y = point.y ;
                                var d = path.getAttributeNS(null, "d") + "L"+ x + "," + y + " ";
                                path.setAttributeNS(null, "d", d);
                            }
                        }
                    
                </script>
                <rect id="rect1" fill="white" height="200" width="800" stroke="black" x="0" y="0"/>
                <path id="path1" d="M75.70833587646484,38.72916793823242 L75,38.33333206176758 M75,38.33333206176758 M75,38.33333206176758 M22.114585876464844,139.28125 L27.21875,153.0625 L29.260417938232422,159.1875 L30.28125,162.7604217529297 L31.302085876464844,164.2916717529297 L31.8125,164.2916717529297 L33.34375,163.2708282470703 L33.85416793823242,161.7395782470703 L35.38541793823242,155.1041717529297 L41,135.1979217529297 L43.04167175292969,129.0729217529297 L46.614585876464844,116.31250762939453 L50.69792175292969,102.53125762939453 L54.78125,92.83333587646484 L59.375,81.09375762939453 L63.458335876464844,70.88542938232422 L69.07292175292969,58.63541793823242 L71.11458587646484,56.08333206176758 L74.17708587646484,50.97916793823242 L75.70833587646484,48.937503814697266 L78.26042175292969,44.85416793823242 L79.28125,42.812503814697266 L80.30208587646484,41.281253814697266 L81.32292175292969,40.26041793823242 L81.83333587646484,39.750003814697266 L81.83333587646484,40.77083206176758 L82.34375,44.85416793823242 L82.85417175292969,50.97916793823242 L83.36458587646484,60.16666793823242 L83.875,69.35417938232422 L84.89583587646484,77.52083587646484 L85.91667175292969,85.68750762939453 L87.44792175292969,96.40625762939453 L88.97917175292969,105.59375762939453 L89.48958587646484,109.16667938232422 L90.51042175292969,114.27083587646484 L90.51042175292969,117.84375762939453 L91.02084350585938,121.41667938232422 L91.53125,125.50000762939453 L91.53125,129.5833282470703 L91.53125,132.1354217529297 L92.04167175292969,133.15625 L92.04167175292969,133.6666717529297 L92.04167175292969,133.15625 L87.95833587646484,127.54167938232422 L85.40625,124.47917938232422 L79.28125,116.31250762939453 L73.66667175292969,107.63542938232422 L69.07292175292969,101.51042938232422 L66.01042175292969,96.91667938232422 L62.94792175292969,93.85417938232422 L59.375,92.32292938232422 L56.3125,91.81250762939453 L53.25,93.34375762939453 L49.677085876464844,96.91667938232422 L46.614585876464844,105.08333587646484 L45.59375,112.73958587646484 L46.10417175292969,119.88542938232422 L48.65625,126.01042938232422 L50.1875,128.5625 L53.76042175292969,133.15625 L56.82292175292969,136.21875 L61.41667175292969,137.75 L69.07292175292969,137.2395782470703 L76.72917175292969,134.6875 L82.85417175292969,131.625 L87.44792175292969,128.0520782470703 L91.53125,123.96875762939453 L96.63542175292969,113.76042938232422 L101.22917175292969,101.00000762939453 L104.29167175292969,91.30208587646484 L105.82292175292969,82.62500762939453 L106.84375,75.47917938232422 L107.35417175292969,72.92708587646484 L108.375,68.84375762939453 L108.375,66.29167175292969 L108.375,64.76042175292969 L108.375,63.73958206176758 L108.375,63.22916793823242 L107.86459350585938,65.78125762939453 L105.82292175292969,75.47917938232422 L103.78125,86.70833587646484 L102.76042175292969,101.00000762939453 L102.25,112.22917938232422 L102.76042175292969,121.41667938232422 L104.29167175292969,130.6041717529297 L105.3125,134.1770782470703 L108.375,140.3020782470703 L111.4375,143.3645782470703 L114.5,144.3854217529297 L118.58334350585938,143.3645782470703 L122.66667175292969,139.28125 L127.77084350585938,130.6041717529297 L131.8541717529297,118.86458587646484 L134.40625,106.61458587646484 L136.95834350585938,96.40625762939453 L139.5104217529297,87.21875762939453 L142.0625,78.54167938232422 L144.61459350585938,69.86458587646484 L146.65625,64.25000762939453 L147.1666717529297,62.20833206176758 L148.1875,59.656253814697266 L148.6979217529297,58.63541793823242 L148.6979217529297,57.61458206176758 L147.67709350585938,59.14583206176758 L145.6354217529297,62.718753814697266 L142.0625,72.92708587646484 L138.48959350585938,82.11458587646484 L136.4479217529297,90.79167938232422 L134.9166717529297,101.00000762939453 L133.89584350585938,110.69792938232422 L133.3854217529297,114.27083587646484 L133.3854217529297,123.96875762939453 L133.89584350585938,127.03125762939453 L135.9375,132.6458282470703 L138.48959350585938,136.21875 L142.0625,138.2604217529297 L147.67709350585938,138.7708282470703 L153.80209350585938,135.7083282470703 L161.96875,128.0520782470703 L164.0104217529297,126.01042938232422 M213.01043701171875,113.25000762939453 L218.11459350585938,100.48958587646484 L220.15625,97.93750762939453 L222.19793701171875,96.40625762939453 L224.23959350585938,95.89583587646484 L226.28125,97.93750762939453 L227.8125,106.10417938232422 L226.79168701171875,114.27083587646484 L225.77084350585938,119.37500762939453 L225.26043701171875,121.41667938232422 L223.72918701171875,124.98958587646484 L222.70834350585938,129.0729217529297 L221.6875,133.15625 L220.66668701171875,136.21875 L220.15625,137.2395782470703 L220.15625,137.75 L220.15625,136.7291717529297 L220.15625,134.1770782470703 L220.66668701171875,129.5833282470703 L222.19793701171875,123.96875762939453 L225.77084350585938,114.78125762939453 L229.85418701171875,105.08333587646484 L231.38543701171875,102.02083587646484 L233.9375,97.42708587646484 L235.97918701171875,94.87500762939453 L238.53125,92.83333587646484 L242.10418701171875,91.30208587646484 L245.16668701171875,90.79167938232422 L247.71875,90.79167938232422 L249.76043701171875,92.83333587646484 L252.3125,98.95833587646484 L252.82293701171875,107.12500762939453 L252.82293701171875,113.76042938232422 L251.80209350585938,118.86458587646484 L251.29168701171875,121.41667938232422 L250.27084350585938,125.50000762939453 L249.25,129.0729217529297 L248.73959350585938,131.1145782470703 L248.73959350585938,132.1354217529297 L248.73959350585938,132.6458282470703 L248.73959350585938,132.1354217529297 L249.25,130.09375 L250.78125,125.50000762939453 L253.84375,118.35417938232422 L257.41668701171875,110.69792938232422 L260.47918701171875,104.57292938232422 L263.03125,99.97917938232422 L265.07293701171875,97.42708587646484 L266.09375,96.40625762939453 L268.13543701171875,94.36458587646484 L270.1770935058594,93.34375762939453 L272.21875,93.34375762939453 L273.75,93.85417938232422 L275.28125,97.42708587646484 L275.79168701171875,105.08333587646484 L274.7708435058594,112.73958587646484 L273.75,118.35417938232422 L272.72918701171875,123.96875762939453 L272.21875,128.5625 L272.21875,132.1354217529297 L272.21875,135.1979217529297 L273.2395935058594,136.7291717529297 L273.75,137.2395782470703 L274.7708435058594,137.2395782470703 L275.79168701171875,137.2395782470703 L277.32293701171875,136.21875 L280.38543701171875,133.6666717529297 L284.46875,129.5833282470703 L288.5520935058594,124.98958587646484 L292.63543701171875,119.88542938232422 L295.69793701171875,113.76042938232422 L298.76043701171875,107.63542938232422 L300.8020935058594,103.55208587646484 L301.82293701171875,100.48958587646484 L301.82293701171875,98.44792938232422 L301.82293701171875,97.42708587646484 L301.82293701171875,96.91667938232422 L301.82293701171875,96.40625762939453 L300.8020935058594,96.91667938232422 L297.7395935058594,100.48958587646484 L293.65625,108.65625762939453 L290.0833435058594,116.31250762939453 L288.04168701171875,123.96875762939453 L287.53125,130.6041717529297 L287.53125,134.1770782470703 L288.5520935058594,135.7083282470703 L289.57293701171875,136.21875 L291.6145935058594,136.21875 L292.63543701171875,135.7083282470703 L295.69793701171875,133.6666717529297 L300.29168701171875,128.0520782470703 L302.3333435058594,125.50000762939453 L306.41668701171875,119.37500762939453 L310.5,112.73958587646484 L314.07293701171875,107.63542938232422 L317.13543701171875,103.55208587646484 L319.6875,99.97917938232422 L321.72918701171875,97.93750762939453 L323.7708435058594,95.89583587646484 L325.8125,94.87500762939453 L327.85418701171875,93.85417938232422 L329.8958435058594,93.85417938232422 L330.91668701171875,93.85417938232422 L332.9583435058594,94.87500762939453 L335,97.42708587646484 L336.53125,103.04167938232422 L336.53125,110.18750762939453 L336.0208435058594,115.80208587646484 L335,119.88542938232422 L333.46875,123.96875762939453 L331.9375,127.03125762939453 L330.40625,129.5833282470703 L329.38543701171875,131.1145782470703 L328.875,132.1354217529297 L328.875,131.625 L328.875,130.6041717529297 L329.8958435058594,127.03125762939453 L330.91668701171875,125.50000762939453 L333.97918701171875,121.41667938232422 L337.04168701171875,117.33333587646484 L339.0833435058594,113.25000762939453 L340.6145935058594,110.69792938232422 L342.1458435058594,108.65625762939453 L343.6770935058594,106.61458587646484 L344.69793701171875,105.59375762939453 L345.71875,104.57292938232422 L346.7395935058594,103.55208587646484 L347.25,103.55208587646484 L348.2708435058594,104.06250762939453 L349.29168701171875,106.61458587646484 L349.8020935058594,110.69792938232422 L349.8020935058594,114.78125762939453 L349.8020935058594,118.35417938232422 L350.82293701171875,121.41667938232422 L352.35418701171875,124.47917938232422 L353.88543701171875,126.01042938232422 L355.9270935058594,127.03125762939453 L358.47918701171875,127.54167938232422 L363.07293701171875,126.01042938232422 L364.60418701171875,124.98958587646484 M412.5833740234375,116.82292938232422 L417.1771240234375,103.55208587646484 L418.19793701171875,102.02083587646484 L419.21875,101.00000762939453 L420.2396240234375,99.46875762939453 L421.26043701171875,98.44792938232422 L422.28125,98.44792938232422 L423.3021240234375,101.51042938232422 L423.8125,107.63542938232422 L423.8125,114.78125762939453 L423.8125,120.39583587646484 L423.3021240234375,124.47917938232422 L422.28125,127.54167938232422 L421.7708740234375,129.0729217529297 L421.26043701171875,130.09375 L420.75,131.1145782470703 L420.75,131.625 L420.75,131.625 L421.26043701171875,131.1145782470703 L421.7708740234375,130.6041717529297 L422.79168701171875,128.5625 L425.34375,126.01042938232422 L428.91668701171875,121.92708587646484 L433.51043701171875,117.33333587646484 L438.10418701171875,111.71875762939453 L441.6771240234375,107.12500762939453 L443.71875,103.55208587646484 L445.76043701171875,101.51042938232422 L446.78125,100.48958587646484 L448.82293701171875,99.46875762939453 L450.8646240234375,98.44792938232422 L451.88543701171875,98.44792938232422 L453.41668701171875,99.97917938232422 L454.94793701171875,104.06250762939453 L455.96875,109.67708587646484 L455.96875,114.78125762939453 L455.96875,119.37500762939453 L455.96875,124.47917938232422 L454.94793701171875,130.09375 L454.94793701171875,134.1770782470703 L454.4375,137.2395782470703 L454.4375,139.28125 L454.4375,139.7916717529297 L454.4375,140.8125 L454.4375,140.3020782470703 L454.94793701171875,138.7708282470703 L456.47918701171875,135.1979217529297 L458.5208740234375,131.1145782470703 L460.5625,127.03125762939453 L463.625,122.94792938232422 L466.6875,118.86458587646484 L469.75,114.78125762939453 L471.79168701171875,111.71875762939453 L473.8333740234375,109.16667938232422 L474.85418701171875,108.14583587646484 L476.8958740234375,106.61458587646484 L478.4271240234375,105.59375762939453 L479.44793701171875,105.08333587646484 L480.46875,105.08333587646484 L481.4896240234375,107.63542938232422 L482.51043701171875,111.71875762939453 L482.51043701171875,116.31250762939453 L482.51043701171875,120.90625762939453 L482.51043701171875,126.01042938232422 L483.0208740234375,130.09375 L484.04168701171875,133.15625 L485.0625,134.6875 L486.0833740234375,135.7083282470703 L487.6146240234375,135.7083282470703 L488.63543701171875,135.7083282470703 L491.1875,134.1770782470703 L494.25,130.6041717529297 L497.3125,126.52083587646484 L500.375,120.39583587646484 L502.9271240234375,113.25000762939453 L503.94793701171875,106.61458587646484 L503.94793701171875,102.02083587646484 L503.94793701171875,98.44792938232422 L503.94793701171875,96.40625762939453 L503.94793701171875,94.87500762939453 L503.94793701171875,93.85417938232422 L503.94793701171875,93.34375762939453 L503.94793701171875,95.89583587646484 L503.94793701171875,102.53125762939453 L504.4583740234375,112.73958587646484 L504.96875,115.29167938232422 L507.01043701171875,120.39583587646484 L509.0521240234375,125.50000762939453 L511.09375,129.5833282470703 L513.1354370117188,132.1354217529297 L515.1771240234375,133.6666717529297 L517.21875,134.1770782470703 L519.2604370117188,133.6666717529297 L521.8125,132.1354217529297 L524.875,128.5625 L526.40625,126.52083587646484 L529.46875,122.43750762939453 L532.0208740234375,117.33333587646484 L533.5521240234375,112.22917938232422 L534.5729370117188,107.12500762939453 L535.59375,103.04167938232422 L536.6146240234375,101.00000762939453 L537.125,98.95833587646484 L537.125,97.93750762939453 L537.125,96.91667938232422 L537.125,99.46875762939453 L536.6146240234375,106.61458587646484 L536.6146240234375,110.18750762939453 L537.6354370117188,119.88542938232422 L538.65625,122.94792938232422 L541.71875,129.0729217529297 L544.78125,133.6666717529297 L547.3333740234375,136.7291717529297 L549.375,137.75 L552.4375,137.75 L556.0104370117188,136.21875 L560.09375,132.6458282470703 L564.1771240234375,127.54167938232422 L567.75,121.92708587646484 L570.8125,114.78125762939453 L571.8333740234375,111.71875762939453 L572.8541870117188,103.04167938232422 L572.8541870117188,100.48958587646484 L572.34375,96.40625762939453 L571.3229370117188,93.34375762939453 L570.3021240234375,91.30208587646484 L567.75,89.26042938232422 L565.7083740234375,88.23958587646484 L564.6875,88.23958587646484 L564.6875,88.75000762939453 L565.1979370117188,92.32292938232422 L567.75,97.93750762939453 L571.8333740234375,105.08333587646484 L575.9166870117188,110.69792938232422 L577.9583740234375,112.73958587646484 L581.0208740234375,116.31250762939453 L583.0625,119.37500762939453 L584.0833740234375,123.45833587646484 L584.0833740234375,128.0520782470703 L582.5521240234375,131.625 L579.4896240234375,134.6875 L574.8958740234375,137.2395782470703 L571.3229370117188,138.2604217529297 L569.7916870117188,138.2604217529297 L569.7916870117188,137.2395782470703 L570.3021240234375,135.7083282470703 L571.8333740234375,133.6666717529297 L575.9166870117188,131.1145782470703 L578.46875,129.5833282470703 L586.125,124.98958587646484 L588.6771240234375,122.94792938232422 L594.8021240234375,117.33333587646484 L603.4791870117188,105.59375762939453 L610.625,95.38542938232422 L617.2604370117188,85.17708587646484 L621.34375,73.43750762939453 L623.3854370117188,64.25000762939453 L623.3854370117188,59.14583206176758 L623.3854370117188,56.593753814697266 L623.3854370117188,54.55208206176758 L623.3854370117188,53.531253814697266 L622.3646240234375,52.51041793823242 L621.8541870117188,52.51041793823242 L619.8125,53.531253814697266 L617.2604370117188,57.61458206176758 L614.1979370117188,66.80208587646484 L612.15625,77.52083587646484 L611.6458740234375,85.68750762939453 L612.6666870117188,94.87500762939453 L614.7083740234375,103.55208587646484 L617.2604370117188,110.69792938232422 L620.8333740234375,117.33333587646484 L624.9166870117188,122.94792938232422 L630.53125,127.03125762939453 L635.6354370117188,127.03125762939453 M592.25,93.85417938232422 L602.96875,87.72917938232422 L606.5416870117188,85.17708587646484 L610.1146240234375,83.13542938232422 L616.2396240234375,79.05208587646484 M698.4166870117188,107.12500762939453 L684.6354370117188,110.69792938232422 L683.6146240234375,112.73958587646484 L682.59375,114.78125762939453 L681.5729370117188,118.86458587646484 L682.0833740234375,121.41667938232422 L683.1041870117188,121.92708587646484 L685.1458740234375,121.41667938232422 L688.2083740234375,118.35417938232422 L693.8229370117188,108.65625762939453 L700.4583740234375,96.91667938232422 L707.09375,85.68750762939453 L713.7291870117188,72.41667938232422 L718.8333740234375,62.718753814697266 L720.875,58.63541793823242 L723.4271240234375,52.51041793823242 L725.46875,47.91666793823242 L726.4896240234375,45.36458206176758 L727,44.343753814697266 L727,43.83333206176758 L726.4896240234375,44.85416793823242 L723.9375,48.42708206176758 L720.875,55.57291793823242 L717.8125,67.31250762939453 L715.7708740234375,79.05208587646484 L714.75,88.23958587646484 L713.7291870117188,98.95833587646484 L713.21875,107.63542938232422 L713.21875,110.18750762939453 L713.7291870117188,114.27083587646484 L714.75,116.82292938232422 L716.28125,117.84375762939453 L718.3229370117188,118.86458587646484 L722.40625,118.86458587646484 L725.9791870117188,116.82292938232422 L730.0625,113.25000762939453 L734.65625,107.63542938232422 L738.2291870117188,102.02083587646484 L741.2916870117188,96.91667938232422 L743.3333740234375,92.83333587646484 L744.3541870117188,90.28125762939453 L744.8646240234375,88.23958587646484 L744.8646240234375,87.72917938232422 L744.8646240234375,86.70833587646484 L743.84375,86.19792938232422 L741.8021240234375,86.19792938232422 L739.25,87.72917938232422 L736.1875,91.81250762939453 L734.1458740234375,97.93750762939453 L733.6354370117188,104.57292938232422 L733.6354370117188,110.18750762939453 L735.1666870117188,114.27083587646484 L737.2083740234375,116.82292938232422 L740.2708740234375,117.84375762939453 L744.8646240234375,118.35417938232422 L747.4166870117188,117.84375762939453 L752.0104370117188,116.31250762939453 L755.5833740234375,114.27083587646484 L758.6458740234375,111.71875762939453 L761.1979370117188,108.65625762939453 L763.2396240234375,105.59375762939453 L765.28125,103.04167938232422 L766.8125,101.00000762939453 L767.8333740234375,99.97917938232422 L768.8541870117188,98.95833587646484 L768.8541870117188,97.93750762939453 L768.8541870117188,96.91667938232422 L767.8333740234375,95.89583587646484 L766.8125,95.38542938232422 L766.3021240234375,95.38542938232422 L765.28125,95.89583587646484 L763.75,98.44792938232422 L762.7291870117188,103.04167938232422 L762.7291870117188,108.65625762939453 L763.75,113.25000762939453 L765.28125,116.82292938232422 L768.8541870117188,118.86458587646484 L774.46875,120.39583587646484 L780.59375,120.90625762939453 L786.71875,119.37500762939453 L788.760498046875,118.86458587646484 M749.96875,54.55208206176758 L750,54.33333206176758 M750,54.33333206176758 M750,54.33333206176758 M769.875,59.656253814697266 L756.6041870117188,64.76042175292969 L755.5833740234375,65.78125762939453 L755.0729370117188,67.31250762939453 L754.5625,69.35417938232422 L755.0729370117188,70.88542938232422 L755.5833740234375,70.88542938232422 L757.1146240234375,69.86458587646484 L759.15625,66.80208587646484 L761.1979370117188,62.718753814697266 L762.21875,59.656253814697266 L762.21875,57.61458206176758 L762.21875,57.10416793823242 L759.15625,55.062503814697266 L757.1146240234375,55.062503814697266 " fill="none" stroke="blue" stroke-width="1"/> 
            </svg>