<?xml version="1.0" standalone="no"?>
<svg id="svg1" baseProfile="full" height="200" width="100%" version="1.1" xmlns="http://www.w3.org/2000/svg" xmlns:ev="http://www.w3.org/2001/xml-events" xmlns:xlink="http://www.w3.org/1999/xlink" onmousedown="mouseDown(evt)" onmouseup="mouseUp(evt)" onmousemove="mouseMove(evt)" ontouchstart="mouseDown(evt)" ontouchmove="mouseMove(evt)" ontouchend="mouseUp(evt)">
                <script type="text/JavaScript">
                    
                        var svg = document.getElementById("svg1");
                        var pt = svg.createSVGPoint();
                        isDrawing = false;
                        start = 0;
                        sp = null;
                        function alert_coords(evt) {
                            if(evt.targetTouches) {
                                // Prefer Touch Events
                                pt.x = evt.targetTouches[0].clientX;
                                pt.y = evt.targetTouches[0].clientY;
                            } else {
                                pt.x = evt.clientX;
                                pt.y = evt.clientY;
                            }
                            // The cursor point, translated into svg coordinates
                            var point =  pt.matrixTransform(svg.getScreenCTM().inverse());
                            return point;
                        }
                        function mouseDown(evt) {
                            point = alert_coords(evt);
                            isDrawing = true;
                            var path = document.getElementById("path1");
                            var d = path.getAttributeNS(null, "d") + "M"+ point.x + "," + point.y+ " ";
                            path.setAttributeNS(null, "d", d);
                        }
                        function mouseUp(evt) {
                            if (isDrawing === true) {
                                point = alert_coords(evt);
                                var path = document.getElementById("path1");
                                var d = path.getAttributeNS(null, "d") + "M"+ point.x + "," + point.y+ " ";
                                path.setAttributeNS(null, "d", d);
                                isDrawing = false;
                            }
                        }
                        function mouseMove(evt) {
                            if (isDrawing === true) {
                                point = alert_coords(evt);
                                var path = document.getElementById("path1");
                                x = point.x;
                                y = point.y ;
                                var d = path.getAttributeNS(null, "d") + "L"+ x + "," + y + " ";
                                path.setAttributeNS(null, "d", d);
                            }
                        }
                    
                </script>
                <rect id="rect1" fill="white" height="200" width="100%" stroke="black" x="0" y="0"/>
                <path id="path1" d="M864.3021240234375,10.656250953674316 L864,10.333333015441895 M864,10.333333015441895 M864,10.333333015441895 M34.364585876464844,123.96875762939453 L36.91666793823242,138.7708282470703 L37.9375,141.8333282470703 L38.44791793823242,144.8958282470703 L39.97916793823242,149.4895782470703 L41,152.5520782470703 L42.020835876464844,154.59375 L43.04167175292969,155.6145782470703 L44.0625,156.125 L45.083335876464844,155.6145782470703 L46.614585876464844,153.5729217529297 L51.208335876464844,143.3645782470703 L55.802085876464844,131.625 L57.333335876464844,127.03125762939453 L60.395835876464844,114.78125762939453 L63.458335876464844,101.00000762939453 L66.01042175292969,90.79167938232422 L68.5625,79.05208587646484 L70.60417175292969,68.33333587646484 L72.64583587646484,60.67708206176758 L75.19792175292969,53.531253814697266 L77.23958587646484,45.875003814697266 L79.28125,40.26041793823242 L80.30208587646484,35.66666793823242 L80.8125,31.58333396911621 L81.32292175292969,29.541669845581055 L81.32292175292969,28.52083396911621 L81.32292175292969,27.5000057220459 L81.83333587646484,28.010419845581055 L81.83333587646484,29.0312557220459 L81.83333587646484,30.5625057220459 L82.85417175292969,35.66666793823242 L83.36458587646484,41.281253814697266 L84.38542175292969,46.38541793823242 L85.40625,50.97916793823242 L86.42708587646484,57.61458206176758 L88.46875,65.78125762939453 L90,73.94792938232422 L91.53125,81.09375762939453 L92.55209350585938,87.72917938232422 L93.57292175292969,92.32292938232422 L95.61459350585938,107.63542938232422 L96.125,112.22917938232422 L97.14584350585938,119.37500762939453 L98.16667175292969,126.01042938232422 L99.1875,131.1145782470703 L99.69792175292969,134.6875 L100.20834350585938,137.75 L100.71875,139.7916717529297 L100.71875,141.3229217529297 L101.22917175292969,142.34375 L101.22917175292969,143.3645782470703 L101.22917175292969,142.34375 L100.71875,139.7916717529297 L98.67709350585938,134.6875 L96.63542175292969,129.5833282470703 L93.57292175292969,124.98958587646484 L90,120.39583587646484 L85.91667175292969,114.78125762939453 L81.83333587646484,108.65625762939453 L78.26042175292969,103.04167938232422 L75.70833587646484,98.95833587646484 L73.15625,95.38542938232422 L71.11458587646484,92.83333587646484 L69.07292175292969,91.30208587646484 L67.54167175292969,90.28125762939453 L65.5,89.77083587646484 L64.98958587646484,89.77083587646484 L63.458335876464844,89.77083587646484 L61.41667175292969,90.79167938232422 L59.375,93.34375762939453 L57.333335876464844,97.42708587646484 L55.802085876464844,102.53125762939453 L55.802085876464844,108.65625762939453 L57.333335876464844,113.76042938232422 L59.375,117.84375762939453 L62.4375,122.94792938232422 L65.5,128.5625 L68.5625,132.1354217529297 L72.13542175292969,134.1770782470703 L74.6875,135.1979217529297 L80.30208587646484,135.7083282470703 L85.40625,134.1770782470703 L90,130.6041717529297 L93.57292175292969,126.52083587646484 L97.65625,121.92708587646484 L101.73959350585938,114.27083587646484 L104.80209350585938,105.08333587646484 L107.86459350585938,96.40625762939453 L110.92709350585938,88.23958587646484 L113.47917175292969,80.07292938232422 L115.52084350585938,72.41667938232422 L117.05209350585938,65.78125762939453 L118.07292175292969,60.67708206176758 L118.58334350585938,58.125003814697266 L119.60417175292969,53.531253814697266 L120.625,49.44791793823242 L121.13542175292969,46.89583206176758 L121.13542175292969,45.36458206176758 L121.13542175292969,44.343753814697266 L121.13542175292969,43.83333206176758 L121.64584350585938,43.83333206176758 L122.66667175292969,45.875003814697266 L123.6875,49.44791793823242 L124.70834350585938,54.55208206176758 L125.72917175292969,61.69791793823242 L126.75,68.84375762939453 L127.77084350585938,75.47917938232422 L128.7916717529297,80.58333587646484 L129.30209350585938,83.13542938232422 L130.3229217529297,90.28125762939453 L131.8541717529297,99.46875762939453 L133.3854217529297,108.65625762939453 L134.40625,114.78125762939453 L135.42709350585938,121.41667938232422 L137.46875,130.6041717529297 L139.5104217529297,139.7916717529297 L141.0416717529297,147.4479217529297 L143.08334350585938,152.5520782470703 L145.125,158.6770782470703 L147.1666717529297,164.2916717529297 L148.1875,169.3958282470703 L148.6979217529297,171.43751525878906 L149.71875,174.50001525878906 L150.73959350585938,176.5416717529297 L151.7604217529297,178.0729217529297 L152.27084350585938,179.09376525878906 L152.27084350585938,178.0729217529297 L151.7604217529297,176.03126525878906 L150.2291717529297,171.43751525878906 L148.1875,166.3333282470703 L146.14584350585938,162.25 L144.1041717529297,157.65625 L143.08334350585938,155.1041717529297 L141.0416717529297,148.9791717529297 L139.5104217529297,142.8541717529297 L138.48959350585938,136.7291717529297 L138.48959350585938,131.625 L138.48959350585938,126.52083587646484 L138.48959350585938,119.88542938232422 L139,112.22917938232422 L140.02084350585938,105.59375762939453 L142.0625,99.97917938232422 L144.1041717529297,95.89583587646484 L146.65625,92.83333587646484 L152.78125,88.75000762939453 L158.39584350585938,87.72917938232422 L160.9479217529297,88.23958587646484 L162.98959350585938,90.28125762939453 L164.52084350585938,94.87500762939453 L165.03125,101.51042938232422 L164.52084350585938,105.08333587646484 L160.9479217529297,114.78125762939453 L158.90625,117.84375762939453 L156.3541717529297,119.88542938232422 L154.8229217529297,121.41667938232422 L153.80209350585938,121.92708587646484 L154.3125,121.92708587646484 L155.33334350585938,121.41667938232422 L159.92709350585938,118.86458587646484 L165.5416717529297,114.27083587646484 L172.17709350585938,108.14583587646484 L177.7916717529297,102.02083587646484 L181.36459350585938,96.40625762939453 L183.9166717529297,91.81250762939453 L184.9375,86.70833587646484 L184.42709350585938,81.09375762939453 L183.40625,75.98958587646484 L181.36459350585938,71.39583587646484 L179.3229217529297,67.31250762939453 L177.28125,63.22916793823242 L176.2604217529297,61.69791793823242 L175.23959350585938,59.656253814697266 L174.21875,56.593753814697266 L174.21875,56.08333206176758 L174.21875,55.062503814697266 L174.21875,54.04166793823242 L174.21875,53.531253814697266 L174.7291717529297,53.531253814697266 L176.2604217529297,57.10416793823242 L179.83334350585938,66.29167175292969 L183.9166717529297,77.01042938232422 L189.02084350585938,86.70833587646484 L193.61459350585938,98.44792938232422 L196.67709350585938,109.16667938232422 L197.69793701171875,113.25000762939453 L200.76043701171875,123.96875762939453 L201.78125,127.54167938232422 L204.33334350585938,136.7291717529297 L206.375,144.3854217529297 L207.90625,149.4895782470703 L208.92709350585938,153.0625 L209.94793701171875,156.125 L210.96875,159.1875 L211.98959350585938,162.7604217529297 L213.01043701171875,166.84376525878906 L213.52084350585938,170.9270782470703 L214.54168701171875,173.9895782470703 L215.05209350585938,176.03126525878906 L215.05209350585938,176.5416717529297 L215.5625,177.0520782470703 L215.5625,176.5416717529297 L215.5625,176.03126525878906 L215.05209350585938,173.9895782470703 L213.01043701171875,168.37501525878906 L210.45834350585938,162.7604217529297 L207.90625,156.125 L205.35418701171875,147.9583282470703 L203.3125,140.3020782470703 L201.27084350585938,132.6458282470703 L200.25,126.52083587646484 L199.73959350585938,122.43750762939453 L198.71875,114.78125762939453 L198.71875,107.63542938232422 L198.71875,102.02083587646484 L199.73959350585938,97.42708587646484 L201.27084350585938,93.85417938232422 L203.3125,90.79167938232422 L206.88543701171875,87.72917938232422 L211.47918701171875,85.68750762939453 L216.58334350585938,85.17708587646484 L221.17709350585938,86.70833587646484 L225.77084350585938,92.32292938232422 L229.34375,101.51042938232422 L229.85418701171875,107.63542938232422 L229.34375,110.18750762939453 L227.30209350585938,114.27083587646484 L224.75,117.33333587646484 L220.66668701171875,119.88542938232422 L216.58334350585938,121.41667938232422 L213.01043701171875,121.41667938232422 L211.98959350585938,121.41667938232422 L211.47918701171875,121.41667938232422 L211.47918701171875,121.41667938232422 L213.01043701171875,120.90625762939453 L219.13543701171875,119.88542938232422 L226.28125,119.37500762939453 L232.40625,118.35417938232422 L237.51043701171875,116.31250762939453 L239.55209350585938,115.29167938232422 L243.125,111.71875762939453 L246.69793701171875,102.53125762939453 L247.71875,93.85417938232422 L246.1875,85.17708587646484 L243.63543701171875,74.96875762939453 L241.08334350585938,66.29167175292969 L238.53125,59.656253814697266 L236.48959350585938,54.04166793823242 L234.44793701171875,49.44791793823242 L232.91668701171875,46.89583206176758 L232.40625,45.36458206176758 L232.40625,44.343753814697266 L232.91668701171875,46.38541793823242 L234.95834350585938,52.51041793823242 L238.02084350585938,65.27083587646484 L240.0625,72.92708587646484 L245.16668701171875,83.64583587646484 L250.27084350585938,93.85417938232422 L255.375,101.51042938232422 L259.4583435058594,106.61458587646484 L263.03125,110.18750762939453 L266.09375,112.73958587646484 L268.6458435058594,114.27083587646484 L271.19793701171875,115.29167938232422 L274.26043701171875,115.29167938232422 L277.32293701171875,114.27083587646484 L278.85418701171875,113.25000762939453 L281.40625,110.69792938232422 L284.46875,106.10417938232422 L286,99.97917938232422 L286,93.85417938232422 L284.97918701171875,87.72917938232422 L282.9375,82.11458587646484 L280.38543701171875,76.50000762939453 L278.85418701171875,72.92708587646484 L277.8333435058594,70.88542938232422 L276.3020935058594,69.35417938232422 L275.28125,68.84375762939453 L274.26043701171875,69.35417938232422 L273.2395935058594,71.39583587646484 L272.72918701171875,77.52083587646484 L273.2395935058594,85.68750762939453 L276.3020935058594,96.40625762939453 L281.91668701171875,106.10417938232422 L287.53125,112.22917938232422 L292.63543701171875,115.29167938232422 L300.29168701171875,115.80208587646484 L306.41668701171875,113.25000762939453 M380.9375,124.47917938232422 L379.91668701171875,110.69792938232422 L379.40625,107.12500762939453 L378.8958435058594,103.55208587646484 L376.85418701171875,96.91667938232422 L375.32293701171875,91.30208587646484 L374.3020935058594,87.21875762939453 L373.28125,84.66667938232422 L373.28125,83.64583587646484 L373.28125,82.62500762939453 L373.28125,82.11458587646484 L373.28125,82.62500762939453 L373.79168701171875,86.70833587646484 L375.8333435058594,96.40625762939453 L378.38543701171875,107.12500762939453 L380.4270935058594,113.25000762939453 L382.97918701171875,116.82292938232422 L387.0625,119.88542938232422 L393.1875,122.43750762939453 L397.78125,123.45833587646484 L400.84375,123.45833587646484 L402.88543701171875,122.94792938232422 L403.3958740234375,122.43750762939453 L404.41668701171875,119.37500762939453 L405.4375,114.78125762939453 L405.4375,110.18750762939453 L405.4375,106.61458587646484 L405.4375,104.57292938232422 L405.4375,103.04167938232422 L405.4375,102.02083587646484 L405.4375,101.51042938232422 L406.4583740234375,102.02083587646484 L409.01043701171875,105.08333587646484 L412.5833740234375,110.18750762939453 L417.6875,114.78125762939453 L423.8125,118.86458587646484 L426.875,120.39583587646484 L430.9583740234375,121.92708587646484 L433.51043701171875,122.43750762939453 L435.04168701171875,122.43750762939453 L436.0625,121.41667938232422 L435.04168701171875,117.33333587646484 L431.46875,109.16667938232422 L425.34375,99.46875762939453 L423.8125,96.91667938232422 L421.26043701171875,93.34375762939453 L419.72918701171875,91.30208587646484 L419.21875,90.28125762939453 L419.21875,89.26042938232422 L421.26043701171875,89.26042938232422 L423.8125,90.28125762939453 L433,93.85417938232422 L440.65625,97.93750762939453 L447.29168701171875,101.00000762939453 L453.9271240234375,102.53125762939453 L460.0521240234375,102.02083587646484 L465.15625,99.97917938232422 L469.2396240234375,96.91667938232422 L472.3021240234375,92.83333587646484 L474.85418701171875,87.21875762939453 L476.38543701171875,80.07292938232422 L476.38543701171875,73.94792938232422 L475.3646240234375,69.35417938232422 L473.32293701171875,65.78125762939453 L471.79168701171875,64.25000762939453 L468.21875,61.69791793823242 L465.15625,60.16666793823242 L462.09375,60.67708206176758 L460.0521240234375,62.718753814697266 L456.9896240234375,68.84375762939453 L455.4583740234375,75.98958587646484 L455.4583740234375,83.13542938232422 L457.5,92.32292938232422 L461.5833740234375,104.06250762939453 L465.66668701171875,111.71875762939453 L468.72918701171875,115.29167938232422 L470.7708740234375,116.31250762939453 L472.3021240234375,116.82292938232422 L475.3646240234375,116.31250762939453 L477.91668701171875,114.27083587646484 L480.97918701171875,109.16667938232422 L482.51043701171875,101.00000762939453 L482.51043701171875,93.85417938232422 L481.4896240234375,87.21875762939453 L480.97918701171875,82.62500762939453 L480.46875,79.56250762939453 L480.46875,78.03125762939453 L480.46875,77.01042938232422 L480.46875,77.52083587646484 L481.4896240234375,80.07292938232422 L484.04168701171875,84.66667938232422 L486.0833740234375,88.75000762939453 L496.8021240234375,106.61458587646484 L500.375,111.20833587646484 L506.5,118.35417938232422 L511.09375,121.92708587646484 L513.6458740234375,123.96875762939453 L517.21875,124.98958587646484 L521.3021240234375,123.96875762939453 L525.3854370117188,120.90625762939453 L529.9791870117188,109.67708587646484 L531.5104370117188,97.93750762939453 L531,88.75000762939453 L529.46875,78.54167938232422 L527.4271240234375,68.33333587646484 L526.40625,64.25000762939453 L522.3229370117188,55.062503814697266 L520.7916870117188,52.000003814697266 L518.75,47.406253814697266 L516.7083740234375,43.83333206176758 L515.6875,41.281253814697266 L514.6666870117188,39.750003814697266 L513.6458740234375,39.23958206176758 L512.625,39.750003814697266 L511.60418701171875,43.83333206176758 L510.5833740234375,47.91666793823242 L511.09375,54.04166793823242 L512.1146240234375,60.67708206176758 L514.15625,69.35417938232422 L516.1979370117188,77.52083587646484 L517.21875,81.09375762939453 L520.28125,89.26042938232422 L525.3854370117188,101.51042938232422 L531,110.69792938232422 L536.1041870117188,116.31250762939453 L540.6979370117188,119.88542938232422 L544.78125,121.41667938232422 L548.3541870117188,121.41667938232422 L551.4166870117188,118.35417938232422 L554.9896240234375,107.12500762939453 L556.5208740234375,95.89583587646484 L557.5416870117188,87.72917938232422 L559.5833740234375,81.60417938232422 L561.625,77.01042938232422 L562.6458740234375,75.47917938232422 L566.21875,73.43750762939453 L570.8125,72.92708587646484 L574.8958740234375,73.43750762939453 L577.4479370117188,74.45833587646484 L578.46875,75.47917938232422 L578.9791870117188,75.98958587646484 L578.46875,76.50000762939453 L575.9166870117188,77.52083587646484 L571.3229370117188,79.56250762939453 L566.7291870117188,82.11458587646484 L563.15625,84.15625762939453 L560.09375,88.23958587646484 L559.0729370117188,91.30208587646484 L558.5625,99.46875762939453 L560.6041870117188,107.12500762939453 L564.6875,114.78125762939453 L570.3021240234375,120.90625762939453 L576.4271240234375,125.50000762939453 L581.53125,128.0520782470703 L587.1458740234375,127.03125762939453 L593.2708740234375,122.94792938232422 L601.9479370117188,110.18750762939453 L608.0729370117188,95.89583587646484 L610.625,81.09375762939453 L610.1146240234375,66.29167175292969 L609.09375,61.187503814697266 L606.03125,52.000003814697266 L602.96875,44.85416793823242 L599.90625,39.23958206176758 L598.375,36.17708206176758 L597.3541870117188,34.13541793823242 L596.3333740234375,33.625003814697266 L595.8229370117188,34.13541793823242 L595.3125,38.218753814697266 L595.8229370117188,45.36458206176758 L596.84375,52.51041793823242 L598.375,61.187503814697266 L599.90625,68.84375762939453 L602.4583740234375,75.98958587646484 L606.03125,82.62500762939453 L608.0729370117188,86.19792938232422 L612.15625,94.87500762939453 L615.7291870117188,105.08333587646484 L617.2604370117188,111.20833587646484 L618.28125,114.78125762939453 L618.7916870117188,115.80208587646484 L618.7916870117188,116.31250762939453 L618.7916870117188,115.80208587646484 L618.7916870117188,112.73958587646484 L618.7916870117188,107.12500762939453 L619.8125,102.02083587646484 L620.3229370117188,98.44792938232422 L621.34375,96.91667938232422 L622.3646240234375,95.89583587646484 L622.875,95.38542938232422 L624.40625,95.89583587646484 L627.9791870117188,102.53125762939453 L633.59375,111.71875762939453 L639.2083740234375,117.33333587646484 L644.8229370117188,120.90625762939453 L649.9271240234375,122.43750762939453 L654.5208740234375,122.94792938232422 L659.625,121.41667938232422 L664.7291870117188,117.84375762939453 L671.875,107.63542938232422 L675.9583740234375,97.42708587646484 L677.4896240234375,88.75000762939453 L678,82.11458587646484 L677.4896240234375,76.50000762939453 L677.4896240234375,74.96875762939453 M494.25,84.66667938232422 L510.07293701171875,80.58333587646484 L520.28125,74.45833587646484 L528.9583740234375,68.84375762939453 L535.59375,64.76042175292969 L540.6979370117188,62.20833206176758 L543.7604370117188,61.187503814697266 L549.8854370117188,59.656253814697266 L556.5208740234375,59.14583206176758 L563.15625,58.125003814697266 L568.2604370117188,58.125003814697266 " fill="none" stroke="blue" stroke-width="1"/> 
            </svg>