<?xml version="1.0" standalone="no"?>
<svg id="svg1" baseProfile="full" height="200" width="800" version="1.1" xmlns="http://www.w3.org/2000/svg" xmlns:ev="http://www.w3.org/2001/xml-events" xmlns:xlink="http://www.w3.org/1999/xlink" onmousedown="mouseDown(evt)" onmouseup="mouseUp(evt)" onmousemove="mouseMove(evt)" ontouchstart="mouseDown(evt)" ontouchmove="mouseMove(evt)" ontouchend="mouseUp(evt)">
                <script type="text/JavaScript">
                    
                        var svg = document.getElementById("svg1");
                        var pt = svg.createSVGPoint();
                        isDrawing = false;
                        start = 0;
                        sp = null;
                        function alert_coords(evt) {
                            if(evt.targetTouches) {
                                // Prefer Touch Events
                                pt.x = evt.targetTouches[0].clientX;
                                pt.y = evt.targetTouches[0].clientY;
                            } else {
                                pt.x = evt.clientX;
                                pt.y = evt.clientY;
                            }
                            // The cursor point, translated into svg coordinates
                            var point =  pt.matrixTransform(svg.getScreenCTM().inverse());
                            return point;
                        }
                        function mouseDown(evt) {
                            point = alert_coords(evt);
                            isDrawing = true;
                            var path = document.getElementById("path1");
                            var d = path.getAttributeNS(null, "d") + "M"+ point.x + "," + point.y+ " ";
                            path.setAttributeNS(null, "d", d);
                        }
                        function mouseUp(evt) {
                            if (isDrawing === true) {
                                point = alert_coords(evt);
                                var path = document.getElementById("path1");
                                var d = path.getAttributeNS(null, "d") + "M"+ point.x + "," + point.y+ " ";
                                path.setAttributeNS(null, "d", d);
                                isDrawing = false;
                            }
                        }
                        function mouseMove(evt) {
                            if (isDrawing === true) {
                                point = alert_coords(evt);
                                var path = document.getElementById("path1");
                                x = point.x;
                                y = point.y ;
                                var d = path.getAttributeNS(null, "d") + "L"+ x + "," + y + " ";
                                path.setAttributeNS(null, "d", d);
                            }
                        }
                    
                </script>
                <rect id="rect1" fill="white" height="200" width="800" stroke="black" x="0" y="0"/>
                <path id="path1" d="M157.375,10.145833015441895 L157,9.333333015441895 M157,9.333333015441895 M157,9.333333015441895 M29.770835876464844,125.50000762939453 L30.28125,140.3020782470703 L30.791667938232422,144.8958282470703 L31.8125,148.46875 L32.32291793823242,151.0208282470703 L32.32291793823242,152.0416717529297 L33.85416793823242,152.5520782470703 L34.364585876464844,152.5520782470703 L35.38541793823242,150 L37.427085876464844,138.7708282470703 L39.46875,127.03125762939453 L41.51042175292969,117.33333587646484 L42.53125,107.12500762939453 L43.552085876464844,97.93750762939453 L45.59375,89.26042938232422 L48.65625,79.05208587646484 L50.1875,71.90625762939453 L51.208335876464844,66.80208587646484 L51.71875,63.73958206176758 L52.22917175292969,62.20833206176758 L52.22917175292969,59.14583206176758 L52.739585876464844,58.63541793823242 L52.739585876464844,57.61458206176758 L53.25,56.593753814697266 L53.25,55.57291793823242 L54.270835876464844,55.062503814697266 L54.270835876464844,57.10416793823242 L54.78125,62.20833206176758 L55.802085876464844,70.37500762939453 L57.333335876464844,78.54167938232422 L58.864585876464844,86.70833587646484 L60.90625,96.40625762939453 L61.927085876464844,101.51042938232422 L64.47917175292969,108.65625762939453 L66.52083587646484,112.73958587646484 L68.5625,115.29167938232422 L70.60417175292969,116.31250762939453 L72.13542175292969,116.31250762939453 L74.17708587646484,116.31250762939453 L77.23958587646484,114.27083587646484 L81.83333587646484,107.63542938232422 L85.91667175292969,99.46875762939453 L88.97917175292969,92.83333587646484 L92.04167175292969,86.19792938232422 L94.08334350585938,78.03125762939453 L95.61459350585938,71.39583587646484 L96.63542175292969,68.84375762939453 L97.65625,65.27083587646484 L97.65625,63.22916793823242 L98.16667175292969,62.20833206176758 L98.16667175292969,61.69791793823242 L98.67709350585938,63.73958206176758 L98.67709350585938,69.35417938232422 L98.67709350585938,77.52083587646484 L98.67709350585938,85.68750762939453 L97.65625,97.42708587646484 L96.63542175292969,108.65625762939453 L95.61459350585938,116.31250762939453 L94.59375,124.98958587646484 L93.57292175292969,133.6666717529297 L93.0625,137.75 L93.0625,144.3854217529297 L93.0625,148.9791717529297 L94.08334350585938,152.0416717529297 L95.10417175292969,154.0833282470703 L96.63542175292969,155.1041717529297 L99.1875,156.125 L103.27084350585938,156.125 L108.375,154.59375 L114.5,151.0208282470703 L119.60417175292969,146.4270782470703 L124.70834350585938,139.7916717529297 L128.28125,132.6458282470703 L131.34375,127.03125762939453 L132.875,124.47917938232422 L134.9166717529297,118.86458587646484 L135.9375,114.78125762939453 L136.95834350585938,111.71875762939453 L137.46875,110.69792938232422 L137.46875,107.63542938232422 L136.95834350585938,106.61458587646484 L135.9375,106.10417938232422 L133.3854217529297,106.61458587646484 L130.3229217529297,109.16667938232422 L126.23959350585938,113.76042938232422 L122.66667175292969,118.86458587646484 L120.11459350585938,124.47917938232422 L119.09375,127.54167938232422 L118.58334350585938,136.7291717529297 L119.09375,139.28125 L120.11459350585938,143.875 L122.15625,146.9375 L124.19792175292969,148.46875 L126.23959350585938,148.9791717529297 L128.28125,147.9583282470703 L131.8541717529297,143.875 L135.42709350585938,136.7291717529297 L137.9791717529297,130.09375 L139,125.50000762939453 L139.5104217529297,121.92708587646484 L139.5104217529297,119.37500762939453 L139.5104217529297,118.35417938232422 L139.5104217529297,116.82292938232422 L139.5104217529297,115.80208587646484 L139.5104217529297,116.31250762939453 L139,117.84375762939453 L137.9791717529297,122.94792938232422 L136.95834350585938,131.1145782470703 L136.95834350585938,139.28125 L137.9791717529297,146.4270782470703 L140.02084350585938,152.0416717529297 L142.0625,155.6145782470703 L144.1041717529297,157.1458282470703 L146.14584350585938,157.1458282470703 L148.6979217529297,156.6354217529297 L152.27084350585938,153.0625 L154.8229217529297,148.46875 L158.90625,137.75 L161.96875,127.54167938232422 L164.0104217529297,117.33333587646484 L165.5416717529297,107.12500762939453 L166.5625,97.93750762939453 L167.58334350585938,91.81250762939453 L168.09375,85.17708587646484 L168.6041717529297,80.07292938232422 L168.6041717529297,76.50000762939453 L168.6041717529297,74.96875762939453 L168.6041717529297,73.94792938232422 L168.09375,74.96875762939453 L167.58334350585938,77.01042938232422 L167.0729217529297,79.05208587646484 L165.5416717529297,85.17708587646484 L163.5,94.36458587646484 L161.45834350585938,103.55208587646484 L160.4375,111.71875762939453 L159.4166717529297,116.82292938232422 L158.90625,121.92708587646484 L159.4166717529297,128.5625 L160.4375,134.6875 L161.96875,140.3020782470703 L164.0104217529297,144.8958282470703 L166.05209350585938,148.46875 L166.5625,149.4895782470703 L167.58334350585938,150.5104217529297 L169.625,151.53125 L171.6666717529297,152.0416717529297 L173.70834350585938,152.0416717529297 L176.77084350585938,151.0208282470703 L180.8541717529297,148.46875 L184.9375,142.34375 L188.51043701171875,135.7083282470703 L191.57293701171875,130.09375 L193.61459350585938,126.01042938232422 L195.14584350585938,121.92708587646484 L195.65625,118.35417938232422 L195.65625,115.80208587646484 L195.65625,114.78125762939453 L194.125,113.25000762939453 L192.59375,113.25000762939453 L190.04168701171875,114.27083587646484 L187.48959350585938,116.31250762939453 L186.46875,118.86458587646484 L185.95834350585938,121.92708587646484 L186.9791717529297,124.98958587646484 L189.53125,127.03125762939453 L193.10418701171875,128.5625 L197.1875,128.5625 L201.27084350585938,127.54167938232422 L205.86459350585938,125.50000762939453 L207.90625,123.96875762939453 L211.98959350585938,121.41667938232422 L215.5625,118.86458587646484 L218.11459350585938,116.82292938232422 L219.13543701171875,115.80208587646484 L220.66668701171875,114.27083587646484 L221.6875,113.76042938232422 L221.6875,114.27083587646484 L221.17709350585938,116.31250762939453 L219.13543701171875,119.88542938232422 L216.58334350585938,125.50000762939453 L215.05209350585938,131.625 L214.54168701171875,137.2395782470703 L216.07293701171875,142.34375 L217.09375,144.3854217529297 L220.15625,148.9791717529297 L222.19793701171875,151.53125 L224.23959350585938,152.5520782470703 L226.28125,153.0625 L229.85418701171875,152.5520782470703 L233.42709350585938,150 L237,145.9166717529297 L241.08334350585938,140.8125 L245.16668701171875,135.7083282470703 L248.22918701171875,131.1145782470703 L250.27084350585938,127.03125762939453 L252.3125,124.47917938232422 L253.84375,121.92708587646484 L254.35418701171875,120.90625762939453 L255.375,119.37500762939453 L255.375,118.35417938232422 L254.86459350585938,118.35417938232422 L253.33334350585938,118.86458587646484 L251.29168701171875,120.90625762939453 L248.73959350585938,124.47917938232422 L246.1875,130.6041717529297 L245.67709350585938,137.75 L246.69793701171875,144.8958282470703 L248.73959350585938,148.9791717529297 L250.78125,151.53125 L252.82293701171875,152.5520782470703 L254.35418701171875,153.0625 L257.9270935058594,152.5520782470703 L263.03125,147.4479217529297 L265.07293701171875,144.3854217529297 L269.15625,137.75 L272.72918701171875,131.625 L276.3020935058594,127.03125762939453 L279.875,123.45833587646484 L283.9583435058594,120.90625762939453 L287.53125,119.37500762939453 L290.59375,118.86458587646484 L292.63543701171875,119.37500762939453 L295.1875,122.94792938232422 L296.2083435058594,126.01042938232422 L295.1875,138.2604217529297 L291.10418701171875,145.40625 L289.57293701171875,147.4479217529297 L286.51043701171875,150.5104217529297 L284.97918701171875,152.0416717529297 L284.46875,152.5520782470703 L284.97918701171875,152.0416717529297 L286,151.53125 L289.57293701171875,147.9583282470703 L295.69793701171875,141.8333282470703 L301.3125,134.1770782470703 L305.90625,128.5625 L309.47918701171875,123.96875762939453 L312.03125,120.90625762939453 L314.07293701171875,118.86458587646484 L315.09375,117.84375762939453 L315.60418701171875,117.33333587646484 L315.60418701171875,116.31250762939453 L313.5625,117.33333587646484 L308.4583435058594,121.41667938232422 L301.82293701171875,129.0729217529297 L296.2083435058594,137.2395782470703 L293.65625,143.875 L293.1458435058594,147.9583282470703 L295.69793701171875,151.0208282470703 L301.3125,153.0625 L310.5,154.0833282470703 L322.75,153.0625 L324.79168701171875,152.5520782470703 M255.88543701171875,80.58333587646484 L250.78125,91.81250762939453 L250.27084350585938,95.38542938232422 L250.78125,97.93750762939453 L252.3125,99.46875762939453 L254.35418701171875,101.00000762939453 L256.90625,102.02083587646484 L260.47918701171875,102.53125762939453 L262.01043701171875,102.02083587646484 L265.07293701171875,99.97917938232422 L268.13543701171875,97.42708587646484 L270.1770935058594,94.36458587646484 L271.19793701171875,91.30208587646484 L271.7083435058594,87.72917938232422 L271.7083435058594,83.64583587646484 L270.6875,79.56250762939453 L268.6458435058594,75.98958587646484 L264.5625,72.92708587646484 L256.90625,71.90625762939453 L249.76043701171875,72.92708587646484 L244.65625,77.52083587646484 L241.59375,82.11458587646484 L240.0625,88.23958587646484 M134.40625,104.06250762939453 L150.2291717529297,102.53125762939453 L161.96875,98.95833587646484 L168.09375,96.91667938232422 L179.3229217529297,93.34375762939453 L188.51043701171875,90.79167938232422 L193.61459350585938,89.77083587646484 M368.1770935058594,131.625 L383.4895935058594,115.80208587646484 L390.63543701171875,108.14583587646484 L395.22918701171875,103.55208587646484 L399.82293701171875,101.00000762939453 L401.8646240234375,99.97917938232422 L405.94793701171875,99.46875762939453 L409.01043701171875,99.97917938232422 L411.0521240234375,101.00000762939453 L412.07293701171875,101.00000762939453 L413.09375,101.51042938232422 L414.1146240234375,101.51042938232422 L414.1146240234375,101.51042938232422 L413.60418701171875,101.51042938232422 L411.0521240234375,101.51042938232422 L407.47918701171875,101.51042938232422 L402.88543701171875,101.51042938232422 L400.3333740234375,102.02083587646484 L392.6771240234375,106.61458587646484 L390.63543701171875,108.14583587646484 L386.5521240234375,112.73958587646484 L384,117.84375762939453 L382.46875,124.98958587646484 L382.46875,133.15625 L384,141.3229217529297 L386.5521240234375,146.9375 L390.125,151.0208282470703 L394.71875,154.0833282470703 L399.82293701171875,156.6354217529297 L404.41668701171875,156.6354217529297 L408.5,155.6145782470703 L410.03125,154.59375 L414.1146240234375,151.53125 L418.7083740234375,145.40625 L422.79168701171875,137.75 L426.3646240234375,131.625 L429.9375,126.52083587646484 L433.51043701171875,122.43750762939453 L437.59375,118.35417938232422 L441.16668701171875,114.78125762939453 L444.7396240234375,111.71875762939453 L448.3125,109.67708587646484 L451.375,108.14583587646484 L453.41668701171875,107.12500762939453 L454.94793701171875,106.61458587646484 L455.4583740234375,106.61458587646484 L455.96875,106.61458587646484 L455.4583740234375,106.61458587646484 L454.4375,107.12500762939453 L452.90625,107.63542938232422 L449.84375,108.65625762939453 L445.76043701171875,110.18750762939453 L441.6771240234375,112.22917938232422 L437.59375,115.29167938232422 L434.53125,118.35417938232422 L431.46875,121.92708587646484 L428.40625,128.0520782470703 L426.875,136.7291717529297 L426.875,140.3020782470703 L426.875,146.4270782470703 L427.8958740234375,150 L428.91668701171875,152.5520782470703 L430.9583740234375,153.0625 L434.0208740234375,153.0625 L438.10418701171875,152.0416717529297 L441.6771240234375,149.4895782470703 L444.7396240234375,145.40625 L447.8021240234375,140.3020782470703 L450.8646240234375,135.7083282470703 L453.9271240234375,131.1145782470703 L456.9896240234375,127.03125762939453 L459.03125,123.96875762939453 L460.0521240234375,121.41667938232422 L460.5625,120.39583587646484 L460.5625,119.37500762939453 L460.5625,118.35417938232422 L460.5625,118.86458587646484 L460.0521240234375,120.90625762939453 L459.03125,126.01042938232422 L458.5208740234375,134.1770782470703 L460.5625,141.8333282470703 L462.60418701171875,147.4479217529297 L464.6458740234375,150.5104217529297 L466.1771240234375,151.53125 L468.72918701171875,152.0416717529297 L472.3021240234375,151.53125 L473.8333740234375,150.5104217529297 L477.40625,146.9375 L482,138.7708282470703 L485.57293701171875,129.5833282470703 L489.1458740234375,118.35417938232422 L492.2083740234375,107.63542938232422 L494.76043701171875,97.93750762939453 L496.8021240234375,89.26042938232422 L498.3333740234375,81.60417938232422 L498.84375,75.47917938232422 L498.84375,70.88542938232422 L498.84375,68.33333587646484 L498.84375,66.80208587646484 L498.84375,66.29167175292969 L498.3333740234375,66.80208587646484 L497.3125,68.84375762939453 L495.2708740234375,75.47917938232422 L493.22918701171875,83.64583587646484 L491.1875,95.38542938232422 L490.6771240234375,108.14583587646484 L490.6771240234375,118.35417938232422 L490.6771240234375,127.54167938232422 L491.1875,133.6666717529297 L492.2083740234375,138.2604217529297 L494.25,141.8333282470703 L495.2708740234375,143.875 L495.78125,144.3854217529297 L496.8021240234375,145.40625 L497.82293701171875,145.40625 L499.8646240234375,144.8958282470703 L502.9271240234375,141.8333282470703 L507.01043701171875,134.6875 L511.09375,127.54167938232422 L515.1771240234375,121.41667938232422 L518.75,115.80208587646484 L521.8125,112.22917938232422 L525.8958740234375,109.16667938232422 L529.9791870117188,107.63542938232422 L533.0416870117188,107.63542938232422 L536.1041870117188,107.63542938232422 L538.1458740234375,108.14583587646484 L539.1666870117188,108.65625762939453 L540.1875,109.67708587646484 L541.2083740234375,110.69792938232422 L540.6979370117188,110.69792938232422 L540.1875,110.69792938232422 L539.1666870117188,110.69792938232422 L535.59375,110.69792938232422 L531,110.69792938232422 L526.40625,111.20833587646484 L523.34375,112.73958587646484 L520.7916870117188,114.78125762939453 L518.75,117.84375762939453 L516.7083740234375,123.45833587646484 L515.6875,131.625 L515.6875,136.21875 L517.21875,145.9166717529297 L518.75,152.5520782470703 L520.7916870117188,157.1458282470703 L523.34375,158.6770782470703 L527.9375,158.1666717529297 L534.0625,156.125 L539.6771240234375,153.0625 L543.7604370117188,150 L547.84375,145.9166717529297 L552.4375,140.3020782470703 L556.0104370117188,134.6875 L559.5833740234375,129.0729217529297 L561.1146240234375,126.52083587646484 L564.1771240234375,122.43750762939453 L566.21875,117.84375762939453 L567.75,114.27083587646484 L568.2604370117188,111.71875762939453 L568.2604370117188,110.18750762939453 L568.2604370117188,109.16667938232422 L568.2604370117188,108.65625762939453 L567.75,110.18750762939453 L566.7291870117188,114.27083587646484 L565.7083740234375,120.39583587646484 L564.6875,128.5625 L564.6875,133.15625 L566.7291870117188,143.875 L567.75,145.9166717529297 L569.7916870117188,148.9791717529297 L570.8125,150.5104217529297 L572.8541870117188,150.5104217529297 L576.4271240234375,150 L580,147.4479217529297 L583.5729370117188,143.3645782470703 L587.65625,138.7708282470703 L590.71875,134.1770782470703 L592.7604370117188,130.09375 L594.8021240234375,126.01042938232422 L596.84375,121.92708587646484 L598.375,118.86458587646484 L598.8854370117188,117.84375762939453 L599.3958740234375,115.80208587646484 L599.3958740234375,115.29167938232422 L599.3958740234375,114.78125762939453 L599.3958740234375,115.29167938232422 L598.375,117.33333587646484 L597.3541870117188,122.94792938232422 L596.84375,130.09375 L597.3541870117188,137.2395782470703 L599.3958740234375,143.3645782470703 L601.4375,147.4479217529297 L603.4791870117188,149.4895782470703 L605.5208740234375,150.5104217529297 L608.0729370117188,151.0208282470703 L611.1354370117188,150.5104217529297 L612.6666870117188,148.9791717529297 L618.28125,137.75 L620.3229370117188,132.6458282470703 L623.8958740234375,123.96875762939453 L627.46875,113.76042938232422 L631.5521240234375,103.04167938232422 L634.6146240234375,94.36458587646484 L637.1666870117188,87.72917938232422 L638.1875,82.11458587646484 L638.1875,78.03125762939453 L638.1875,74.96875762939453 L638.1875,72.92708587646484 L638.1875,71.39583587646484 L638.1875,70.88542938232422 L638.1875,69.86458587646484 L638.1875,68.84375762939453 L638.1875,68.33333587646484 L637.1666870117188,68.84375762939453 L635.125,72.92708587646484 L632.5729370117188,80.58333587646484 L630.0208740234375,91.30208587646484 L628.4896240234375,103.04167938232422 L628.4896240234375,113.76042938232422 L629,121.41667938232422 L629.5104370117188,128.5625 L630.0208740234375,134.1770782470703 L631.0416870117188,138.7708282470703 L631.5521240234375,140.3020782470703 L633.0833740234375,142.8541717529297 L634.1041870117188,143.875 L636.1458740234375,143.875 L639.71875,143.3645782470703 L643.8021240234375,140.8125 L647.8854370117188,136.7291717529297 L652.4791870117188,131.1145782470703 L656.0521240234375,127.03125762939453 L659.625,122.94792938232422 L663.1979370117188,117.33333587646484 L666.2604370117188,112.22917938232422 L668.3021240234375,108.14583587646484 L669.3229370117188,106.10417938232422 L669.8333740234375,105.59375762939453 L670.34375,104.57292938232422 L670.34375,105.08333587646484 L669.8333740234375,106.61458587646484 L668.3021240234375,111.20833587646484 L666.7708740234375,116.82292938232422 L665.75,123.96875762939453 L665.2396240234375,130.09375 L665.2396240234375,134.6875 L666.2604370117188,138.2604217529297 L668.3021240234375,140.8125 L670.8541870117188,142.34375 L674.4271240234375,142.8541717529297 L676.9791870117188,142.8541717529297 L681.0625,141.3229217529297 L684.125,138.7708282470703 L687.1875,134.6875 L690.25,130.6041717529297 L692.2916870117188,126.52083587646484 L694.3333740234375,122.94792938232422 L695.8646240234375,119.37500762939453 L696.8854370117188,117.33333587646484 L696.8854370117188,115.29167938232422 L696.8854370117188,114.27083587646484 L696.8854370117188,113.25000762939453 L696.8854370117188,113.76042938232422 L697.3958740234375,115.29167938232422 L697.3958740234375,122.94792938232422 L697.90625,126.52083587646484 L698.9271240234375,133.15625 L699.9479370117188,137.75 L700.96875,141.3229217529297 L702.5,142.8541717529297 L704.5416870117188,143.875 L708.1146240234375,143.3645782470703 L713.21875,139.7916717529297 L718.8333740234375,135.1979217529297 L723.9375,130.09375 L729.5521240234375,124.47917938232422 L734.1458740234375,119.37500762939453 L737.71875,113.25000762939453 L739.25,109.67708587646484 L740.2708740234375,104.57292938232422 L740.2708740234375,100.48958587646484 L739.25,97.93750762939453 L738.2291870117188,95.89583587646484 L735.1666870117188,93.85417938232422 L732.1041870117188,93.34375762939453 L729.5521240234375,93.85417938232422 L728.53125,94.87500762939453 L728.0208740234375,95.89583587646484 L728.0208740234375,97.42708587646484 L729.5521240234375,99.97917938232422 L733.125,103.04167938232422 L736.1875,105.59375762939453 L742.3125,110.69792938232422 L747.9271240234375,114.78125762939453 L751.5,119.37500762939453 L754.0521240234375,125.50000762939453 L754.5625,131.1145782470703 L753.03125,136.21875 L750.4791870117188,140.8125 L747.9271240234375,143.3645782470703 L744.3541870117188,144.8958282470703 L740.2708740234375,144.8958282470703 L737.2083740234375,143.875 L734.1458740234375,141.8333282470703 L732.6146240234375,140.8125 L731.0833740234375,138.7708282470703 L730.0625,136.7291717529297 L729.0416870117188,134.6875 L729.0416870117188,133.15625 L729.0416870117188,132.1354217529297 L729.5521240234375,136.21875 L731.59375,142.8541717529297 L734.65625,148.46875 L737.71875,152.5520782470703 L741.2916870117188,157.1458282470703 L746.3958740234375,161.7395782470703 L754.0521240234375,167.8645782470703 L757.625,171.9479217529297 L760.6875,175.5208282470703 " fill="none" stroke="blue" stroke-width="1"/> 
            </svg>