<?xml version="1.0" standalone="no"?>
<svg id="svg1" baseProfile="full" height="200" width="100%" version="1.1" xmlns="http://www.w3.org/2000/svg" xmlns:ev="http://www.w3.org/2001/xml-events" xmlns:xlink="http://www.w3.org/1999/xlink" onmousedown="mouseDown(evt)" onmouseup="mouseUp(evt)" onmousemove="mouseMove(evt)" ontouchstart="mouseDown(evt)" ontouchmove="mouseMove(evt)" ontouchend="mouseUp(evt)">
                <script type="text/JavaScript">
                    
                        var svg = document.getElementById("svg1");
                        var pt = svg.createSVGPoint();
                        isDrawing = false;
                        start = 0;
                        sp = null;
                        function alert_coords(evt) {
                            if(evt.targetTouches) {
                                // Prefer Touch Events
                                pt.x = evt.targetTouches[0].clientX;
                                pt.y = evt.targetTouches[0].clientY;
                            } else {
                                pt.x = evt.clientX;
                                pt.y = evt.clientY;
                            }
                            // The cursor point, translated into svg coordinates
                            var point =  pt.matrixTransform(svg.getScreenCTM().inverse());
                            return point;
                        }
                        function mouseDown(evt) {
                            point = alert_coords(evt);
                            isDrawing = true;
                            var path = document.getElementById("path1");
                            var d = path.getAttributeNS(null, "d") + "M"+ point.x + "," + point.y+ " ";
                            path.setAttributeNS(null, "d", d);
                        }
                        function mouseUp(evt) {
                            if (isDrawing === true) {
                                point = alert_coords(evt);
                                var path = document.getElementById("path1");
                                var d = path.getAttributeNS(null, "d") + "M"+ point.x + "," + point.y+ " ";
                                path.setAttributeNS(null, "d", d);
                                isDrawing = false;
                            }
                        }
                        function mouseMove(evt) {
                            if (isDrawing === true) {
                                point = alert_coords(evt);
                                var path = document.getElementById("path1");
                                x = point.x;
                                y = point.y ;
                                var d = path.getAttributeNS(null, "d") + "L"+ x + "," + y + " ";
                                path.setAttributeNS(null, "d", d);
                            }
                        }
                    
                </script>
                <rect id="rect1" fill="white" height="200" width="100%" stroke="black" x="0" y="0"/>
                <path id="path1" d="M55.29167175292969,76.50000762939453 L60.395835876464844,64.25000762939453 L61.41667175292969,61.187503814697266 L61.927085876464844,58.125003814697266 L61.927085876464844,53.02083206176758 L61.927085876464844,49.44791793823242 L61.927085876464844,47.91666793823242 L60.90625,45.875003814697266 L57.84375,45.36458206176758 L52.22917175292969,46.89583206176758 L45.083335876464844,50.468753814697266 L38.44791793823242,56.593753814697266 L32.833335876464844,65.27083587646484 L29.260417938232422,73.94792938232422 L26.708335876464844,81.09375762939453 L24.15625,89.26042938232422 L22.625,101.00000762939453 L22.114585876464844,106.61458587646484 L21.604167938232422,116.82292938232422 L21.604167938232422,119.37500762939453 L22.114585876464844,123.96875762939453 L23.135417938232422,128.5625 L24.15625,132.6458282470703 L25.6875,135.7083282470703 L26.708335876464844,136.7291717529297 L28.239585876464844,136.7291717529297 L30.791667938232422,136.21875 L34.875,133.6666717529297 L39.97916793823242,129.5833282470703 L45.083335876464844,125.50000762939453 L47.125,123.45833587646484 L52.22917175292969,118.35417938232422 L53.25,116.82292938232422 L54.78125,113.76042938232422 L55.802085876464844,111.71875762939453 L55.802085876464844,110.69792938232422 L54.78125,109.67708587646484 L51.71875,110.18750762939453 L48.65625,111.20833587646484 L46.10417175292969,112.73958587646484 L44.57292175292969,113.76042938232422 L43.552085876464844,114.78125762939453 L43.552085876464844,115.29167938232422 L44.0625,115.29167938232422 L49.16667175292969,114.78125762939453 L51.71875,113.76042938232422 L57.333335876464844,111.71875762939453 L62.94792175292969,109.16667938232422 L68.5625,107.12500762939453 L73.15625,105.08333587646484 L77.23958587646484,103.04167938232422 L79.79167175292969,102.02083587646484 L81.83333587646484,101.00000762939453 L83.36458587646484,100.48958587646484 L84.38542175292969,99.97917938232422 L84.89583587646484,99.97917938232422 L85.91667175292969,99.97917938232422 L86.42708587646484,99.97917938232422 L86.42708587646484,101.00000762939453 L85.40625,102.53125762939453 L84.38542175292969,104.06250762939453 L83.36458587646484,105.08333587646484 L82.34375,106.61458587646484 L81.32292175292969,107.63542938232422 L81.32292175292969,108.65625762939453 L81.32292175292969,109.16667938232422 L81.32292175292969,109.67708587646484 L80.8125,110.18750762939453 L79.79167175292969,111.71875762939453 L78.77083587646484,113.25000762939453 L76.72917175292969,116.31250762939453 L74.6875,119.88542938232422 L72.64583587646484,125.50000762939453 L70.09375,132.6458282470703 L67.54167175292969,139.7916717529297 L65.5,145.9166717529297 L63.458335876464844,150.5104217529297 L61.41667175292969,154.59375 L59.88542175292969,161.2291717529297 L59.88542175292969,166.3333282470703 M125.72917175292969,91.30208587646484 L113.98959350585938,105.59375762939453 L112.45834350585938,108.14583587646484 L110.92709350585938,110.18750762939453 L108.375,114.27083587646484 L106.33334350585938,118.86458587646484 L105.3125,122.43750762939453 L105.3125,125.50000762939453 L105.3125,127.54167938232422 L105.82292175292969,128.0520782470703 L107.35417175292969,130.09375 L107.86459350585938,130.6041717529297 L109.39584350585938,131.625 L111.4375,132.1354217529297 L113.47917175292969,132.1354217529297 L116.54167175292969,131.625 L119.60417175292969,130.09375 L122.15625,128.0520782470703 L124.19792175292969,126.01042938232422 L126.75,122.43750762939453 L128.7916717529297,117.84375762939453 L130.3229217529297,112.73958587646484 L131.34375,108.65625762939453 L131.34375,105.08333587646484 L131.34375,103.04167938232422 L130.3229217529297,98.44792938232422 L129.30209350585938,95.89583587646484 L128.28125,94.36458587646484 L125.21875,92.32292938232422 L121.64584350585938,90.79167938232422 L118.07292175292969,90.28125762939453 L115.01042175292969,90.79167938232422 L111.94792175292969,92.32292938232422 L109.90625,94.87500762939453 L108.375,98.44792938232422 L108.375,102.02083587646484 L109.90625,103.55208587646484 L113.98959350585938,104.57292938232422 L120.11459350585938,103.55208587646484 L124.19792175292969,102.02083587646484 L126.23959350585938,101.00000762939453 M168.6041717529297,91.30208587646484 L154.3125,107.12500762939453 L152.78125,109.16667938232422 L149.71875,114.27083587646484 L147.67709350585938,118.35417938232422 L146.65625,122.43750762939453 L146.65625,126.01042938232422 L147.67709350585938,129.0729217529297 L149.20834350585938,130.6041717529297 L151.25,131.625 L153.80209350585938,132.6458282470703 L156.86459350585938,132.6458282470703 L160.4375,131.1145782470703 L163.5,129.0729217529297 L165.03125,128.0520782470703 L167.58334350585938,125.50000762939453 L170.1354217529297,122.43750762939453 L172.17709350585938,118.86458587646484 L174.21875,114.78125762939453 L175.23959350585938,110.69792938232422 L175.23959350585938,107.12500762939453 L175.23959350585938,104.57292938232422 L174.7291717529297,102.53125762939453 L173.1979217529297,101.00000762939453 L170.64584350585938,100.48958587646484 L167.0729217529297,101.00000762939453 L162.98959350585938,102.02083587646484 L159.92709350585938,104.06250762939453 L157.375,105.59375762939453 L156.86459350585938,106.10417938232422 L156.3541717529297,107.63542938232422 L156.86459350585938,109.16667938232422 L158.90625,110.18750762939453 L162.98959350585938,111.20833587646484 L169.11459350585938,111.20833587646484 M227.8125,102.02083587646484 L214.54168701171875,106.10417938232422 L210.45834350585938,109.16667938232422 L207.39584350585938,112.22917938232422 L204.33334350585938,115.29167938232422 L201.78125,118.35417938232422 L199.73959350585938,121.41667938232422 L198.71875,124.47917938232422 L198.71875,127.03125762939453 L199.73959350585938,127.54167938232422 L200.76043701171875,127.54167938232422 L204.33334350585938,126.52083587646484 L208.41668701171875,124.47917938232422 L212.5,121.41667938232422 L215.5625,117.84375762939453 L218.11459350585938,114.27083587646484 L219.64584350585938,111.71875762939453 L220.66668701171875,109.67708587646484 L220.66668701171875,108.65625762939453 L220.66668701171875,107.63542938232422 L220.66668701171875,107.12500762939453 L220.66668701171875,107.12500762939453 L220.66668701171875,107.63542938232422 L220.15625,108.14583587646484 L219.13543701171875,110.69792938232422 L218.11459350585938,113.25000762939453 L217.09375,117.33333587646484 L215.5625,122.94792938232422 L213.52084350585938,131.625 L210.96875,140.8125 L208.92709350585938,147.4479217529297 L206.88543701171875,153.0625 L204.84375,160.2083282470703 L202.80209350585938,167.3541717529297 L200.25,173.9895782470703 L197.69793701171875,179.09376525878906 L196.16668701171875,181.6458282470703 L192.59375,186.75001525878906 L189.53125,188.7916717529297 L188,189.81251525878906 L184.9375,190.8333282470703 L181.875,191.34376525878906 L177.7916717529297,191.34376525878906 L174.7291717529297,190.3229217529297 L171.6666717529297,189.3020782470703 L169.625,187.2604217529297 L167.58334350585938,184.1979217529297 L164.52084350585938,179.6041717529297 L162.4791717529297,173.9895782470703 L160.9479217529297,168.37501525878906 L160.9479217529297,163.78125 L161.45834350585938,161.7395782470703 L163.5,157.1458282470703 L168.6041717529297,152.5520782470703 L179.83334350585938,147.9583282470703 L191.0625,146.4270782470703 L204.84375,147.9583282470703 L221.17709350585938,152.5520782470703 L235.46875,166.84376525878906 M254.86459350585938,65.78125762939453 L255.88543701171875,79.56250762939453 L255.88543701171875,84.66667938232422 L254.86459350585938,90.28125762939453 L253.33334350585938,97.42708587646484 L251.29168701171875,105.08333587646484 L250.78125,107.12500762939453 L249.76043701171875,111.20833587646484 L248.73959350585938,114.27083587646484 L247.71875,117.33333587646484 L246.69793701171875,120.39583587646484 L245.67709350585938,123.45833587646484 L244.65625,126.52083587646484 L243.63543701171875,129.5833282470703 L243.125,131.625 L242.61459350585938,133.15625 L242.10418701171875,134.6875 L242.10418701171875,135.7083282470703 L242.10418701171875,136.7291717529297 L242.10418701171875,137.2395782470703 L242.10418701171875,138.2604217529297 L243.125,138.2604217529297 L246.1875,139.28125 L251.29168701171875,140.3020782470703 M291.10418701171875,111.20833587646484 L298.25,98.44792938232422 L298.76043701171875,95.89583587646484 L298.76043701171875,95.38542938232422 L298.76043701171875,94.87500762939453 L297.7395935058594,93.85417938232422 L295.69793701171875,93.85417938232422 L292.63543701171875,94.36458587646484 L289.57293701171875,95.89583587646484 L286.51043701171875,98.44792938232422 L283.44793701171875,101.51042938232422 L280.38543701171875,105.59375762939453 L278.34375,109.67708587646484 L276.8125,112.73958587646484 L275.79168701171875,115.80208587646484 L274.7708435058594,118.86458587646484 L274.7708435058594,122.43750762939453 L274.7708435058594,126.52083587646484 L275.28125,128.5625 L276.8125,132.1354217529297 L278.85418701171875,133.6666717529297 L281.91668701171875,134.6875 L286.51043701171875,134.1770782470703 L292.125,131.625 L298.25,128.5625 L301.3125,127.03125762939453 M369.7083435058594,94.36458587646484 L390.125,84.15625762939453 L393.69793701171875,81.09375762939453 L396.76043701171875,78.03125762939453 L402.88543701171875,70.88542938232422 L407.47918701171875,63.73958206176758 L411.0521240234375,56.593753814697266 L413.09375,50.97916793823242 L414.1146240234375,45.875003814697266 L414.1146240234375,42.30208206176758 L414.1146240234375,40.77083206176758 L413.09375,38.72916793823242 L412.07293701171875,37.70833206176758 L410.03125,37.19791793823242 L406.96875,37.19791793823242 L404.41668701171875,37.70833206176758 L401.35418701171875,39.23958206176758 L398.29168701171875,41.79166793823242 L394.2083740234375,45.875003814697266 L389.6146240234375,51.48958206176758 L384.51043701171875,60.67708206176758 L379.91668701171875,71.90625762939453 L376.85418701171875,80.07292938232422 L373.79168701171875,86.70833587646484 L372.26043701171875,90.28125762939453 L368.6875,97.93750762939453 L365.625,105.59375762939453 L363.07293701171875,112.73958587646484 L361.03125,118.35417938232422 L358.9895935058594,123.45833587646484 L357.4583435058594,129.0729217529297 L355.9270935058594,134.6875 L354.90625,140.3020782470703 L353.88543701171875,144.8958282470703 L353.88543701171875,148.46875 L352.8645935058594,151.53125 L352.8645935058594,154.0833282470703 L352.8645935058594,156.125 L352.8645935058594,157.1458282470703 L352.8645935058594,159.1875 L352.8645935058594,161.2291717529297 L353.88543701171875,162.25 L354.90625,163.2708282470703 L356.4375,163.78125 L358.47918701171875,164.2916717529297 L361.54168701171875,164.2916717529297 L365.1145935058594,162.7604217529297 L368.1770935058594,160.71875 L370.21875,158.6770782470703 L373.28125,154.59375 L375.8333435058594,148.9791717529297 L376.85418701171875,145.40625 L378.8958435058594,138.2604217529297 L379.91668701171875,132.1354217529297 L380.4270935058594,127.54167938232422 L380.4270935058594,123.45833587646484 L379.40625,119.37500762939453 L378.38543701171875,115.80208587646484 L376.85418701171875,113.76042938232422 L374.3020935058594,112.22917938232422 L371.2395935058594,111.71875762939453 L368.1770935058594,111.71875762939453 L365.1145935058594,112.73958587646484 L363.07293701171875,113.76042938232422 L361.54168701171875,114.78125762939453 L361.03125,115.29167938232422 L360.01043701171875,115.29167938232422 L358.9895935058594,115.80208587646484 L358.9895935058594,116.31250762939453 L359.5,117.33333587646484 L361.54168701171875,118.35417938232422 L366.6458435058594,119.37500762939453 L373.79168701171875,118.86458587646484 L386.04168701171875,114.78125762939453 L399.82293701171875,106.10417938232422 L411.5625,96.40625762939453 L413.60418701171875,94.36458587646484 M466.1771240234375,91.30208587646484 L449.3333740234375,90.28125762939453 L444.22918701171875,91.81250762939453 L439.63543701171875,94.87500762939453 L437.59375,96.91667938232422 L433.51043701171875,101.51042938232422 L429.4271240234375,107.12500762939453 L426.875,112.22917938232422 L425.85418701171875,116.82292938232422 L425.85418701171875,119.37500762939453 L426.3646240234375,120.90625762939453 L427.38543701171875,121.92708587646484 L429.4271240234375,122.94792938232422 L432.4896240234375,122.94792938232422 L436.0625,122.43750762939453 L439.63543701171875,120.39583587646484 L441.16668701171875,119.37500762939453 L443.71875,116.82292938232422 L446.78125,112.73958587646484 L449.3333740234375,108.65625762939453 L451.375,104.57292938232422 L453.41668701171875,101.00000762939453 L454.4375,98.95833587646484 L455.4583740234375,97.93750762939453 L455.4583740234375,96.91667938232422 L455.4583740234375,96.40625762939453 L455.4583740234375,96.91667938232422 L455.4583740234375,100.48958587646484 L455.96875,106.10417938232422 L456.9896240234375,109.16667938232422 L459.54168701171875,113.76042938232422 L463.1146240234375,117.33333587646484 L467.7083740234375,118.86458587646484 M524.875,93.85417938232422 L512.1146240234375,93.34375762939453 L509.5625,93.85417938232422 L507.01043701171875,94.87500762939453 L502.41668701171875,97.42708587646484 L498.84375,100.48958587646484 L495.78125,104.06250762939453 L493.22918701171875,109.16667938232422 L492.71875,112.73958587646484 L493.22918701171875,115.80208587646484 L495.2708740234375,117.33333587646484 L497.82293701171875,118.86458587646484 L505.9896240234375,121.41667938232422 L515.6875,123.45833587646484 L517.7291870117188,123.45833587646484 M541.71875,99.46875762939453 L554.9896240234375,94.87500762939453 L557.03125,93.85417938232422 L560.6041870117188,90.79167938232422 L561.1146240234375,89.77083587646484 L562.1354370117188,88.23958587646484 L562.1354370117188,87.21875762939453 L561.625,86.19792938232422 L559.5833740234375,85.17708587646484 L556.5208740234375,85.68750762939453 L552.4375,87.21875762939453 L548.3541870117188,91.30208587646484 L544.2708740234375,97.42708587646484 L541.71875,105.08333587646484 L541.2083740234375,111.20833587646484 L541.71875,113.76042938232422 L543.7604370117188,117.33333587646484 L547.3333740234375,119.37500762939453 L553.96875,120.90625762939453 L566.21875,118.86458587646484 L568.7708740234375,118.35417938232422 M605.5208740234375,39.23958206176758 L600.9271240234375,53.02083206176758 L598.8854370117188,60.16666793823242 L595.8229370117188,72.92708587646484 L592.7604370117188,87.72917938232422 L590.2083740234375,100.48958587646484 L588.1666870117188,110.69792938232422 L586.125,119.37500762939453 L585.1041870117188,124.47917938232422 M598.375,115.29167938232422 L607.5625,103.55208587646484 L609.6041870117188,102.02083587646484 L611.6458740234375,100.48958587646484 L615.21875,98.44792938232422 L619.8125,97.93750762939453 L621.34375,98.44792938232422 L623.8958740234375,100.48958587646484 L625.9375,104.57292938232422 L626.4479370117188,109.16667938232422 L626.4479370117188,112.22917938232422 L625.9375,115.29167938232422 L625.4271240234375,116.82292938232422 L624.40625,119.37500762939453 L622.3646240234375,122.43750762939453 L619.3021240234375,124.98958587646484 L614.7083740234375,128.0520782470703 L608.0729370117188,130.09375 L601.9479370117188,131.625 L596.84375,131.625 L592.7604370117188,130.09375 L589.1875,127.54167938232422 L586.125,124.47917938232422 L584.59375,120.90625762939453 L584.59375,119.37500762939453 L584.59375,118.35417938232422 M670.8541870117188,101.00000762939453 L656.5625,102.53125762939453 L654.0104370117188,105.08333587646484 L651.96875,109.16667938232422 L650.4375,114.27083587646484 L649.9271240234375,118.86458587646484 L649.9271240234375,123.45833587646484 L650.4375,124.98958587646484 L651.96875,127.54167938232422 L655.03125,129.0729217529297 L656.0521240234375,129.5833282470703 L659.625,129.5833282470703 L663.7083740234375,129.0729217529297 L667.7916870117188,127.03125762939453 L671.875,124.98958587646484 L675.9583740234375,121.92708587646484 L679.53125,117.33333587646484 L682.0833740234375,111.20833587646484 L683.6146240234375,104.57292938232422 L683.6146240234375,98.95833587646484 L682.59375,94.87500762939453 L681.5729370117188,92.83333587646484 L680.5521240234375,91.30208587646484 L677.4896240234375,88.75000762939453 L674.4271240234375,86.70833587646484 L672.3854370117188,85.68750762939453 L670.34375,84.66667938232422 L668.3021240234375,84.66667938232422 L667.28125,84.66667938232422 L666.2604370117188,84.66667938232422 L665.2396240234375,84.66667938232422 L664.21875,84.66667938232422 L663.1979370117188,84.66667938232422 L661.15625,85.68750762939453 L660.1354370117188,86.70833587646484 L658.6041870117188,87.72917938232422 L657.5833740234375,88.75000762939453 L657.0729370117188,89.77083587646484 L656.5625,92.32292938232422 L657.0729370117188,93.34375762939453 M729.0416870117188,87.21875762939453 L714.2396240234375,93.34375762939453 L712.7083740234375,94.87500762939453 L711.1771240234375,96.91667938232422 L708.625,102.02083587646484 L707.09375,107.63542938232422 L707.09375,112.22917938232422 L708.1146240234375,115.80208587646484 L710.6666870117188,118.86458587646484 L715.7708740234375,122.43750762939453 L719.8541870117188,122.94792938232422 L723.4271240234375,122.43750762939453 L726.4896240234375,120.90625762939453 L729.5521240234375,118.35417938232422 L732.6146240234375,113.76042938232422 L734.65625,108.14583587646484 L734.65625,102.53125762939453 L734.1458740234375,98.44792938232422 L733.125,94.87500762939453 L732.1041870117188,92.83333587646484 L729.0416870117188,90.28125762939453 L727.5104370117188,89.26042938232422 L723.4271240234375,88.23958587646484 L719.34375,87.72917938232422 L715.2604370117188,88.23958587646484 L711.6875,89.26042938232422 L708.625,91.30208587646484 L706.5833740234375,93.85417938232422 L705.5625,97.93750762939453 L706.5833740234375,102.02083587646484 L709.6458740234375,105.08333587646484 L715.7708740234375,108.14583587646484 L724.4479370117188,109.67708587646484 L730.5729370117188,109.67708587646484 M783.65625,32.093753814697266 L779.0625,44.85416793823242 L777.53125,49.95833206176758 L776,56.08333206176758 L772.4271240234375,72.41667938232422 L771.40625,77.52083587646484 L769.875,88.75000762939453 L768.34375,103.55208587646484 L767.3229370117188,110.18750762939453 L767.3229370117188,112.22917938232422 L767.3229370117188,115.80208587646484 L766.8125,121.92708587646484 L765.7916870117188,124.98958587646484 L765.28125,127.54167938232422 L764.7708740234375,128.5625 L764.2604370117188,130.6041717529297 L764.2604370117188,132.1354217529297 L764.2604370117188,133.15625 L764.2604370117188,134.1770782470703 L764.2604370117188,134.6875 L764.2604370117188,133.6666717529297 L764.2604370117188,133.15625 L763.75,131.1145782470703 L763.75,130.6041717529297 L763.75,130.09375 L763.75,129.0729217529297 L763.75,128.0520782470703 L763.75,127.03125762939453 L763.2396240234375,124.98958587646484 L762.21875,119.88542938232422 L762.7291870117188,110.69792938232422 L764.7708740234375,102.02083587646484 L767.3229370117188,96.40625762939453 L770.3854370117188,92.32292938232422 L775.4896240234375,88.23958587646484 L778.5521240234375,86.19792938232422 L784.6771240234375,83.13542938232422 L789.2708740234375,81.09375762939453 L791.822998046875,80.07292938232422 L793.8646240234375,79.05208587646484 L794.885498046875,78.54167938232422 L795.90625,78.54167938232422 L796.9271240234375,78.54167938232422 L797.947998046875,78.54167938232422 L798.96875,78.54167938232422 L799.9896240234375,78.54167938232422 M783.1458740234375,101.00000762939453 L793.354248046875,113.25000762939453 L798.4583740234375,119.88542938232422 L805.09375,125.50000762939453 L807.6458740234375,127.03125762939453 M773.9583740234375,89.77083587646484 L788.760498046875,102.53125762939453 L798.96875,113.25000762939453 L802.541748046875,116.82292938232422 " fill="none" stroke="blue" stroke-width="1"/> 
            </svg>