<?xml version="1.0" standalone="no"?>
<svg id="svg1" baseProfile="full" height="200" width="100%" version="1.1" xmlns="http://www.w3.org/2000/svg" xmlns:ev="http://www.w3.org/2001/xml-events" xmlns:xlink="http://www.w3.org/1999/xlink" onmousedown="mouseDown(evt)" onmouseup="mouseUp(evt)" onmousemove="mouseMove(evt)" ontouchstart="mouseDown(evt)" ontouchmove="mouseMove(evt)" ontouchend="mouseUp(evt)">
                <script type="text/JavaScript">
                    
                        var svg = document.getElementById("svg1");
                        var pt = svg.createSVGPoint();
                        isDrawing = false;
                        start = 0;
                        sp = null;
                        function alert_coords(evt) {
                            if(evt.targetTouches) {
                                // Prefer Touch Events
                                pt.x = evt.targetTouches[0].clientX;
                                pt.y = evt.targetTouches[0].clientY;
                            } else {
                                pt.x = evt.clientX;
                                pt.y = evt.clientY;
                            }
                            // The cursor point, translated into svg coordinates
                            var point =  pt.matrixTransform(svg.getScreenCTM().inverse());
                            return point;
                        }
                        function mouseDown(evt) {
                            point = alert_coords(evt);
                            isDrawing = true;
                            var path = document.getElementById("path1");
                            var d = path.getAttributeNS(null, "d") + "M"+ point.x + "," + point.y+ " ";
                            path.setAttributeNS(null, "d", d);
                        }
                        function mouseUp(evt) {
                            if (isDrawing === true) {
                                point = alert_coords(evt);
                                var path = document.getElementById("path1");
                                var d = path.getAttributeNS(null, "d") + "M"+ point.x + "," + point.y+ " ";
                                path.setAttributeNS(null, "d", d);
                                isDrawing = false;
                            }
                        }
                        function mouseMove(evt) {
                            if (isDrawing === true) {
                                point = alert_coords(evt);
                                var path = document.getElementById("path1");
                                x = point.x;
                                y = point.y ;
                                var d = path.getAttributeNS(null, "d") + "L"+ x + "," + y + " ";
                                path.setAttributeNS(null, "d", d);
                            }
                        }
                    
                </script>
                <rect id="rect1" fill="white" height="200" width="100%" stroke="black" x="0" y="0"/>
                <path id="path1" d="M790.291748046875,3.5104191303253174 L790,3.3333332538604736 M790,3.3333332538604736 M790,3.3333332538604736 M34.364585876464844,143.875 L44.0625,123.45833587646484 L45.59375,115.80208587646484 L47.125,101.00000762939453 L47.63542175292969,96.40625762939453 L48.65625,88.23958587646484 L48.65625,79.05208587646484 L48.65625,70.88542938232422 L48.65625,65.27083587646484 L48.65625,61.187503814697266 L48.65625,57.10416793823242 L49.16667175292969,54.04166793823242 L49.16667175292969,53.02083206176758 L49.16667175292969,51.48958206176758 L49.16667175292969,50.468753814697266 L49.677085876464844,49.44791793823242 L50.69792175292969,49.44791793823242 L51.71875,49.44791793823242 L53.76042175292969,50.97916793823242 L57.333335876464844,55.062503814697266 L61.927085876464844,63.22916793823242 L66.52083587646484,72.41667938232422 L71.11458587646484,79.56250762939453 L76.21875,86.19792938232422 L81.83333587646484,95.38542938232422 L84.38542175292969,99.97917938232422 L88.97917175292969,108.65625762939453 L92.55209350585938,114.78125762939453 L94.59375,119.37500762939453 L97.14584350585938,124.47917938232422 L99.69792175292969,130.09375 L101.73959350585938,133.6666717529297 L103.27084350585938,136.7291717529297 L104.29167175292969,138.7708282470703 L105.3125,139.7916717529297 L105.82292175292969,140.8125 L105.82292175292969,141.3229217529297 L105.82292175292969,141.8333282470703 L104.29167175292969,141.8333282470703 L102.76042175292969,141.8333282470703 L101.22917175292969,141.3229217529297 L99.1875,139.7916717529297 L96.63542175292969,137.75 L93.57292175292969,134.6875 L90,131.625 L85.91667175292969,128.5625 L81.32292175292969,126.01042938232422 L78.77083587646484,124.47917938232422 L73.66667175292969,121.92708587646484 L69.58333587646484,119.37500762939453 L66.01042175292969,116.31250762939453 L62.94792175292969,113.25000762939453 L59.375,110.18750762939453 L55.802085876464844,108.14583587646484 L52.739585876464844,106.61458587646484 L49.677085876464844,106.10417938232422 L47.125,106.10417938232422 L45.083335876464844,106.10417938232422 L43.552085876464844,107.12500762939453 L43.04167175292969,107.63542938232422 L41,110.18750762939453 L39.46875,113.25000762939453 L38.958335876464844,116.31250762939453 L38.958335876464844,118.86458587646484 L39.97916793823242,121.41667938232422 L42.020835876464844,124.47917938232422 L43.552085876464844,127.03125762939453 L45.59375,129.0729217529297 L47.63542175292969,130.6041717529297 L50.69792175292969,132.6458282470703 L53.76042175292969,134.1770782470703 L55.29167175292969,134.6875 L58.35417175292969,135.7083282470703 L61.927085876464844,136.7291717529297 L66.01042175292969,137.2395782470703 L71.625,135.7083282470703 L77.23958587646484,133.6666717529297 L81.83333587646484,130.6041717529297 L85.91667175292969,127.54167938232422 L88.46875,125.50000762939453 L91.53125,121.92708587646484 L94.08334350585938,116.82292938232422 L96.125,111.20833587646484 L97.14584350585938,106.10417938232422 L97.65625,104.06250762939453 L98.67709350585938,99.97917938232422 L98.67709350585938,97.42708587646484 L98.67709350585938,95.38542938232422 L98.67709350585938,94.36458587646484 L98.67709350585938,93.34375762939453 L98.67709350585938,92.32292938232422 L98.67709350585938,91.30208587646484 L99.1875,91.30208587646484 L99.69792175292969,91.30208587646484 L100.71875,92.32292938232422 L102.25,95.89583587646484 L104.80209350585938,99.97917938232422 L107.86459350585938,105.59375762939453 L110.92709350585938,110.18750762939453 L112.45834350585938,112.22917938232422 L115.52084350585938,116.31250762939453 L118.07292175292969,120.39583587646484 L120.625,124.98958587646484 L122.66667175292969,130.09375 L124.19792175292969,134.1770782470703 L125.21875,136.7291717529297 L127.26042175292969,139.28125 L127.77084350585938,139.7916717529297 L128.28125,139.7916717529297 L128.7916717529297,139.7916717529297 L129.8125,138.7708282470703 L130.83334350585938,136.7291717529297 L130.83334350585938,135.1979217529297 L131.34375,132.1354217529297 L131.34375,129.5833282470703 L131.34375,127.54167938232422 L131.34375,125.50000762939453 L131.34375,123.45833587646484 L131.34375,121.92708587646484 L131.8541717529297,120.90625762939453 L131.8541717529297,119.88542938232422 L131.8541717529297,118.86458587646484 L132.36459350585938,117.84375762939453 L133.3854217529297,117.84375762939453 L134.40625,118.35417938232422 L136.4479217529297,120.90625762939453 L140.02084350585938,124.98958587646484 L144.1041717529297,130.09375 L147.67709350585938,134.1770782470703 L150.73959350585938,137.2395782470703 L152.78125,138.7708282470703 L154.8229217529297,140.3020782470703 L155.84375,141.3229217529297 L156.86459350585938,141.8333282470703 L157.8854217529297,141.8333282470703 L158.90625,141.8333282470703 L159.4166717529297,140.8125 L159.4166717529297,139.7916717529297 L159.4166717529297,135.7083282470703 L157.8854217529297,131.625 L155.84375,127.03125762939453 L153.2916717529297,122.43750762939453 L150.73959350585938,117.84375762939453 L147.1666717529297,112.22917938232422 L145.125,108.14583587646484 L143.08334350585938,104.57292938232422 L142.0625,102.53125762939453 L141.55209350585938,101.51042938232422 L140.02084350585938,99.46875762939453 L139.5104217529297,98.95833587646484 L139.5104217529297,97.93750762939453 L139.5104217529297,97.93750762939453 L140.02084350585938,99.46875762939453 L142.0625,103.04167938232422 L145.6354217529297,108.14583587646484 L150.2291717529297,111.71875762939453 L155.33334350585938,114.78125762939453 L158.90625,116.82292938232422 L161.45834350585938,117.84375762939453 L163.5,117.84375762939453 L165.03125,117.84375762939453 L166.5625,117.84375762939453 L167.0729217529297,117.84375762939453 L168.09375,116.82292938232422 L169.11459350585938,114.27083587646484 L170.1354217529297,110.18750762939453 L170.1354217529297,105.59375762939453 L170.1354217529297,101.00000762939453 L169.11459350585938,96.40625762939453 L168.09375,93.85417938232422 L167.58334350585938,92.32292938232422 L166.5625,90.79167938232422 L165.5416717529297,89.77083587646484 L164.52084350585938,89.26042938232422 L164.0104217529297,89.26042938232422 L163.5,89.77083587646484 L162.4791717529297,93.34375762939453 L162.4791717529297,99.46875762939453 L162.4791717529297,105.59375762939453 L163.5,111.20833587646484 L165.03125,115.29167938232422 L166.5625,118.86458587646484 L168.6041717529297,122.94792938232422 L170.64584350585938,127.54167938232422 L173.70834350585938,130.6041717529297 L176.2604217529297,133.6666717529297 L177.28125,134.6875 L181.36459350585938,138.2604217529297 L183.9166717529297,140.3020782470703 L184.9375,140.8125 L186.9791717529297,141.8333282470703 L188.51043701171875,142.34375 L190.04168701171875,142.34375 L191.0625,142.34375 L192.59375,141.3229217529297 L194.125,139.28125 L195.65625,135.7083282470703 L196.16668701171875,131.1145782470703 L196.16668701171875,126.01042938232422 L195.14584350585938,119.88542938232422 L194.125,112.73958587646484 L193.61459350585938,109.67708587646484 L192.08334350585938,102.02083587646484 L190.55209350585938,97.93750762939453 L190.04168701171875,95.89583587646484 L189.02084350585938,93.34375762939453 L188,91.30208587646484 L186.9791717529297,89.26042938232422 L186.46875,88.23958587646484 L186.46875,87.21875762939453 L185.95834350585938,86.70833587646484 L185.95834350585938,86.70833587646484 L185.95834350585938,88.75000762939453 L186.46875,90.79167938232422 L189.02084350585938,96.91667938232422 L193.10418701171875,103.04167938232422 L196.67709350585938,108.14583587646484 L200.76043701171875,112.22917938232422 L204.84375,115.29167938232422 L210.45834350585938,119.37500762939453 L215.5625,122.94792938232422 L220.15625,127.54167938232422 L223.72918701171875,133.15625 L224.75,138.2604217529297 L224.23959350585938,142.34375 L222.19793701171875,144.8958282470703 L218.11459350585938,146.9375 L213.01043701171875,147.9583282470703 L210.45834350585938,147.9583282470703 L206.88543701171875,147.4479217529297 L204.33334350585938,146.4270782470703 L203.3125,145.40625 L202.29168701171875,144.3854217529297 L202.29168701171875,144.3854217529297 L203.3125,144.8958282470703 L205.86459350585938,146.4270782470703 L209.94793701171875,148.46875 L215.05209350585938,149.4895782470703 L220.15625,148.9791717529297 L222.19793701171875,148.46875 L224.75,146.9375 L226.79168701171875,144.3854217529297 L228.32293701171875,139.7916717529297 L228.32293701171875,135.1979217529297 L227.8125,130.6041717529297 L226.28125,126.01042938232422 L223.21875,120.90625762939453 L219.13543701171875,115.29167938232422 L216.58334350585938,110.69792938232422 L215.05209350585938,108.14583587646484 L214.03125,106.10417938232422 L213.52084350585938,105.08333587646484 L213.01043701171875,104.06250762939453 L213.01043701171875,103.55208587646484 L213.01043701171875,103.04167938232422 L213.01043701171875,103.55208587646484 L214.03125,106.10417938232422 L216.07293701171875,110.69792938232422 L219.13543701171875,115.80208587646484 L223.21875,120.90625762939453 L227.30209350585938,126.01042938232422 L230.875,130.6041717529297 L233.9375,134.6875 L237,138.2604217529297 L240.0625,141.3229217529297 L242.10418701171875,143.875 L243.125,144.3854217529297 L244.65625,145.40625 L245.67709350585938,145.40625 L246.69793701171875,144.8958282470703 L247.71875,143.875 L248.73959350585938,140.3020782470703 L248.73959350585938,135.1979217529297 L247.71875,130.09375 L246.1875,125.50000762939453 L244.14584350585938,121.41667938232422 L242.10418701171875,116.82292938232422 L240.0625,112.73958587646484 L237.51043701171875,108.14583587646484 L236.48959350585938,106.10417938232422 L233.9375,102.02083587646484 L230.875,98.44792938232422 L227.30209350585938,95.38542938232422 L224.23959350585938,93.34375762939453 L221.6875,92.32292938232422 L220.66668701171875,91.81250762939453 L219.13543701171875,92.32292938232422 L218.11459350585938,93.34375762939453 L217.09375,96.40625762939453 L218.11459350585938,101.51042938232422 L221.17709350585938,106.61458587646484 L225.26043701171875,110.18750762939453 L227.30209350585938,111.71875762939453 L231.38543701171875,114.27083587646484 L235.46875,115.80208587646484 L240.0625,115.29167938232422 L244.65625,113.25000762939453 L248.73959350585938,109.67708587646484 L251.80209350585938,105.59375762939453 L254.35418701171875,102.02083587646484 L256.3958435058594,98.95833587646484 L257.41668701171875,96.91667938232422 L258.4375,95.38542938232422 L259.4583435058594,94.36458587646484 L260.47918701171875,93.34375762939453 L261.5,93.34375762939453 L262.01043701171875,93.34375762939453 L262.5208435058594,94.36458587646484 L264.0520935058594,98.95833587646484 L266.09375,106.10417938232422 L268.13543701171875,112.73958587646484 L269.66668701171875,116.82292938232422 L271.7083435058594,120.39583587646484 L273.75,124.47917938232422 L275.79168701171875,129.0729217529297 L276.8125,132.1354217529297 L277.8333435058594,134.6875 L278.85418701171875,136.21875 L279.3645935058594,137.2395782470703 L279.3645935058594,137.75 L279.3645935058594,136.7291717529297 L278.85418701171875,133.15625 L277.8333435058594,129.0729217529297 L277.8333435058594,124.98958587646484 L277.8333435058594,119.88542938232422 L278.34375,115.29167938232422 L279.3645935058594,111.71875762939453 L279.875,110.69792938232422 L280.8958435058594,108.65625762939453 L281.40625,107.63542938232422 L282.4270935058594,106.61458587646484 L283.44793701171875,106.10417938232422 L284.46875,106.10417938232422 L287.0208435058594,108.65625762939453 L290.0833435058594,113.25000762939453 L293.1458435058594,117.33333587646484 L296.2083435058594,122.43750762939453 L299.2708435058594,127.54167938232422 L301.3125,132.6458282470703 L303.35418701171875,137.2395782470703 L304.375,139.7916717529297 L305.3958435058594,143.3645782470703 L306.41668701171875,144.8958282470703 L306.41668701171875,145.9166717529297 L306.41668701171875,145.40625 L305.90625,142.8541717529297 L304.88543701171875,138.2604217529297 L303.8645935058594,132.6458282470703 L303.35418701171875,127.54167938232422 L302.84375,122.43750762939453 L302.3333435058594,118.35417938232422 L302.3333435058594,114.78125762939453 L302.3333435058594,113.25000762939453 L302.3333435058594,111.20833587646484 L302.3333435058594,110.18750762939453 L302.84375,109.16667938232422 L303.8645935058594,108.14583587646484 L304.88543701171875,107.63542938232422 L305.90625,107.63542938232422 L307.4375,108.14583587646484 L311.01043701171875,111.71875762939453 L315.09375,115.80208587646484 L319.1770935058594,120.39583587646484 L322.2395935058594,124.47917938232422 L325.3020935058594,129.0729217529297 L327.85418701171875,132.1354217529297 L328.875,133.6666717529297 L331.9375,136.21875 L333.97918701171875,137.2395782470703 L335,137.2395782470703 L337.04168701171875,137.2395782470703 L339.0833435058594,136.7291717529297 L341.125,135.1979217529297 L343.16668701171875,131.625 L344.1875,127.54167938232422 L344.1875,121.92708587646484 L342.65625,114.27083587646484 L340.6145935058594,107.12500762939453 L338.57293701171875,101.51042938232422 L337.04168701171875,98.44792938232422 L336.53125,97.42708587646484 L335.51043701171875,95.38542938232422 L333.97918701171875,94.36458587646484 L332.9583435058594,94.36458587646484 L331.9375,94.36458587646484 L330.91668701171875,97.42708587646484 L331.9375,103.55208587646484 L334.4895935058594,110.69792938232422 L338.57293701171875,117.84375762939453 L345.71875,129.5833282470703 L353.375,140.8125 L359.5,145.9166717529297 L367.66668701171875,147.9583282470703 L372.26043701171875,147.4479217529297 M403.90625,108.14583587646484 L409.5208740234375,93.34375762939453 L410.03125,88.23958587646484 L410.54168701171875,77.52083587646484 L409.01043701171875,68.84375762939453 L405.4375,60.67708206176758 L400.3333740234375,53.02083206176758 L395.7396240234375,47.406253814697266 L392.16668701171875,43.83333206176758 L390.63543701171875,41.281253814697266 L390.125,40.26041793823242 L390.63543701171875,39.750003814697266 L393.1875,43.32291793823242 L397.78125,50.97916793823242 L403.90625,63.73958206176758 L407.9896240234375,76.50000762939453 L409.5208740234375,80.58333587646484 L412.07293701171875,88.75000762939453 L415.13543701171875,101.00000762939453 L419.21875,111.71875762939453 L423.3021240234375,120.90625762939453 L427.8958740234375,131.625 L430.9583740234375,139.28125 L433,143.3645782470703 L435.04168701171875,146.4270782470703 L437.0833740234375,148.46875 L438.10418701171875,149.4895782470703 L438.6146240234375,150.5104217529297 L438.10418701171875,150 L437.59375,149.4895782470703 L437.0833740234375,148.46875 L435.5521240234375,145.9166717529297 L433.51043701171875,142.8541717529297 L431.46875,138.7708282470703 L429.4271240234375,134.1770782470703 L427.8958740234375,128.5625 L426.875,120.90625762939453 L427.8958740234375,112.22917938232422 L430.44793701171875,104.57292938232422 L433.51043701171875,98.95833587646484 L436.0625,95.89583587646484 L437.59375,94.87500762939453 L439.63543701171875,93.34375762939453 L441.6771240234375,93.85417938232422 L444.7396240234375,101.00000762939453 L447.29168701171875,111.20833587646484 L449.3333740234375,120.39583587646484 L451.375,130.6041717529297 L453.41668701171875,137.75 L455.4583740234375,141.8333282470703 L457.5,143.875 L460.0521240234375,144.8958282470703 L464.13543701171875,145.9166717529297 L468.72918701171875,145.9166717529297 L470.7708740234375,145.40625 L475.875,141.8333282470703 L477.40625,139.7916717529297 L480.97918701171875,133.15625 L483.0208740234375,127.54167938232422 L484.04168701171875,121.92708587646484 L484.04168701171875,116.31250762939453 L483.53125,111.20833587646484 L482.51043701171875,106.61458587646484 L480.46875,103.04167938232422 L477.40625,99.97917938232422 L474.34375,98.44792938232422 L471.28125,98.44792938232422 L469.2396240234375,99.46875762939453 L468.21875,101.00000762939453 L466.6875,107.63542938232422 L466.6875,114.78125762939453 L468.72918701171875,121.92708587646484 L472.3021240234375,128.5625 L475.3646240234375,132.1354217529297 L477.40625,134.1770782470703 L478.9375,134.1770782470703 L480.46875,133.15625 L482,129.0729217529297 L483.0208740234375,123.45833587646484 L483.0208740234375,116.82292938232422 L483.0208740234375,112.22917938232422 L483.0208740234375,110.69792938232422 L483.0208740234375,109.16667938232422 L483.0208740234375,108.14583587646484 L483.53125,108.14583587646484 L485.0625,110.18750762939453 L488.63543701171875,114.27083587646484 L493.7396240234375,118.35417938232422 L499.8646240234375,122.43750762939453 L505.9896240234375,124.47917938232422 L511.09375,124.47917938232422 L514.6666870117188,123.45833587646484 L516.7083740234375,120.90625762939453 L517.7291870117188,112.73958587646484 L517.7291870117188,106.10417938232422 L516.7083740234375,94.36458587646484 L513.6458740234375,81.09375762939453 L509.0521240234375,70.37500762939453 L503.4375,62.20833206176758 L498.3333740234375,56.08333206176758 L494.76043701171875,51.48958206176758 L491.1875,46.38541793823242 L488.63543701171875,42.30208206176758 L487.6146240234375,39.750003814697266 L487.10418701171875,38.218753814697266 L487.10418701171875,37.19791793823242 L487.6146240234375,37.19791793823242 L489.1458740234375,40.26041793823242 L490.16668701171875,42.812503814697266 L493.7396240234375,49.95833206176758 L498.84375,59.656253814697266 L504.4583740234375,71.39583587646484 L510.07293701171875,81.09375762939453 L514.6666870117188,91.81250762939453 L519.7708740234375,105.59375762939453 L524.875,115.80208587646484 L530.4896240234375,124.47917938232422 L536.6146240234375,134.6875 L542.2291870117188,144.8958282470703 L546.8229370117188,152.5520782470703 L550.3958740234375,160.2083282470703 L553.4583740234375,167.8645782470703 L554.4791870117188,170.9270782470703 L556.5208740234375,178.0729217529297 L556.5208740234375,181.1354217529297 L556.5208740234375,183.68751525878906 L556.5208740234375,184.7083282470703 L556.0104370117188,183.68751525878906 L554.9896240234375,181.6458282470703 L551.9271240234375,176.5416717529297 L548.3541870117188,169.3958282470703 L544.2708740234375,162.25 L539.6771240234375,153.5729217529297 L537.6354370117188,149.4895782470703 L533.0416870117188,139.7916717529297 L529.9791870117188,132.6458282470703 L528.4479370117188,127.03125762939453 L527.4271240234375,121.41667938232422 L527.4271240234375,115.80208587646484 L528.9583740234375,110.69792938232422 L531.5104370117188,105.59375762939453 L534.5729370117188,102.02083587646484 L539.1666870117188,98.95833587646484 L543.25,97.93750762939453 L546.8229370117188,98.95833587646484 L548.8646240234375,100.48958587646484 L551.9271240234375,106.61458587646484 L552.9479370117188,112.22917938232422 L552.4375,116.31250762939453 L549.8854370117188,119.88542938232422 L545.8021240234375,122.94792938232422 L540.6979370117188,124.47917938232422 L537.125,123.96875762939453 L536.1041870117188,122.94792938232422 L536.6146240234375,120.39583587646484 L539.6771240234375,115.29167938232422 L544.78125,109.16667938232422 L550.90625,101.00000762939453 L553.4583740234375,97.42708587646484 L558.5625,90.79167938232422 L563.15625,81.60417938232422 L564.1771240234375,70.88542938232422 L562.6458740234375,63.22916793823242 L559.5833740234375,56.593753814697266 L556.5208740234375,50.97916793823242 L552.4375,46.38541793823242 L548.3541870117188,42.812503814697266 L545.2916870117188,40.26041793823242 L543.7604370117188,39.23958206176758 L542.7396240234375,39.23958206176758 L542.2291870117188,40.77083206176758 L542.7396240234375,44.85416793823242 L545.2916870117188,51.48958206176758 L547.3333740234375,57.61458206176758 L552.4375,72.92708587646484 L558.5625,85.68750762939453 L565.7083740234375,99.46875762939453 L571.8333740234375,108.65625762939453 L576.4271240234375,115.80208587646484 L580.5104370117188,122.43750762939453 L584.0833740234375,132.1354217529297 L587.1458740234375,142.34375 L589.1875,150.5104217529297 L589.6979370117188,154.0833282470703 L591.2291870117188,162.7604217529297 L591.7396240234375,164.2916717529297 L592.25,166.3333282470703 L592.25,166.84376525878906 L591.7396240234375,165.8229217529297 L590.2083740234375,162.25 L586.125,155.6145782470703 L581.53125,145.40625 L577.9583740234375,136.21875 L574.8958740234375,129.0729217529297 L572.8541870117188,121.92708587646484 L571.8333740234375,118.35417938232422 L570.8125,110.18750762939453 L570.3021240234375,102.02083587646484 L570.3021240234375,99.97917938232422 L571.3229370117188,96.40625762939453 L572.8541870117188,93.85417938232422 L574.8958740234375,91.81250762939453 L577.9583740234375,89.77083587646484 L581.53125,88.23958587646484 L584.0833740234375,87.72917938232422 L587.1458740234375,89.26042938232422 L591.2291870117188,94.36458587646484 L593.2708740234375,101.51042938232422 L593.2708740234375,108.65625762939453 L592.7604370117188,111.20833587646484 L590.71875,114.78125762939453 L586.6354370117188,117.84375762939453 L582.5521240234375,118.35417938232422 L581.0208740234375,118.35417938232422 L578.46875,117.84375762939453 L577.4479370117188,116.82292938232422 L576.9375,115.80208587646484 L576.9375,115.29167938232422 L577.9583740234375,115.29167938232422 L580.5104370117188,115.29167938232422 L591.7396240234375,116.82292938232422 L595.3125,116.82292938232422 L605.0104370117188,114.78125762939453 L607.5625,113.76042938232422 L611.1354370117188,111.71875762939453 L613.6875,107.63542938232422 L615.7291870117188,101.51042938232422 L616.2396240234375,95.89583587646484 L616.2396240234375,91.30208587646484 L614.7083740234375,86.19792938232422 L612.6666870117188,81.09375762939453 L610.1146240234375,77.01042938232422 L608.0729370117188,73.43750762939453 L607.0521240234375,71.39583587646484 L606.03125,69.86458587646484 L606.03125,69.35417938232422 L606.03125,69.86458587646484 L607.0521240234375,72.92708587646484 L609.6041870117188,78.54167938232422 L613.6875,84.66667938232422 L617.7708740234375,91.81250762939453 L620.8333740234375,97.42708587646484 L624.40625,102.53125762939453 L627.9791870117188,106.10417938232422 L631.0416870117188,108.65625762939453 L634.6146240234375,109.67708587646484 L637.6771240234375,109.67708587646484 L640.7396240234375,109.16667938232422 L642.2708740234375,108.14583587646484 L644.3125,106.10417938232422 L646.8646240234375,102.02083587646484 L648.90625,97.42708587646484 L649.9271240234375,93.34375762939453 L649.9271240234375,89.26042938232422 L648.90625,85.17708587646484 L647.8854370117188,81.60417938232422 L646.8646240234375,79.56250762939453 L646.8646240234375,78.03125762939453 L646.8646240234375,77.01042938232422 L646.8646240234375,76.50000762939453 L646.8646240234375,77.01042938232422 L646.8646240234375,80.58333587646484 L647.8854370117188,86.70833587646484 L649.9271240234375,95.38542938232422 L650.9479370117188,99.46875762939453 L655.03125,113.25000762939453 L657.5833740234375,120.90625762939453 L659.625,125.50000762939453 L666.2604370117188,144.8958282470703 L668.8125,151.0208282470703 L671.3646240234375,157.1458282470703 L673.40625,164.2916717529297 L673.9166870117188,166.84376525878906 L674.4271240234375,174.50001525878906 L673.9166870117188,176.03126525878906 L672.3854370117188,178.5833282470703 L669.8333740234375,180.62501525878906 L666.2604370117188,181.1354217529297 L662.1771240234375,180.1145782470703 L658.6041870117188,177.0520782470703 L654.0104370117188,172.4583282470703 L649.4166870117188,166.84376525878906 L645.3333740234375,160.2083282470703 L642.78125,152.0416717529297 L641.7604370117188,141.8333282470703 L643.2916870117188,134.1770782470703 L646.3541870117188,128.0520782470703 L650.9479370117188,119.88542938232422 L656.0521240234375,111.20833587646484 L661.15625,103.04167938232422 L663.7083740234375,99.97917938232422 L668.8125,94.87500762939453 L678.5104370117188,81.60417938232422 L681.0625,70.88542938232422 L681.5729370117188,61.69791793823242 L679.53125,54.04166793823242 L676.9791870117188,47.406253814697266 L675.4479370117188,44.343753814697266 L672.3854370117188,38.218753814697266 " fill="none" stroke="blue" stroke-width="1"/> 
            </svg>