<?xml version="1.0" standalone="no"?>
<svg id="svg1" baseProfile="full" height="200" width="100%" version="1.1" xmlns="http://www.w3.org/2000/svg" xmlns:ev="http://www.w3.org/2001/xml-events" xmlns:xlink="http://www.w3.org/1999/xlink" onmousedown="mouseDown(evt)" onmouseup="mouseUp(evt)" onmousemove="mouseMove(evt)" ontouchstart="mouseDown(evt)" ontouchmove="mouseMove(evt)" ontouchend="mouseUp(evt)">
                <script type="text/JavaScript">
                    
                        var svg = document.getElementById("svg1");
                        var pt = svg.createSVGPoint();
                        isDrawing = false;
                        start = 0;
                        sp = null;
                        function alert_coords(evt) {
                            if(evt.targetTouches) {
                                // Prefer Touch Events
                                pt.x = evt.targetTouches[0].clientX;
                                pt.y = evt.targetTouches[0].clientY;
                            } else {
                                pt.x = evt.clientX;
                                pt.y = evt.clientY;
                            }
                            // The cursor point, translated into svg coordinates
                            var point =  pt.matrixTransform(svg.getScreenCTM().inverse());
                            return point;
                        }
                        function mouseDown(evt) {
                            point = alert_coords(evt);
                            isDrawing = true;
                            var path = document.getElementById("path1");
                            var d = path.getAttributeNS(null, "d") + "M"+ point.x + "," + point.y+ " ";
                            path.setAttributeNS(null, "d", d);
                        }
                        function mouseUp(evt) {
                            if (isDrawing === true) {
                                point = alert_coords(evt);
                                var path = document.getElementById("path1");
                                var d = path.getAttributeNS(null, "d") + "M"+ point.x + "," + point.y+ " ";
                                path.setAttributeNS(null, "d", d);
                                isDrawing = false;
                            }
                        }
                        function mouseMove(evt) {
                            if (isDrawing === true) {
                                point = alert_coords(evt);
                                var path = document.getElementById("path1");
                                x = point.x;
                                y = point.y ;
                                var d = path.getAttributeNS(null, "d") + "L"+ x + "," + y + " ";
                                path.setAttributeNS(null, "d", d);
                            }
                        }
                    
                </script>
                <rect id="rect1" fill="white" height="200" width="100%" stroke="black" x="0" y="0"/>
                <path id="path1" d="M681.0625,0.44791921973228455 L681,0.3333333432674408 M681,0.3333333432674408 M681,0.3333333432674408 M68.5625,33.11458206176758 L66.52083587646484,48.42708206176758 L66.52083587646484,52.000003814697266 L66.01042175292969,56.08333206176758 L66.01042175292969,66.29167175292969 L66.01042175292969,75.47917938232422 L66.01042175292969,81.60417938232422 L66.01042175292969,89.26042938232422 L66.01042175292969,99.46875762939453 L65.5,110.18750762939453 L65.5,117.33333587646484 L64.98958587646484,121.41667938232422 L63.96875,130.09375 L63.96875,137.2395782470703 L63.96875,143.3645782470703 L63.96875,148.46875 L63.96875,153.5729217529297 L63.96875,159.1875 L63.96875,164.2916717529297 L63.96875,168.37501525878906 L63.96875,171.43751525878906 L63.96875,173.4791717529297 L63.96875,175.5208282470703 L63.96875,176.03126525878906 L63.96875,177.0520782470703 L63.96875,177.56251525878906 L64.47917175292969,177.56251525878906 M69.58333587646484,108.14583587646484 L78.77083587646484,95.89583587646484 L81.83333587646484,91.30208587646484 L84.89583587646484,86.19792938232422 L90.51042175292969,74.96875762939453 L94.59375,65.27083587646484 L99.69792175292969,56.593753814697266 L104.80209350585938,46.89583206176758 L108.375,39.750003814697266 L111.4375,33.11458206176758 L113.98959350585938,28.52083396911621 L115.52084350585938,25.9687557220459 L116.54167175292969,23.92708396911621 L117.5625,22.9062557220459 L118.58334350585938,22.39583396911621 L119.09375,22.39583396911621 M76.72917175292969,118.35417938232422 L90,110.18750762939453 L94.08334350585938,109.67708587646484 L98.16667175292969,111.20833587646484 L102.25,115.29167938232422 L104.80209350585938,117.84375762939453 L109.39584350585938,124.47917938232422 L113.47917175292969,134.1770782470703 L116.54167175292969,143.875 L118.58334350585938,150.5104217529297 L120.625,155.6145782470703 L122.15625,160.2083282470703 L124.19792175292969,165.3125 L125.21875,170.4166717529297 L126.75,175.0104217529297 L128.28125,178.5833282470703 L130.3229217529297,180.1145782470703 L133.3854217529297,180.62501525878906 M137.46875,105.59375762939453 L145.125,123.96875762939453 L146.14584350585938,128.5625 L147.1666717529297,139.7916717529297 L147.1666717529297,146.4270782470703 L147.1666717529297,151.0208282470703 L147.1666717529297,155.6145782470703 L147.1666717529297,159.1875 L147.1666717529297,160.71875 L147.1666717529297,161.7395782470703 L147.1666717529297,162.25 L147.1666717529297,162.7604217529297 L147.67709350585938,162.7604217529297 L148.6979217529297,162.7604217529297 L151.25,162.25 L154.3125,161.2291717529297 L156.3541717529297,160.2083282470703 L158.39584350585938,159.1875 L160.4375,158.1666717529297 L162.4791717529297,157.1458282470703 L164.0104217529297,156.125 L165.5416717529297,155.1041717529297 L167.58334350585938,152.5520782470703 L169.625,146.9375 L170.1354217529297,143.3645782470703 L170.1354217529297,136.21875 L170.1354217529297,131.1145782470703 L170.1354217529297,127.03125762939453 L170.1354217529297,122.94792938232422 L170.1354217529297,118.35417938232422 L170.1354217529297,114.78125762939453 L170.1354217529297,112.22917938232422 L170.1354217529297,111.20833587646484 L170.1354217529297,110.18750762939453 L170.1354217529297,110.69792938232422 L170.1354217529297,111.71875762939453 L170.1354217529297,114.78125762939453 L169.625,119.37500762939453 L169.11459350585938,129.5833282470703 L169.625,140.8125 L171.15625,148.9791717529297 L173.70834350585938,154.59375 L177.28125,159.6979217529297 L184.9375,163.78125 L191.57293701171875,165.3125 M195.65625,117.33333587646484 L203.82293701171875,104.57292938232422 L204.84375,103.55208587646484 L205.86459350585938,103.04167938232422 L206.88543701171875,103.04167938232422 L206.88543701171875,104.57292938232422 L206.88543701171875,108.14583587646484 L205.86459350585938,112.73958587646484 L205.35418701171875,114.78125762939453 L204.33334350585938,119.37500762939453 L203.82293701171875,126.52083587646484 L203.3125,133.6666717529297 L203.3125,139.7916717529297 L203.3125,144.3854217529297 L203.3125,147.9583282470703 L203.3125,150.5104217529297 L203.3125,152.0416717529297 L203.3125,153.0625 L203.3125,154.0833282470703 L203.3125,154.59375 L203.3125,154.0833282470703 L203.3125,153.0625 L203.82293701171875,151.0208282470703 L204.84375,146.9375 L206.375,140.8125 L208.41668701171875,135.1979217529297 L210.96875,130.6041717529297 L213.52084350585938,126.52083587646484 L214.54168701171875,124.98958587646484 L216.58334350585938,122.43750762939453 L218.625,120.39583587646484 L221.17709350585938,118.35417938232422 L223.21875,116.31250762939453 L225.26043701171875,114.27083587646484 L226.79168701171875,113.25000762939453 L227.8125,112.22917938232422 L228.83334350585938,112.22917938232422 L229.85418701171875,112.73958587646484 L229.85418701171875,115.80208587646484 L228.32293701171875,120.90625762939453 L225.77084350585938,129.0729217529297 L223.72918701171875,138.7708282470703 L223.21875,143.3645782470703 L223.21875,149.4895782470703 L224.23959350585938,153.5729217529297 L226.79168701171875,155.6145782470703 L234.95834350585938,155.1041717529297 L243.125,152.0416717529297 M279.3645935058594,115.80208587646484 L266.60418701171875,119.37500762939453 L265.07293701171875,120.39583587646484 L263.54168701171875,121.92708587646484 L260.47918701171875,126.52083587646484 L257.9270935058594,132.1354217529297 L256.3958435058594,137.75 L256.3958435058594,142.34375 L257.41668701171875,145.40625 L259.96875,147.4479217529297 L265.5833435058594,146.9375 L267.625,146.4270782470703 M232.91668701171875,60.16666793823242 L249.76043701171875,53.02083206176758 L252.3125,52.51041793823242 L254.86459350585938,52.51041793823242 L258.94793701171875,52.51041793823242 L262.01043701171875,53.531253814697266 L265.07293701171875,56.08333206176758 L268.13543701171875,62.20833206176758 L270.1770935058594,70.37500762939453 L271.19793701171875,77.52083587646484 L271.7083435058594,82.11458587646484 L271.7083435058594,86.70833587646484 L271.7083435058594,92.83333587646484 L271.7083435058594,99.97917938232422 L271.7083435058594,106.61458587646484 L271.7083435058594,112.22917938232422 L271.7083435058594,114.27083587646484 L271.7083435058594,117.84375762939453 L271.7083435058594,121.41667938232422 L271.7083435058594,126.52083587646484 L271.7083435058594,130.6041717529297 L271.7083435058594,135.1979217529297 L271.7083435058594,139.28125 L271.7083435058594,142.8541717529297 L272.21875,145.40625 L272.21875,146.4270782470703 L272.21875,146.9375 L273.2395935058594,146.9375 L274.26043701171875,146.9375 L275.28125,146.4270782470703 L284.46875,143.3645782470703 M326.32293701171875,110.18750762939453 L312.03125,109.67708587646484 L310.5,110.18750762939453 L308.4583435058594,110.69792938232422 L304.88543701171875,112.73958587646484 L301.3125,115.80208587646484 L297.7395935058594,119.37500762939453 L294.6770935058594,122.94792938232422 L291.6145935058594,128.5625 L288.5520935058594,135.7083282470703 L287.0208435058594,142.34375 L286.51043701171875,146.4270782470703 L287.53125,149.4895782470703 L288.04168701171875,150 L289.0625,151.0208282470703 L290.0833435058594,151.53125 L292.125,151.53125 L294.6770935058594,151.53125 L298.76043701171875,150.5104217529297 L301.82293701171875,148.46875 L304.375,145.9166717529297 L306.9270935058594,141.8333282470703 L308.96875,137.75 L311.01043701171875,133.15625 L312.54168701171875,129.0729217529297 L313.5625,126.01042938232422 L314.07293701171875,124.98958587646484 L315.09375,122.94792938232422 L315.09375,121.41667938232422 L315.09375,119.88542938232422 L315.09375,119.37500762939453 L315.09375,117.84375762939453 L315.60418701171875,118.86458587646484 L316.625,121.92708587646484 L318.15625,128.5625 L319.1770935058594,133.15625 L321.21875,141.3229217529297 L324.79168701171875,147.9583282470703 L325.8125,148.46875 L329.38543701171875,148.46875 L335,144.3854217529297 L342.1458435058594,135.1979217529297 L343.6770935058594,133.15625 M339.59375,91.30208587646484 L352.8645935058594,85.17708587646484 L354.90625,84.66667938232422 L356.4375,84.15625762939453 L358.9895935058594,84.15625762939453 L361.03125,84.66667938232422 L362.5625,88.23958587646484 L363.07293701171875,95.38542938232422 L363.07293701171875,103.04167938232422 L362.5625,108.65625762939453 L362.5625,113.25000762939453 L362.5625,116.82292938232422 L362.5625,120.39583587646484 L362.0520935058594,122.43750762939453 L361.54168701171875,127.54167938232422 L361.03125,132.1354217529297 L361.03125,135.7083282470703 L361.03125,138.7708282470703 L361.03125,140.8125 L361.03125,142.34375 L361.03125,144.3854217529297 L360.5208435058594,145.9166717529297 L360.01043701171875,147.4479217529297 L360.01043701171875,148.46875 L360.01043701171875,148.9791717529297 L359.5,147.9583282470703 L358.47918701171875,146.9375 L357.4583435058594,145.40625 L356.94793701171875,143.3645782470703 L356.4375,139.28125 L356.4375,135.1979217529297 L357.4583435058594,131.1145782470703 L358.47918701171875,128.5625 L359.5,126.01042938232422 L360.5208435058594,123.45833587646484 L361.54168701171875,120.90625762939453 L362.5625,118.35417938232422 L363.07293701171875,117.33333587646484 L364.09375,115.29167938232422 L365.625,113.25000762939453 L367.66668701171875,110.69792938232422 L369.7083435058594,108.65625762939453 L372.7708435058594,105.59375762939453 L374.8125,103.55208587646484 L376.85418701171875,101.51042938232422 L379.91668701171875,99.97917938232422 L381.9583435058594,98.95833587646484 L384,98.95833587646484 L385.53125,98.95833587646484 L386.04168701171875,98.95833587646484 L387.0625,99.46875762939453 L387.57293701171875,101.51042938232422 L387.0625,105.08333587646484 L386.04168701171875,109.16667938232422 L385.0208740234375,113.25000762939453 L383.4895935058594,116.31250762939453 L382.46875,118.86458587646484 L381.44793701171875,121.92708587646484 L380.4270935058594,126.52083587646484 L379.40625,133.15625 L378.8958435058594,140.3020782470703 L378.38543701171875,146.4270782470703 L377.875,150.5104217529297 L377.875,154.0833282470703 L377.875,155.6145782470703 L377.875,159.6979217529297 L377.875,163.78125 L377.875,167.8645782470703 L377.875,170.9270782470703 L378.38543701171875,172.4583282470703 L379.40625,172.96876525878906 L380.4270935058594,172.96876525878906 L382.46875,172.4583282470703 L390.63543701171875,169.3958282470703 L399.3125,164.2916717529297 L405.94793701171875,160.2083282470703 M460.5625,40.77083206176758 L461.07293701171875,58.63541793823242 L460.5625,71.90625762939453 L459.54168701171875,87.21875762939453 L458.5208740234375,101.51042938232422 L458.01043701171875,110.69792938232422 L457.5,119.37500762939453 L456.9896240234375,130.09375 L456.9896240234375,140.8125 L456.9896240234375,145.40625 L456.9896240234375,151.53125 L456.9896240234375,156.125 L456.9896240234375,159.6979217529297 L456.9896240234375,161.2291717529297 L456.9896240234375,162.25 L456.9896240234375,162.7604217529297 L456.9896240234375,162.25 M513.1354370117188,45.36458206176758 L496.8021240234375,65.27083587646484 L493.22918701171875,69.86458587646484 L479.44793701171875,85.68750762939453 L470.26043701171875,95.89583587646484 L463.1146240234375,104.06250762939453 L460.5625,107.12500762939453 L455.96875,112.22917938232422 L451.88543701171875,116.31250762939453 L448.3125,119.88542938232422 L445.25,122.94792938232422 L442.69793701171875,123.96875762939453 L441.6771240234375,124.47917938232422 L440.65625,124.47917938232422 L439.63543701171875,124.47917938232422 L439.125,123.45833587646484 L439.125,122.94792938232422 L439.125,121.92708587646484 L439.125,119.88542938232422 L439.63543701171875,116.82292938232422 L441.16668701171875,113.76042938232422 L443.2083740234375,110.69792938232422 L445.25,107.63542938232422 L447.29168701171875,104.57292938232422 L449.3333740234375,102.53125762939453 L451.375,100.48958587646484 L453.9271240234375,98.44792938232422 L457.5,96.91667938232422 L459.54168701171875,96.40625762939453 L462.60418701171875,95.89583587646484 L465.66668701171875,95.89583587646484 L468.72918701171875,97.42708587646484 L472.3021240234375,100.48958587646484 L476.38543701171875,106.10417938232422 L479.44793701171875,111.71875762939453 L481.4896240234375,116.31250762939453 L483.53125,120.90625762939453 L485.57293701171875,127.54167938232422 L487.6146240234375,134.6875 L489.1458740234375,140.3020782470703 L490.6771240234375,145.40625 L491.69793701171875,148.9791717529297 L492.2083740234375,150.5104217529297 L493.7396240234375,153.5729217529297 L495.78125,156.6354217529297 L497.3125,159.6979217529297 L498.84375,162.25 L500.88543701171875,165.3125 L502.9271240234375,167.8645782470703 L504.96875,169.90626525878906 L507.01043701171875,172.4583282470703 L509.0521240234375,173.9895782470703 L511.09375,175.0104217529297 L512.1146240234375,175.5208282470703 L513.6458740234375,175.5208282470703 L514.6666870117188,175.0104217529297 L519.2604370117188,169.90626525878906 L533.0416870117188,152.5520782470703 L542.2291870117188,136.7291717529297 M537.6354370117188,94.87500762939453 L543.7604370117188,110.69792938232422 L544.2708740234375,114.78125762939453 L543.7604370117188,117.84375762939453 L542.7396240234375,120.90625762939453 L541.71875,123.96875762939453 L540.6979370117188,126.01042938232422 L539.6771240234375,128.0520782470703 L539.6771240234375,128.5625 L539.6771240234375,130.09375 L539.6771240234375,132.1354217529297 L541.2083740234375,134.1770782470703 L543.25,136.7291717529297 L545.2916870117188,138.7708282470703 L547.3333740234375,140.3020782470703 L549.375,141.3229217529297 L552.4375,141.8333282470703 L554.9896240234375,141.8333282470703 L558.0521240234375,140.8125 L561.1146240234375,137.75 L564.6875,132.6458282470703 L566.21875,130.09375 L567.75,126.01042938232422 L568.2604370117188,121.92708587646484 L568.2604370117188,117.33333587646484 L567.75,112.73958587646484 L567.2396240234375,108.65625762939453 L566.7291870117188,105.08333587646484 L566.7291870117188,103.04167938232422 L566.7291870117188,101.00000762939453 L566.7291870117188,99.97917938232422 L566.7291870117188,98.95833587646484 L566.7291870117188,98.44792938232422 L566.21875,98.44792938232422 L565.1979370117188,100.48958587646484 L563.6666870117188,108.65625762939453 L563.15625,111.71875762939453 L562.1354370117188,118.35417938232422 L562.1354370117188,128.0520782470703 L562.1354370117188,136.7291717529297 L562.6458740234375,141.8333282470703 L563.6666870117188,144.3854217529297 L565.7083740234375,145.9166717529297 L572.34375,147.4479217529297 L581.0208740234375,145.9166717529297 M593.78125,110.18750762939453 L594.2916870117188,132.6458282470703 L594.2916870117188,136.21875 L594.2916870117188,142.34375 L594.2916870117188,144.8958282470703 L594.2916870117188,145.9166717529297 L594.8021240234375,146.4270782470703 L595.3125,146.4270782470703 M596.84375,122.94792938232422 L603.4791870117188,110.69792938232422 L607.5625,106.10417938232422 L612.15625,102.02083587646484 L616.2396240234375,99.46875762939453 L619.8125,97.93750762939453 L622.875,97.42708587646484 L624.9166870117188,97.42708587646484 L626.9583740234375,98.44792938232422 L629.5104370117188,101.00000762939453 L632.0625,105.08333587646484 L633.0833740234375,108.14583587646484 L634.6146240234375,113.25000762939453 L635.6354370117188,116.82292938232422 L636.1458740234375,120.39583587646484 L636.1458740234375,124.47917938232422 L636.1458740234375,129.0729217529297 L636.1458740234375,132.6458282470703 L636.1458740234375,135.1979217529297 L636.1458740234375,137.2395782470703 L636.65625,138.2604217529297 L636.65625,139.28125 L636.65625,140.3020782470703 L636.65625,141.3229217529297 L636.65625,142.34375 L636.65625,142.8541717529297 L637.1666870117188,142.8541717529297 L637.1666870117188,143.3645782470703 L637.1666870117188,142.34375 L637.1666870117188,140.8125 L636.1458740234375,138.2604217529297 L635.125,134.1770782470703 L634.6146240234375,131.625 L634.6146240234375,127.03125762939453 L634.6146240234375,122.94792938232422 L635.125,118.86458587646484 L636.1458740234375,114.78125762939453 L638.1875,110.69792938232422 L640.2291870117188,107.63542938232422 L642.78125,105.59375762939453 L646.3541870117188,103.55208587646484 L650.4375,102.02083587646484 L653.5,101.51042938232422 L656.0521240234375,102.02083587646484 L658.09375,103.04167938232422 L661.15625,106.10417938232422 L662.6875,108.14583587646484 L665.2396240234375,113.25000762939453 L666.7708740234375,117.33333587646484 L667.7916870117188,120.39583587646484 L667.7916870117188,124.47917938232422 L668.3021240234375,128.5625 L668.3021240234375,132.6458282470703 L668.8125,135.7083282470703 L669.8333740234375,137.75 L672.8958740234375,139.7916717529297 L678.5104370117188,140.8125 L686.1666870117188,140.3020782470703 L691.78125,137.2395782470703 M731.59375,108.14583587646484 L717.3021240234375,104.06250762939453 L715.2604370117188,104.57292938232422 L713.7291870117188,105.08333587646484 L709.6458740234375,108.14583587646484 L704.03125,114.27083587646484 L702.5,116.31250762939453 L701.4791870117188,117.33333587646484 L700.96875,118.35417938232422 L699.9479370117188,120.39583587646484 L699.4375,122.43750762939453 L699.4375,123.45833587646484 L699.4375,125.50000762939453 L699.4375,127.03125762939453 L699.4375,129.0729217529297 L699.4375,130.09375 L699.4375,131.1145782470703 L699.4375,132.6458282470703 L699.4375,134.1770782470703 L699.9479370117188,135.1979217529297 L700.96875,136.7291717529297 L701.9896240234375,137.75 L703.0104370117188,138.7708282470703 L703.5208740234375,139.28125 L704.5416870117188,140.3020782470703 L705.5625,141.3229217529297 L706.5833740234375,141.8333282470703 L707.6041870117188,141.8333282470703 L708.625,141.8333282470703 L709.6458740234375,141.8333282470703 L710.6666870117188,141.8333282470703 L711.6875,141.8333282470703 L712.7083740234375,141.8333282470703 L713.7291870117188,140.8125 L714.75,139.7916717529297 L715.7708740234375,139.28125 L717.8125,137.2395782470703 L719.8541870117188,134.1770782470703 L721.8958740234375,131.1145782470703 L723.9375,129.0729217529297 L724.9583740234375,127.03125762939453 L725.9791870117188,124.47917938232422 L727,121.41667938232422 L728.0208740234375,117.84375762939453 L728.0208740234375,114.78125762939453 L728.0208740234375,111.20833587646484 L728.0208740234375,107.12500762939453 L727,102.53125762939453 L725.9791870117188,98.44792938232422 L725.46875,96.40625762939453 L724.4479370117188,93.34375762939453 L722.9166870117188,90.79167938232422 L719.8541870117188,87.21875762939453 L716.28125,83.64583587646484 L712.7083740234375,80.58333587646484 L709.6458740234375,78.54167938232422 L706.5833740234375,77.52083587646484 L703.5208740234375,77.52083587646484 L700.4583740234375,78.03125762939453 L697.3958740234375,79.56250762939453 L694.3333740234375,81.60417938232422 L691.2708740234375,84.15625762939453 L689.7396240234375,88.75000762939453 M728.0208740234375,102.53125762939453 L724.9583740234375,116.31250762939453 L724.9583740234375,119.37500762939453 L724.9583740234375,122.94792938232422 L725.46875,127.54167938232422 L726.4896240234375,131.1145782470703 L727,132.6458282470703 L728.53125,136.7291717529297 L729.5521240234375,138.2604217529297 L730.0625,138.7708282470703 L731.0833740234375,139.28125 L732.1041870117188,139.28125 L734.1458740234375,139.28125 L737.71875,138.7708282470703 L742.3125,137.2395782470703 L748.4375,134.6875 L749.96875,133.6666717529297 M750.9896240234375,96.91667938232422 L758.1354370117188,107.12500762939453 L760.1771240234375,110.69792938232422 L761.1979370117188,112.73958587646484 L762.7291870117188,116.82292938232422 L763.2396240234375,120.90625762939453 L763.2396240234375,127.03125762939453 L763.2396240234375,132.6458282470703 L763.2396240234375,136.21875 L763.2396240234375,138.7708282470703 L763.2396240234375,139.7916717529297 L763.2396240234375,140.8125 L763.2396240234375,141.3229217529297 L763.2396240234375,140.8125 L763.2396240234375,139.28125 L763.2396240234375,136.21875 L763.2396240234375,130.6041717529297 L763.2396240234375,129.0729217529297 L762.7291870117188,125.50000762939453 L762.21875,121.92708587646484 L762.21875,117.33333587646484 L762.21875,112.22917938232422 L762.21875,107.12500762939453 L763.2396240234375,101.51042938232422 L763.75,98.95833587646484 L764.7708740234375,95.38542938232422 L766.8125,93.34375762939453 L769.3646240234375,91.30208587646484 L773.4479370117188,89.26042938232422 L779.0625,87.21875762939453 L784.6771240234375,86.19792938232422 L788.760498046875,85.17708587646484 L791.3125,84.15625762939453 L793.354248046875,83.64583587646484 L794.885498046875,82.62500762939453 L796.416748046875,81.60417938232422 L797.4375,80.58333587646484 L798.96875,79.56250762939453 L799.9896240234375,79.05208587646484 L803.0521240234375,75.98958587646484 L804.072998046875,74.96875762939453 L805.604248046875,73.43750762939453 " fill="none" stroke="blue" stroke-width="1"/> 
            </svg>