<?xml version="1.0" standalone="no"?>
<svg id="svg1" baseProfile="full" height="200" width="100%" version="1.1" xmlns="http://www.w3.org/2000/svg" xmlns:ev="http://www.w3.org/2001/xml-events" xmlns:xlink="http://www.w3.org/1999/xlink" onmousedown="mouseDown(evt)" onmouseup="mouseUp(evt)" onmousemove="mouseMove(evt)" ontouchstart="mouseDown(evt)" ontouchmove="mouseMove(evt)" ontouchend="mouseUp(evt)">
                <script type="text/JavaScript">
                    
                        var svg = document.getElementById("svg1");
                        var pt = svg.createSVGPoint();
                        isDrawing = false;
                        start = 0;
                        sp = null;
                        function alert_coords(evt) {
                            if(evt.targetTouches) {
                                // Prefer Touch Events
                                pt.x = evt.targetTouches[0].clientX;
                                pt.y = evt.targetTouches[0].clientY;
                            } else {
                                pt.x = evt.clientX;
                                pt.y = evt.clientY;
                            }
                            // The cursor point, translated into svg coordinates
                            var point =  pt.matrixTransform(svg.getScreenCTM().inverse());
                            return point;
                        }
                        function mouseDown(evt) {
                            point = alert_coords(evt);
                            isDrawing = true;
                            var path = document.getElementById("path1");
                            var d = path.getAttributeNS(null, "d") + "M"+ point.x + "," + point.y+ " ";
                            path.setAttributeNS(null, "d", d);
                        }
                        function mouseUp(evt) {
                            if (isDrawing === true) {
                                point = alert_coords(evt);
                                var path = document.getElementById("path1");
                                var d = path.getAttributeNS(null, "d") + "M"+ point.x + "," + point.y+ " ";
                                path.setAttributeNS(null, "d", d);
                                isDrawing = false;
                            }
                        }
                        function mouseMove(evt) {
                            if (isDrawing === true) {
                                point = alert_coords(evt);
                                var path = document.getElementById("path1");
                                x = point.x;
                                y = point.y ;
                                var d = path.getAttributeNS(null, "d") + "L"+ x + "," + y + " ";
                                path.setAttributeNS(null, "d", d);
                            }
                        }
                    
                </script>
                <rect id="rect1" fill="white" height="200" width="100%" stroke="black" x="0" y="0"/>
                <path id="path1" d="M533.5521240234375,29.541669845581055 L533,29.33333396911621 M533,29.33333396911621 M533,29.33333396911621 M54.270835876464844,52.000003814697266 L52.739585876464844,70.37500762939453 L51.71875,87.21875762939453 L51.208335876464844,110.69792938232422 L51.208335876464844,118.86458587646484 L51.208335876464844,133.15625 L51.208335876464844,143.875 L50.69792175292969,153.0625 L50.69792175292969,159.6979217529297 L50.69792175292969,161.7395782470703 L50.69792175292969,164.2916717529297 L50.69792175292969,165.3125 M26.197917938232422,119.37500762939453 L40.489585876464844,111.71875762939453 L54.78125,102.53125762939453 L69.07292175292969,93.34375762939453 L78.77083587646484,84.66667938232422 L85.91667175292969,77.52083587646484 L88.97917175292969,74.45833587646484 L94.08334350585938,68.33333587646484 L97.65625,63.22916793823242 L100.20834350585938,59.656253814697266 L101.22917175292969,57.10416793823242 L102.25,55.062503814697266 L103.27084350585938,54.04166793823242 L103.27084350585938,53.531253814697266 L102.76042175292969,56.08333206176758 L100.71875,66.80208587646484 L100.20834350585938,79.56250762939453 L101.22917175292969,99.46875762939453 L102.76042175292969,117.84375762939453 L103.27084350585938,136.7291717529297 L103.27084350585938,143.875 L103.27084350585938,152.0416717529297 L102.76042175292969,157.65625 L102.76042175292969,160.2083282470703 L102.76042175292969,160.71875 L103.27084350585938,160.71875 M132.36459350585938,128.5625 L143.59375,118.35417938232422 L145.6354217529297,115.80208587646484 L147.1666717529297,113.25000762939453 L149.71875,108.14583587646484 L151.25,104.06250762939453 L151.7604217529297,101.00000762939453 L151.7604217529297,98.95833587646484 L151.25,97.93750762939453 L148.6979217529297,98.44792938232422 L144.61459350585938,102.02083587646484 L139.5104217529297,109.67708587646484 L137.46875,113.25000762939453 L134.40625,122.43750762939453 L132.36459350585938,132.6458282470703 L131.8541717529297,140.8125 L131.8541717529297,145.9166717529297 L133.3854217529297,150 L135.42709350585938,152.5520782470703 L140.53125,154.0833282470703 L148.6979217529297,154.0833282470703 L157.8854217529297,150.5104217529297 L164.52084350585938,145.40625 M199.22918701171875,58.63541793823242 L193.10418701171875,81.60417938232422 L192.08334350585938,90.79167938232422 L191.0625,99.46875762939453 L190.04168701171875,114.78125762939453 L189.02084350585938,128.0520782470703 L189.02084350585938,137.75 L189.02084350585938,144.8958282470703 L190.04168701171875,151.0208282470703 L190.55209350585938,153.5729217529297 M238.53125,53.531253814697266 L235.46875,76.50000762939453 L233.9375,94.36458587646484 L232.91668701171875,108.14583587646484 L231.38543701171875,121.41667938232422 L230.875,128.0520782470703 L229.85418701171875,140.3020782470703 L227.30209350585938,154.59375 L224.23959350585938,166.3333282470703 M276.8125,107.12500762939453 L264.5625,120.90625762939453 L263.03125,125.50000762939453 L262.01043701171875,130.09375 L260.9895935058594,138.7708282470703 L261.5,144.8958282470703 L262.5208435058594,149.4895782470703 L264.5625,152.5520782470703 L266.60418701171875,154.0833282470703 L268.6458435058594,155.1041717529297 L272.21875,156.125 L275.79168701171875,155.6145782470703 L279.875,154.0833282470703 L283.9583435058594,151.0208282470703 L285.4895935058594,148.9791717529297 L289.57293701171875,141.8333282470703 L292.125,134.6875 L293.65625,128.5625 L293.65625,122.43750762939453 L292.63543701171875,116.82292938232422 L290.59375,112.22917938232422 L287.53125,109.16667938232422 L282.9375,107.12500762939453 L279.875,107.12500762939453 M398.8021240234375,96.40625762939453 L393.69793701171875,115.80208587646484 L392.6771240234375,126.52083587646484 L392.16668701171875,131.1145782470703 L391.65625,138.7708282470703 L391.65625,144.3854217529297 L392.16668701171875,148.9791717529297 L392.6771240234375,152.5520782470703 L392.6771240234375,154.0833282470703 L392.6771240234375,154.59375 L393.69793701171875,154.59375 L395.22918701171875,153.5729217529297 L398.29168701171875,150 L403.3958740234375,143.3645782470703 L406.96875,136.21875 L410.03125,132.1354217529297 L411.0521240234375,130.6041717529297 L413.09375,128.5625 L415.13543701171875,127.54167938232422 L418.19793701171875,127.03125762939453 L422.79168701171875,127.54167938232422 L428.91668701171875,131.1145782470703 L435.04168701171875,136.21875 L441.16668701171875,141.8333282470703 L445.76043701171875,146.4270782470703 L448.82293701171875,148.9791717529297 L450.8646240234375,150.5104217529297 L452.90625,151.0208282470703 L454.4375,150.5104217529297 L456.9896240234375,144.8958282470703 L458.5208740234375,137.75 L460.5625,126.52083587646484 L461.5833740234375,115.80208587646484 L462.60418701171875,106.61458587646484 L463.1146240234375,99.97917938232422 L464.13543701171875,95.89583587646484 L465.15625,93.85417938232422 L466.1771240234375,92.83333587646484 L467.7083740234375,92.83333587646484 M509.0521240234375,98.44792938232422 L498.3333740234375,109.16667938232422 L496.29168701171875,112.73958587646484 L494.25,116.82292938232422 L491.1875,126.52083587646484 L489.65625,135.1979217529297 L489.65625,141.8333282470703 L490.6771240234375,146.4270782470703 L492.71875,149.4895782470703 L494.76043701171875,151.53125 L498.3333740234375,152.5520782470703 L502.41668701171875,153.0625 L507.01043701171875,151.53125 L509.0521240234375,150 L513.1354370117188,143.3645782470703 L517.21875,133.15625 L519.7708740234375,123.45833587646484 L520.7916870117188,113.25000762939453 L520.28125,104.57292938232422 L519.2604370117188,98.95833587646484 L517.21875,95.89583587646484 L512.625,94.36458587646484 L508.54168701171875,96.91667938232422 L505.47918701171875,101.51042938232422 M547.3333740234375,94.87500762939453 L549.375,109.67708587646484 L549.8854370117188,114.78125762939453 L550.3958740234375,120.39583587646484 L550.3958740234375,131.625 L550.3958740234375,140.8125 L550.3958740234375,146.9375 L550.3958740234375,150.5104217529297 L550.3958740234375,152.5520782470703 L550.3958740234375,153.5729217529297 L550.3958740234375,153.0625 L550.3958740234375,152.0416717529297 L550.3958740234375,138.7708282470703 L551.9271240234375,124.47917938232422 L554.9896240234375,109.67708587646484 L558.0521240234375,102.02083587646484 L561.625,98.44792938232422 L568.7708740234375,95.89583587646484 L578.46875,95.38542938232422 L580.5104370117188,95.38542938232422 M605.5208740234375,41.79166793823242 L604.5,57.61458206176758 L603.9896240234375,64.25000762939453 L603.4791870117188,70.37500762939453 L602.4583740234375,84.15625762939453 L601.4375,100.48958587646484 L600.9271240234375,115.29167938232422 L601.9479370117188,130.6041717529297 L602.96875,140.8125 L603.9896240234375,145.9166717529297 L605.0104370117188,147.9583282470703 L606.03125,147.9583282470703 M665.2396240234375,111.71875762939453 L649.9271240234375,109.16667938232422 L644.3125,111.71875762939453 L640.7396240234375,114.78125762939453 L637.1666870117188,121.92708587646484 L635.125,131.1145782470703 L637.1666870117188,138.2604217529297 L642.2708740234375,141.8333282470703 L644.3125,142.8541717529297 M664.7291870117188,36.687503814697266 L667.28125,54.04166793823242 L667.7916870117188,65.27083587646484 L667.7916870117188,75.47917938232422 L667.28125,80.58333587646484 L666.2604370117188,92.83333587646484 L665.2396240234375,105.08333587646484 L664.7291870117188,114.78125762939453 L664.21875,127.03125762939453 L664.21875,138.2604217529297 L664.7291870117188,145.9166717529297 L665.2396240234375,150.5104217529297 L665.75,153.5729217529297 L665.75,155.6145782470703 L665.75,156.6354217529297 L665.75,157.65625 L666.7708740234375,157.65625 L668.3021240234375,156.6354217529297 L668.8125,156.125 " fill="none" stroke="blue" stroke-width="1"/> 
            </svg>